<svg xmlns="http://www.w3.org/2000/svg" viewBox="0 0 113.75 58.75"><defs><style>.cls-1{fill:#aaa880;}.cls-2{fill:#d1cc99;}</style></defs><g id="Layer_2" data-name="Layer 2"><g id="Layer_1-2" data-name="Layer 1"><path class="cls-1" d="M9,0h96.25a8.5,8.5,0,0,1,8.5,8.5V50.25a8.5,8.5,0,0,1-8.5,8.5H8.5A8.5,8.5,0,0,1,0,50.25V9A9,9,0,0,1,9,0Z"/><ellipse class="cls-2" cx="56.88" cy="29.37" rx="19.12" ry="18.63"/><path class="cls-2" d="M19.68,46.93V43a12.15,12.15,0,0,1-6.22-1.7l1-2.59a11.18,11.18,0,0,0,5.85,1.66c2.89,0,4.84-1.58,4.84-3.79s-1.59-3.44-4.6-4.6c-4.14-1.55-6.7-3.33-6.7-6.69,0-3.21,2.39-5.65,6.14-6.23V15.17h2.52v3.76a11.13,11.13,0,0,1,5.28,1.35l-1,2.55a10.28,10.28,0,0,0-5.13-1.31c-3.13,0-4.31,1.78-4.31,3.32,0,2,1.51,3,5,4.41,4.19,1.63,6.31,3.64,6.31,7.08,0,3.06-2.24,5.92-6.43,6.58v4Z"/><path class="cls-2" d="M93.09,46.93V43a12.15,12.15,0,0,1-6.22-1.7l1-2.59a11.21,11.21,0,0,0,5.85,1.66c2.89,0,4.84-1.58,4.84-3.79S97,33.16,94,32c-4.15-1.55-6.71-3.33-6.71-6.69,0-3.21,2.4-5.65,6.14-6.23V15.17H95.9v3.76a11.1,11.1,0,0,1,5.28,1.35l-1,2.55A10.28,10.28,0,0,0,95,21.52c-3.13,0-4.31,1.78-4.31,3.32,0,2,1.51,3,5,4.41,4.18,1.63,6.3,3.64,6.3,7.08,0,3.06-2.24,5.92-6.43,6.58v4Z"/><path class="cls-1" d="M50.58,24.85h0L48.26,26l-.34-1.3,2.86-1.48h1.51V35.91H50.58Z"/><path class="cls-1" d="M65.75,29.45c0,4.3-1.65,6.68-4.55,6.68-2.55,0-4.28-2.32-4.32-6.51S58.77,23,61.42,23,65.75,25.42,65.75,29.45Zm-7.1.19c0,3.29,1,5.16,2.65,5.16,1.82,0,2.68-2,2.68-5.27s-.82-5.16-2.66-5.16C59.77,24.37,58.65,26.2,58.65,29.64Z"/></g></g></svg>