<svg xmlns="http://www.w3.org/2000/svg" viewBox="0 0 113.75 58.75"><defs><style>.cls-1{fill:#aaa880;}.cls-2{fill:#d1cc99;}</style></defs><g id="Layer_2" data-name="Layer 2"><g id="Layer_1-2" data-name="Layer 1"><path class="cls-1" d="M9,0h96.25a8.5,8.5,0,0,1,8.5,8.5V50.25a8.5,8.5,0,0,1-8.5,8.5H8.5A8.5,8.5,0,0,1,0,50.25V9A9,9,0,0,1,9,0Z"/><ellipse class="cls-2" cx="56.88" cy="29.37" rx="19.12" ry="18.63"/><path class="cls-2" d="M19.68,46.93V43a12.25,12.25,0,0,1-6.22-1.7l1-2.59a11.18,11.18,0,0,0,5.85,1.66c2.89,0,4.84-1.58,4.84-3.79s-1.59-3.44-4.6-4.6c-4.14-1.55-6.7-3.33-6.7-6.69,0-3.21,2.39-5.65,6.14-6.23V15.17h2.52v3.76a11.13,11.13,0,0,1,5.28,1.35l-1,2.55a10.28,10.28,0,0,0-5.13-1.31c-3.13,0-4.31,1.78-4.31,3.32,0,2,1.51,3,5,4.41,4.19,1.63,6.31,3.64,6.31,7.08,0,3.06-2.24,5.92-6.43,6.58v4Z"/><path class="cls-2" d="M93.09,46.93V43a12.25,12.25,0,0,1-6.22-1.7l1-2.59a11.18,11.18,0,0,0,5.85,1.66c2.89,0,4.84-1.58,4.84-3.79S97,33.16,94,32c-4.15-1.55-6.71-3.33-6.71-6.69,0-3.21,2.4-5.65,6.14-6.23V15.17H95.9v3.75a11.2,11.2,0,0,1,5.28,1.36l-1,2.55A10.28,10.28,0,0,0,95,21.52c-3.13,0-4.31,1.78-4.31,3.32,0,2,1.51,3,5,4.41,4.18,1.63,6.3,3.64,6.3,7.08,0,3.06-2.24,5.92-6.43,6.58v4Z"/><path class="cls-1" d="M59.63,24.7h-5L54.13,28a7,7,0,0,1,1.07-.08,5.79,5.79,0,0,1,2.82.68,3.61,3.61,0,0,1,1.87,3.25c0,2.48-2,4.33-4.87,4.33a6.55,6.55,0,0,1-3.26-.78L52.2,34a5.89,5.89,0,0,0,2.8.71A2.86,2.86,0,0,0,58.1,32c0-1.64-1.15-2.8-3.77-2.8a13.85,13.85,0,0,0-1.81.13l.85-6.07h6.26Z"/></g></g></svg>