<?xml version="1.0" encoding="utf-8"?>
<!-- Generator: Adobe Illustrator 26.0.2, SVG Export Plug-In . SVG Version: 6.00 Build 0)  -->
<svg version="1.1" id="Layer_1" xmlns="http://www.w3.org/2000/svg" xmlns:xlink="http://www.w3.org/1999/xlink" x="0px" y="0px"
	 viewBox="0 0 52.3 34.4" style="enable-background:new 0 0 52.3 34.4;" xml:space="preserve">
<style type="text/css">
	.st0{fill:#AEA49B;}
	.st1{fill:none;}
	.st2{font-family:'MyriadPro-Bold';}
	.st3{font-size:2px;}
</style>
<path class="st0" d="M12,12.8v12.6c0,1.2,1,2.2,2.2,2.2h23.9c1.2,0,2.2-1,2.2-2.2V12.8c0-1.2-1-2.2-2.2-2.2H14.2
	C13,10.6,12,11.6,12,12.8z"/>
<polygon class="st0" points="27.8,10.6 36.2,6.8 34.6,10.6 "/>
<rect x="12.3" y="10.7" class="st1" width="28" height="16.8"/>
<rect x="12.3" y="10.7" class="st1" width="28" height="16.8"/>
<rect x="14.6" y="12.7" class="st1" width="23.4" height="12.9"/>
<text transform="matrix(1 0 0 1 15.3151 15.01)"><tspan x="0" y="0" class="st2 st3">Did you know  the newer </tspan><tspan x="0.6" y="2.4" class="st2 st3">the clothes and the less </tspan><tspan x="-0.1" y="4.8" class="st2 st3">they’ve been washed the </tspan><tspan x="0" y="7.2" class="st2 st3">more toxic chemicals are </tspan><tspan x="7.1" y="9.6" class="st2 st3">in them?</tspan></text>
</svg>
