<svg xmlns="http://www.w3.org/2000/svg" viewBox="0 0 113.75 58.75"><defs><style>.cls-1{fill:#75724e;}.cls-2{fill:#ffe5a1;}.cls-3{fill:none;stroke:#75724e;stroke-miterlimit:10;}.cls-4{fill:#fff;}</style></defs><g id="Layer_2" data-name="Layer 2"><g id="Layer_1-2" data-name="Layer 1"><path class="cls-1" d="M9,0h96.25a8.5,8.5,0,0,1,8.5,8.5V50.25a8.5,8.5,0,0,1-8.5,8.5H8.5A8.5,8.5,0,0,1,0,50.25V9A9,9,0,0,1,9,0Z"/><circle class="cls-2" cx="25.2" cy="29.36" r="14.39"/><circle class="cls-1" cx="21.26" cy="26.03" r="1.22"/><circle class="cls-1" cx="29.78" cy="26.03" r="1.22"/><path class="cls-3" d="M20,32.8s5.16,7.67,11,0"/><path class="cls-4" d="M54.89,35.46a4.13,4.13,0,0,1-2.89,1,4.35,4.35,0,0,1-3.42-1.39,5.59,5.59,0,0,1-1.24-3.84,5.55,5.55,0,0,1,1.41-4.07,4.8,4.8,0,0,1,6.85.42,3.55,3.55,0,0,1,.7,1.88H54.2a3,3,0,0,0-.53-1.09,2.13,2.13,0,0,0-1.7-.66,2.1,2.1,0,0,0-1.81.93,4.39,4.39,0,0,0-.67,2.62,4,4,0,0,0,.7,2.54,2.23,2.23,0,0,0,1.78.85A2,2,0,0,0,53.66,34a3.2,3.2,0,0,0,.54-1.17h2.08A4.56,4.56,0,0,1,54.89,35.46Z"/><path class="cls-4" d="M63.94,29.71a4.6,4.6,0,0,1,0,5.6,4.11,4.11,0,0,1-5.72,0,4.6,4.6,0,0,1,0-5.6,4,4,0,0,1,5.72,0Zm-2.87.46a1.52,1.52,0,0,0-1.31.61,2.75,2.75,0,0,0-.46,1.72,2.78,2.78,0,0,0,.46,1.73,1.52,1.52,0,0,0,1.31.61,1.55,1.55,0,0,0,1.32-.61,2.85,2.85,0,0,0,.45-1.73,2.82,2.82,0,0,0-.45-1.72A1.55,1.55,0,0,0,61.07,30.17Z"/><path class="cls-4" d="M70,30.56a1.62,1.62,0,0,0-1.58.77,2.94,2.94,0,0,0-.23,1.32v3.56h-2V28.76h1.86v1.3a4,4,0,0,1,.79-1,2.16,2.16,0,0,1,1.42-.46h.26v2l-.33,0Z"/><path class="cls-4" d="M75.48,30.56a1.62,1.62,0,0,0-1.58.77,2.94,2.94,0,0,0-.23,1.32v3.56h-2V28.76h1.86v1.3a4.3,4.3,0,0,1,.78-1,2.19,2.19,0,0,1,1.43-.46H76v2l-.33,0Z"/><path class="cls-4" d="M83.56,34a2.44,2.44,0,0,1-.69,1.34,3.38,3.38,0,0,1-2.68,1.09,3.78,3.78,0,0,1-2.51-.92,3.67,3.67,0,0,1-1.09-3,4.13,4.13,0,0,1,1-3,3.36,3.36,0,0,1,2.55-1,3.9,3.9,0,0,1,1.67.35A3,3,0,0,1,83,30a3.9,3.9,0,0,1,.57,1.54A9.93,9.93,0,0,1,83.65,33h-5.1a1.85,1.85,0,0,0,.71,1.57,1.63,1.63,0,0,0,1,.28,1.37,1.37,0,0,0,1-.34,1.72,1.72,0,0,0,.37-.51Zm-1.93-2.29a1.7,1.7,0,0,0-.47-1.17,1.44,1.44,0,0,0-1-.4,1.33,1.33,0,0,0-1.05.42,2.12,2.12,0,0,0-.47,1.15Z"/><path class="cls-4" d="M91.41,31.44h-2a1.71,1.71,0,0,0-.28-.76,1.15,1.15,0,0,0-1-.45,1.34,1.34,0,0,0-1.35,1,4.06,4.06,0,0,0-.19,1.38,3.69,3.69,0,0,0,.19,1.32,1.3,1.3,0,0,0,1.31.93,1.14,1.14,0,0,0,1-.37,1.87,1.87,0,0,0,.35-1h2a3.26,3.26,0,0,1-.64,1.68A3.11,3.11,0,0,1,88,36.47a3.15,3.15,0,0,1-2.64-1.06,4.3,4.3,0,0,1-.85-2.77,4.36,4.36,0,0,1,.94-3,3.25,3.25,0,0,1,2.58-1.07,3.85,3.85,0,0,1,2.29.63A2.92,2.92,0,0,1,91.41,31.44Z"/><path class="cls-4" d="M96.16,34.83v1.45l-.92,0a2.5,2.5,0,0,1-1.89-.48,1.43,1.43,0,0,1-.33-1V30.22H92V28.83h1V26.75H95v2.08h1.21v1.39H95v3.94a.88.88,0,0,0,.12.57,1.34,1.34,0,0,0,.71.11h.38Z"/><path class="cls-4" d="M100.18,28.73l-.55,4.7h-1L98,28.73V26.17h2.14Zm-.05,5.51v2h-2v-2Z"/></g></g></svg>