<svg id="Layer_1" data-name="Layer 1" xmlns="http://www.w3.org/2000/svg" viewBox="0 0 663.58 646.83"><defs><style>.cls-1{fill:#946236;}</style></defs><path class="cls-1" d="M351,16.5c-25.7,5.7-45.5,22.4-53,44.5-2.8,8.1-3.7,22.6-2,31.2,3.7,18.9,17.8,36.6,36.5,45.7,11,5.5,18,7.1,32,7.8,10.1.4,13.4.2,21-1.6,44.2-10.5,66.4-52.9,47.7-91.1-5.6-11.4-17.7-23.2-30.2-29.3a107.48,107.48,0,0,0-15.5-6.3C379,15.2,359.2,14.7,351,16.5Z" transform="translate(-31 -15.4)"/><path class="cls-1" d="M145.9,47c-23.6,3.7-43.9,19.4-51,39.5-2.6,7.5-3.6,21.9-1.9,29.8,2.7,13,13.3,28.1,25.6,36.2,12.6,8.4,31.5,12.6,47,10.5,30-4,51.6-24,55.5-51.5,3.9-27.9-17.2-56-47.4-63C165.4,46.6,152.8,45.9,145.9,47Z" transform="translate(-31 -15.4)"/><path class="cls-1" d="M562.5,53.6c-16.4,3.4-34,15.4-41.8,28.5-13.6,23-10.1,48.9,9.2,67.9,13.1,13,28.1,19,47.6,19,18.9,0,34.1-5.9,47.1-18.3,11.8-11.1,17.4-24.2,17.4-40.5C642,73,603.1,45.3,562.5,53.6Z" transform="translate(-31 -15.4)"/><path class="cls-1" d="M307.5,178.4c-14.6,3.4-28.6,11.3-37,20.9-5,5.7-10.7,16-12.4,22.2-2.5,9.5-31.1,173-31.1,177.7.1,21,16.6,40.7,39.6,47.3,3.2,1,6.1,1.9,6.3,2.1s2.7,46.4,5.6,102.8c5.6,112.3,5,106.4,11.7,108.4,2.9.9,40.4,1.6,120.3,2.4,20.5.2,22.7-.4,24.5-7.1.5-2,4.3-48.1,8.5-102.6s7.7-99.6,7.8-100.4,3.2-2.1,7.5-3.2a53.82,53.82,0,0,0,25.7-14.4c9.3-9.3,14.5-21,14.5-33,0-2.9-5.8-43.9-12.9-91.2-14.4-95.2-13.9-93.3-23.4-105.8s-24-21.5-40.7-24.9C411,177.4,316.2,176.4,307.5,178.4Z" transform="translate(-31 -15.4)"/><path class="cls-1" d="M103.5,192.5c-21.3,4.7-38.2,18.9-43.9,37C57.6,236,31,385.1,31,389.9c.2,18.9,15.8,37.3,36.3,42.5l5.2,1.3.8,15.4c7,139.2,8.7,168,9.7,169.9,2.5,4.6,4,4.7,68.1,5.5l60.5.7,2.9-2.4,2.8-2.4,6.3-80.5c3.5-44.2,6.3-80.9,6.4-81.4s-2.3-2.4-5.1-4a78.3,78.3,0,0,1-12.4-10.6c-11.1-11.7-16.5-24.6-16.5-39.7,0-5.2,5.1-36,17-102.6,9.4-52.4,17-95.7,17-96.4,0-2-9-7.1-17.5-9.9-7.8-2.5-9-2.6-43-3.4C121.2,190.9,110.4,191,103.5,192.5Z" transform="translate(-31 -15.4)"/><path class="cls-1" d="M521.4,198.9c-7.1,1.9-18.7,7.2-19.8,9-.3.4,6,44.2,13.9,97.1S530,404.2,530,407.9c0,14.8-6.2,28.4-18.4,40.6-4.5,4.4-10.2,9.1-12.7,10.4l-4.6,2.4.5,7.6c.2,4.2,2.1,40.9,4.1,81.5l3.7,73.9,2.7,2.2c3.3,2.9,9.7,3.2,76.4,4,42.7.5,49.6.4,52.1-.9,1.6-.8,3.3-2.3,3.6-3.3.7-1.7,2.4-22.1,10.4-124.7l4.7-59.9,5.7-1.3c13.9-3.2,27.2-13.6,32.9-25.8,5.5-11.7,5.5-11.8-7.5-97.7-6.4-42.2-12.2-78.5-13-80.6-6.5-18.5-22.4-32-43.1-36.6-5.6-1.3-16.5-1.7-53-2.2C531,197,528.1,197.1,521.4,198.9Z" transform="translate(-31 -15.4)"/></svg>