<svg xmlns="http://www.w3.org/2000/svg" viewBox="0 0 279.9 205.08"><defs><style>.cls-1{fill:#ffe5a1;}.cls-2{fill:#74724e;}</style></defs><g id="Layer_2" data-name="Layer 2"><g id="Layer_1-2" data-name="Layer 1"><rect class="cls-1" y="82.49" width="279.9" height="122.59"/><rect class="cls-1" x="208.85" y="24.47" width="30.49" height="78.28"/><rect class="cls-1" x="245.97" width="33.93" height="90.05"/><path class="cls-2" d="M10.4,112.16h3.53V114H10.4Z"/><path class="cls-2" d="M22.62,113.38H20.69v3.68H18.81V106.82h4a3,3,0,0,1,2.17.79,3.27,3.27,0,0,1,.82,2.45,3.36,3.36,0,0,1-.82,2.57A3.28,3.28,0,0,1,22.62,113.38Zm.88-2.14a1.55,1.55,0,0,0,.37-1.16,1.46,1.46,0,0,0-.37-1.14,1.48,1.48,0,0,0-1-.34H20.69v3h1.77A1.41,1.41,0,0,0,23.5,111.24Z"/><path class="cls-2" d="M32.76,114.84a2.62,2.62,0,0,1-.62,1.37,2.85,2.85,0,0,1-2.41,1.1,3.2,3.2,0,0,1-2.26-.93,4,4,0,0,1-1-3,4.57,4.57,0,0,1,.88-3,2.85,2.85,0,0,1,2.29-1,3.15,3.15,0,0,1,1.51.36,2.82,2.82,0,0,1,1.1,1.12,4.05,4.05,0,0,1,.52,1.56,12.25,12.25,0,0,1,.05,1.5H28.26a2,2,0,0,0,.64,1.6,1.36,1.36,0,0,0,.87.29,1.19,1.19,0,0,0,.88-.35,1.6,1.6,0,0,0,.32-.52ZM31,112.52a1.84,1.84,0,0,0-.42-1.19,1.21,1.21,0,0,0-.94-.41,1.11,1.11,0,0,0-.94.43,2.21,2.21,0,0,0-.42,1.17Z"/><path class="cls-2" d="M39.62,110.45a5.19,5.19,0,0,1,0,5.69A3,3,0,0,1,37,117.33a3,3,0,0,1-2.57-1.19,5.19,5.19,0,0,1,0-5.69A2.91,2.91,0,0,1,37,109.24,2.92,2.92,0,0,1,39.62,110.45Zm-2.58.47a1.36,1.36,0,0,0-1.19.61,4,4,0,0,0,0,3.52,1.37,1.37,0,0,0,1.19.62,1.35,1.35,0,0,0,1.18-.62,4,4,0,0,0,0-3.52A1.34,1.34,0,0,0,37,110.92Z"/><path class="cls-2" d="M47.34,110.3a4.42,4.42,0,0,1,.81,2.88,4.93,4.93,0,0,1-.8,3,2.46,2.46,0,0,1-2.05,1,2,2,0,0,1-1.32-.45,2.65,2.65,0,0,1-.57-.73v4H41.68V109.49h1.67v1.12a3,3,0,0,1,.61-.78,2,2,0,0,1,1.39-.51A2.52,2.52,0,0,1,47.34,110.3Zm-1,3a3.37,3.37,0,0,0-.35-1.55,1.22,1.22,0,0,0-1.15-.67,1.33,1.33,0,0,0-1.31,1,4.44,4.44,0,0,0-.18,1.38A2.34,2.34,0,0,0,44,115.3a1.32,1.32,0,0,0,.87.32A1.25,1.25,0,0,0,46,115,3.28,3.28,0,0,0,46.34,113.27Z"/><path class="cls-2" d="M49.46,106.82h1.75v10.24H49.46Z"/><path class="cls-2" d="M58.66,114.84a2.72,2.72,0,0,1-.63,1.37,2.85,2.85,0,0,1-2.41,1.1,3.16,3.16,0,0,1-2.25-.93,4,4,0,0,1-1-3,4.57,4.57,0,0,1,.88-3,2.85,2.85,0,0,1,2.29-1,3.15,3.15,0,0,1,1.51.36,2.78,2.78,0,0,1,1.11,1.12,4.22,4.22,0,0,1,.51,1.56,12.25,12.25,0,0,1,.05,1.5H54.15a2,2,0,0,0,.64,1.6,1.36,1.36,0,0,0,.87.29,1.19,1.19,0,0,0,.88-.35,1.79,1.79,0,0,0,.33-.52Zm-1.74-2.32a1.84,1.84,0,0,0-.42-1.19,1.19,1.19,0,0,0-.94-.41,1.11,1.11,0,0,0-.94.43,2.21,2.21,0,0,0-.42,1.17Z"/><path class="cls-2" d="M65.22,106.75v1.83H63.45v-1.83Zm0,2.74v7.57H63.45v-7.57Z"/><path class="cls-2" d="M70.08,111a1.22,1.22,0,0,0-1.23.86,3.36,3.36,0,0,0-.17,1.15v4.1H66.93V109.5h1.7v1.11a3.16,3.16,0,0,1,.64-.85,2.06,2.06,0,0,1,1.37-.45,2.4,2.4,0,0,1,1.7.61,2.69,2.69,0,0,1,.66,2v5.1H71.2v-4.61a2.41,2.41,0,0,0-.14-.91A1,1,0,0,0,70.08,111Z"/><path class="cls-2" d="M82.73,109.83a2.54,2.54,0,0,1,.91,2H81.89a1.25,1.25,0,0,0-.2-.6,1.12,1.12,0,0,0-1-.4,1.23,1.23,0,0,0-.81.2.58.58,0,0,0-.25.47.52.52,0,0,0,.26.49,9.79,9.79,0,0,0,1.83.55,3.35,3.35,0,0,1,1.57.84,2.07,2.07,0,0,1,.51,1.43,2.43,2.43,0,0,1-.74,1.84,3.22,3.22,0,0,1-2.29.71,3.18,3.18,0,0,1-2.33-.75,2.61,2.61,0,0,1-.76-1.93h1.78a1.5,1.5,0,0,0,.24.76,1.53,1.53,0,0,0,1.21.39,1.75,1.75,0,0,0,.82-.17.57.57,0,0,0,.3-.52.58.58,0,0,0-.24-.51A9,9,0,0,0,80,114a3.59,3.59,0,0,1-1.61-.8,1.85,1.85,0,0,1-.46-1.36,2.48,2.48,0,0,1,.73-1.8,2.67,2.67,0,0,1,2-.76A3.46,3.46,0,0,1,82.73,109.83Z"/><path class="cls-2" d="M90.21,117.06l-1.06-5.52-1.06,5.52H86.27l-1.88-7.57h1.88l1,5.43,1-5.43h1.78l1,5.45,1-5.45H94L92,117.06Z"/><path class="cls-2" d="M100.65,114.84a2.62,2.62,0,0,1-.62,1.37,2.85,2.85,0,0,1-2.41,1.1,3.16,3.16,0,0,1-2.25-.93,4,4,0,0,1-1-3,4.57,4.57,0,0,1,.88-3,2.85,2.85,0,0,1,2.29-1,3.15,3.15,0,0,1,1.51.36,2.85,2.85,0,0,1,1.11,1.12,4.22,4.22,0,0,1,.51,1.56,12.25,12.25,0,0,1,0,1.5H96.15a2,2,0,0,0,.64,1.6,1.36,1.36,0,0,0,.87.29,1.19,1.19,0,0,0,.88-.35,1.79,1.79,0,0,0,.33-.52Zm-1.73-2.32a1.84,1.84,0,0,0-.42-1.19,1.21,1.21,0,0,0-.94-.41,1.11,1.11,0,0,0-.94.43,2.21,2.21,0,0,0-.42,1.17Z"/><path class="cls-2" d="M102.17,110.31a2.7,2.7,0,0,1,2.39-1,3.85,3.85,0,0,1,2,.49,2,2,0,0,1,.85,1.86v3.48c0,.24,0,.53,0,.87a1.28,1.28,0,0,0,.11.53.66.66,0,0,0,.26.23v.29h-1.91a2.47,2.47,0,0,1-.11-.43c0-.13,0-.29,0-.46a3.57,3.57,0,0,1-.84.76,2.24,2.24,0,0,1-1.28.37,2.07,2.07,0,0,1-1.5-.59,2.2,2.2,0,0,1-.59-1.66,2.25,2.25,0,0,1,1-2,4,4,0,0,1,1.54-.48l.59-.09a2.27,2.27,0,0,0,.7-.17.59.59,0,0,0,.37-.56.71.71,0,0,0-.28-.65,1.7,1.7,0,0,0-.84-.17,1,1,0,0,0-.88.34,1.65,1.65,0,0,0-.25.7h-1.69A3.17,3.17,0,0,1,102.17,110.31Zm1.31,5.32a.85.85,0,0,0,.6.23,1.62,1.62,0,0,0,1-.37,1.69,1.69,0,0,0,.5-1.37v-.74a1.63,1.63,0,0,1-.34.19,2.89,2.89,0,0,1-.46.14l-.39.08a2.22,2.22,0,0,0-.8.27.93.93,0,0,0-.4.84A.92.92,0,0,0,103.48,115.63Z"/><path class="cls-2" d="M112,115.65v1.48l-.83,0a2,2,0,0,1-1.7-.49,1.57,1.57,0,0,1-.3-1.05V111h-.93v-1.41h.93v-2.12h1.74v2.12H112V111h-1.09v4a1,1,0,0,0,.1.58c.07.08.28.12.64.12H112Z"/><path class="cls-2" d="M117.74,109.83a2.51,2.51,0,0,1,.9,2h-1.75a1.25,1.25,0,0,0-.19-.6,1.12,1.12,0,0,0-1-.4,1.27,1.27,0,0,0-.82.2.59.59,0,0,0-.24.47.51.51,0,0,0,.26.49,9.84,9.84,0,0,0,1.82.55,3.3,3.3,0,0,1,1.57.84,2,2,0,0,1,.52,1.43,2.46,2.46,0,0,1-.74,1.84,3.24,3.24,0,0,1-2.29.71,3.19,3.19,0,0,1-2.34-.75,2.64,2.64,0,0,1-.75-1.93h1.78a1.33,1.33,0,0,0,.24.76,1.5,1.5,0,0,0,1.2.39,1.7,1.7,0,0,0,.82-.17.56.56,0,0,0,.31-.52.58.58,0,0,0-.25-.51A8.47,8.47,0,0,0,115,114a3.6,3.6,0,0,1-1.6-.8,1.86,1.86,0,0,1-.47-1.36,2.48,2.48,0,0,1,.73-1.8,2.7,2.7,0,0,1,2-.76A3.5,3.5,0,0,1,117.74,109.83Z"/><path class="cls-2" d="M126.18,112.61v4.45h-1.79v-4.61a2.29,2.29,0,0,0-.18-1,.91.91,0,0,0-.91-.53,1.21,1.21,0,0,0-1.06.52,2.73,2.73,0,0,0-.35,1.5v4.1h-1.75V106.85h1.75v3.62a2.24,2.24,0,0,1,.88-.92,2.27,2.27,0,0,1,1-.26,2.47,2.47,0,0,1,1.13.25,2,2,0,0,1,.83.74,2,2,0,0,1,.34.87A12.45,12.45,0,0,1,126.18,112.61Z"/><path class="cls-2" d="M133.41,110.45a5.19,5.19,0,0,1,0,5.69,3.38,3.38,0,0,1-5.15,0,5.19,5.19,0,0,1,0-5.69,3.34,3.34,0,0,1,5.15,0Zm-2.58.47a1.35,1.35,0,0,0-1.19.61,4,4,0,0,0,0,3.52,1.44,1.44,0,0,0,2.37,0,4,4,0,0,0,0-3.52A1.34,1.34,0,0,0,130.83,110.92Z"/><path class="cls-2" d="M141.13,110.3a4.42,4.42,0,0,1,.81,2.88,4.93,4.93,0,0,1-.8,3,2.46,2.46,0,0,1-2,1,2,2,0,0,1-1.32-.45,2.65,2.65,0,0,1-.57-.73v4h-1.74V109.49h1.68v1.12a3,3,0,0,1,.61-.78,2,2,0,0,1,1.39-.51A2.52,2.52,0,0,1,141.13,110.3Zm-1,3a3.37,3.37,0,0,0-.35-1.55,1.22,1.22,0,0,0-1.15-.67,1.33,1.33,0,0,0-1.31,1,4.44,4.44,0,0,0-.18,1.38,2.3,2.3,0,0,0,.62,1.85,1.3,1.3,0,0,0,.87.32,1.25,1.25,0,0,0,1.12-.64A3.38,3.38,0,0,0,140.13,113.27Z"/><path class="cls-2" d="M147.83,109.83a2.57,2.57,0,0,1,.9,2H147a1.37,1.37,0,0,0-.19-.6,1.14,1.14,0,0,0-1-.4,1.23,1.23,0,0,0-.81.2.59.59,0,0,0-.24.47.52.52,0,0,0,.25.49,10.08,10.08,0,0,0,1.83.55,3.3,3.3,0,0,1,1.57.84,2.08,2.08,0,0,1,.52,1.43,2.43,2.43,0,0,1-.75,1.84,4,4,0,0,1-4.62,0,2.64,2.64,0,0,1-.75-1.93h1.77a1.5,1.5,0,0,0,.24.76,1.53,1.53,0,0,0,1.21.39,1.73,1.73,0,0,0,.82-.17.57.57,0,0,0,.3-.52.58.58,0,0,0-.24-.51,8.7,8.7,0,0,0-1.83-.6,3.54,3.54,0,0,1-1.6-.8,1.81,1.81,0,0,1-.47-1.36,2.48,2.48,0,0,1,.73-1.8,2.69,2.69,0,0,1,2.05-.76A3.5,3.5,0,0,1,147.83,109.83Z"/><path class="cls-2" d="M155.61,118.39a1.33,1.33,0,0,0,.95.27,1.27,1.27,0,0,0,1.27-.71,4.07,4.07,0,0,0,.21-1.55v-.48a2.44,2.44,0,0,1-.55.73,2,2,0,0,1-1.35.45,2.45,2.45,0,0,1-2.07-1,4.53,4.53,0,0,1-.77-2.77,5.15,5.15,0,0,1,.74-2.84,2.37,2.37,0,0,1,2.11-1.15,2,2,0,0,1,.88.17,2.24,2.24,0,0,1,1,1.1v-1.09h1.7v7.18a4.44,4.44,0,0,1-.44,2.21,3,3,0,0,1-2.88,1.28,3.56,3.56,0,0,1-2.09-.57,2.16,2.16,0,0,1-.9-1.7h1.91A.94.94,0,0,0,155.61,118.39Zm-.3-3.91a1.31,1.31,0,0,0,2.32.43,2.68,2.68,0,0,0,.42-1.67,2.78,2.78,0,0,0-.4-1.64,1.25,1.25,0,0,0-1.08-.56,1.28,1.28,0,0,0-1.27,1,3.88,3.88,0,0,0-.19,1.28A3.36,3.36,0,0,0,155.31,114.48Z"/><path class="cls-2" d="M167.14,114.84a2.62,2.62,0,0,1-.62,1.37,2.87,2.87,0,0,1-2.41,1.1,3.2,3.2,0,0,1-2.26-.93,4,4,0,0,1-1-3,4.57,4.57,0,0,1,.88-3,2.85,2.85,0,0,1,2.29-1,3.15,3.15,0,0,1,1.51.36,2.82,2.82,0,0,1,1.1,1.12,3.88,3.88,0,0,1,.51,1.56,10.23,10.23,0,0,1,.06,1.5h-4.59a2,2,0,0,0,.63,1.6,1.41,1.41,0,0,0,.88.29,1.19,1.19,0,0,0,.88-.35,1.6,1.6,0,0,0,.32-.52Zm-1.73-2.32a1.84,1.84,0,0,0-.42-1.19,1.21,1.21,0,0,0-.94-.41,1.1,1.1,0,0,0-.94.43,2.3,2.3,0,0,0-.43,1.17Z"/><path class="cls-2" d="M171.48,115.65v1.48l-.83,0a2,2,0,0,1-1.7-.49,1.57,1.57,0,0,1-.29-1.05V111h-.94v-1.41h.94v-2.12h1.73v2.12h1.09V111h-1.09v4a1,1,0,0,0,.11.58c.06.08.28.12.63.12h.35Z"/><path class="cls-2" d="M178.83,115.08l1.38-5.59h1.87l-2.3,7.45a11.27,11.27,0,0,1-1.06,2.67,1.82,1.82,0,0,1-1.55.52h-.37l-.42,0v-1.58h.22a2.64,2.64,0,0,0,.49,0,.81.81,0,0,0,.39-.16,1.12,1.12,0,0,0,.29-.49,1.31,1.31,0,0,0,.11-.46l-2.46-7.91h2Z"/><path class="cls-2" d="M188.85,114.84a2.7,2.7,0,0,1-.62,1.37,2.88,2.88,0,0,1-2.41,1.1,3.17,3.17,0,0,1-2.26-.93,4,4,0,0,1-1-3,4.57,4.57,0,0,1,.88-3,2.85,2.85,0,0,1,2.29-1,3.15,3.15,0,0,1,1.51.36,2.78,2.78,0,0,1,1.11,1.12,4.22,4.22,0,0,1,.51,1.56,12.25,12.25,0,0,1,.05,1.5h-4.58a2,2,0,0,0,.63,1.6,1.36,1.36,0,0,0,.87.29,1.17,1.17,0,0,0,.88-.35,1.79,1.79,0,0,0,.33-.52Zm-1.74-2.32a1.84,1.84,0,0,0-.42-1.19,1.19,1.19,0,0,0-.94-.41,1.11,1.11,0,0,0-.94.43,2.39,2.39,0,0,0-.42,1.17Z"/><path class="cls-2" d="M190.15,106.82h1.75v10.24h-1.75Z"/><path class="cls-2" d="M193.65,106.82h1.75v10.24h-1.75Z"/><path class="cls-2" d="M202.85,114.84a2.62,2.62,0,0,1-.62,1.37,2.87,2.87,0,0,1-2.41,1.1,3.19,3.19,0,0,1-2.26-.93,4,4,0,0,1-1-3,4.57,4.57,0,0,1,.89-3,2.85,2.85,0,0,1,2.29-1,3.15,3.15,0,0,1,1.51.36,2.82,2.82,0,0,1,1.1,1.12,4.22,4.22,0,0,1,.51,1.56,10.23,10.23,0,0,1,.06,1.5h-4.59a2,2,0,0,0,.63,1.6,1.39,1.39,0,0,0,.88.29,1.19,1.19,0,0,0,.88-.35,1.6,1.6,0,0,0,.32-.52Zm-1.73-2.32a1.84,1.84,0,0,0-.42-1.19,1.22,1.22,0,0,0-.94-.41,1.13,1.13,0,0,0-.95.43,2.39,2.39,0,0,0-.42,1.17Z"/><path class="cls-2" d="M210.22,106.83v10.23h-1.7v-1a2.63,2.63,0,0,1-.86,1,2.13,2.13,0,0,1-1.19.31,2.41,2.41,0,0,1-2-1.07,4.54,4.54,0,0,1-.8-2.76,5.16,5.16,0,0,1,.79-3,2.46,2.46,0,0,1,2.11-1.11,2,2,0,0,1,1.08.3,2.24,2.24,0,0,1,.77.84v-3.62Zm-4.72,6.49a3.38,3.38,0,0,0,.36,1.68,1.21,1.21,0,0,0,1.11.63,1.24,1.24,0,0,0,1.13-.62,3,3,0,0,0,.39-1.62,2.69,2.69,0,0,0-.62-2A1.25,1.25,0,0,0,207,111a1.2,1.2,0,0,0-1.12.65A3.36,3.36,0,0,0,205.5,113.32Z"/><path class="cls-2" d="M215.56,110.31a2.7,2.7,0,0,1,2.39-1,3.85,3.85,0,0,1,2,.49,2,2,0,0,1,.85,1.86v3.48c0,.24,0,.53,0,.87a1.28,1.28,0,0,0,.11.53.59.59,0,0,0,.26.23v.29h-1.91a2.47,2.47,0,0,1-.11-.43c0-.13,0-.29-.05-.46a3.57,3.57,0,0,1-.84.76,2.24,2.24,0,0,1-1.28.37,2.07,2.07,0,0,1-1.5-.59,2.2,2.2,0,0,1-.59-1.66,2.25,2.25,0,0,1,.95-2,4,4,0,0,1,1.54-.48l.59-.09a2.27,2.27,0,0,0,.7-.17.59.59,0,0,0,.37-.56.71.71,0,0,0-.28-.65,1.7,1.7,0,0,0-.84-.17,1,1,0,0,0-.88.34,1.65,1.65,0,0,0-.25.7h-1.69A3.17,3.17,0,0,1,215.56,110.31Zm1.31,5.32a.85.85,0,0,0,.6.23,1.64,1.64,0,0,0,1-.37,1.69,1.69,0,0,0,.5-1.37v-.74a1.63,1.63,0,0,1-.34.19,3.27,3.27,0,0,1-.46.14l-.4.08a2.23,2.23,0,0,0-.79.27.93.93,0,0,0-.4.84A.92.92,0,0,0,216.87,115.63Z"/><path class="cls-2" d="M225.39,115.65v1.48l-.83,0a2,2,0,0,1-1.7-.49,1.57,1.57,0,0,1-.3-1.05V111h-.93v-1.41h.93v-2.12h1.74v2.12h1.09V111H224.3v4a1,1,0,0,0,.1.58c.07.08.28.12.64.12h.35Z"/><path class="cls-2" d="M233.65,117.26a2.16,2.16,0,0,1-1.33-.37,2.89,2.89,0,0,1-.66-.78v1H230V106.83h1.74v3.64a2.75,2.75,0,0,1,.74-.8,2,2,0,0,1,1.2-.35,2.38,2.38,0,0,1,2.07,1.08,4.76,4.76,0,0,1,.75,2.78,5.36,5.36,0,0,1-.74,2.92A2.3,2.3,0,0,1,233.65,117.26Zm1-3.87a4.21,4.21,0,0,0-.18-1.34,1.31,1.31,0,0,0-1.3-1,1.32,1.32,0,0,0-1.31,1,4.24,4.24,0,0,0-.18,1.35A3.12,3.12,0,0,0,232,115a1.25,1.25,0,0,0,1.16.64,1.16,1.16,0,0,0,1-.62A3.08,3.08,0,0,0,234.61,113.39Z"/><path class="cls-2" d="M240.43,115.08l1.38-5.59h1.87l-2.31,7.45a11,11,0,0,1-1.05,2.67,1.84,1.84,0,0,1-1.55.52h-.37l-.43,0v-1.58h.22a2.72,2.72,0,0,0,.5,0,.85.85,0,0,0,.39-.16,1.12,1.12,0,0,0,.29-.49,1.19,1.19,0,0,0,.1-.46L237,109.49h2Z"/><path class="cls-2" d="M251.28,115.65v1.48l-.83,0a2,2,0,0,1-1.7-.49,1.57,1.57,0,0,1-.3-1.05V111h-.93v-1.41h.93v-2.12h1.74v2.12h1.09V111h-1.09v4a1,1,0,0,0,.1.58c.07.08.29.12.64.12h.35Z"/><path class="cls-2" d="M258.46,112.61v4.45h-1.79v-4.61a2.29,2.29,0,0,0-.18-1,.92.92,0,0,0-.91-.53,1.2,1.2,0,0,0-1.06.52,2.64,2.64,0,0,0-.36,1.5v4.1h-1.75V106.85h1.75v3.62a2.37,2.37,0,0,1,.88-.92,2.34,2.34,0,0,1,1.06-.26,2.5,2.5,0,0,1,1.13.25,2,2,0,0,1,.83.74,2.14,2.14,0,0,1,.34.87A12.45,12.45,0,0,1,258.46,112.61Z"/><path class="cls-2" d="M265.83,114.84a2.62,2.62,0,0,1-.62,1.37,2.85,2.85,0,0,1-2.41,1.1,3.2,3.2,0,0,1-2.26-.93,4,4,0,0,1-1-3,4.57,4.57,0,0,1,.88-3,2.85,2.85,0,0,1,2.29-1,3.15,3.15,0,0,1,1.51.36,2.82,2.82,0,0,1,1.1,1.12,3.88,3.88,0,0,1,.51,1.56,10.23,10.23,0,0,1,.06,1.5h-4.59a2,2,0,0,0,.64,1.6,1.36,1.36,0,0,0,.87.29,1.19,1.19,0,0,0,.88-.35,1.6,1.6,0,0,0,.32-.52Zm-1.73-2.32a1.84,1.84,0,0,0-.42-1.19,1.21,1.21,0,0,0-.94-.41,1.1,1.1,0,0,0-.94.43,2.21,2.21,0,0,0-.42,1.17Z"/><path class="cls-2" d="M25.67,128.66a.83.83,0,0,0-.86-.55,1,1,0,0,0-1,.55,2.21,2.21,0,0,0-.14.93v4.56H21.88v-7.57h1.7v1.11a3.14,3.14,0,0,1,.62-.84,1.92,1.92,0,0,1,1.32-.45,1.88,1.88,0,0,1,1.24.39,2.13,2.13,0,0,1,.58.91,2.31,2.31,0,0,1,.85-1,2.4,2.4,0,0,1,1.21-.32,2.08,2.08,0,0,1,.87.2,1.91,1.91,0,0,1,.78.68,2.36,2.36,0,0,1,.39,1,7.85,7.85,0,0,1,.06,1.12l0,4.78H29.69v-4.83a1.85,1.85,0,0,0-.12-.71.87.87,0,0,0-.86-.52,1,1,0,0,0-1,.68,2.48,2.48,0,0,0-.14.87v4.51H25.8v-4.51A2.61,2.61,0,0,0,25.67,128.66Z"/><path class="cls-2" d="M33.36,127.39a2.69,2.69,0,0,1,2.39-1,3.82,3.82,0,0,1,2,.49,2,2,0,0,1,.86,1.87v3.47c0,.24,0,.53,0,.88a1.36,1.36,0,0,0,.1.53.84.84,0,0,0,.26.23v.29H37a2.09,2.09,0,0,1-.11-.43,3.08,3.08,0,0,1-.05-.46A4,4,0,0,1,36,134a2.33,2.33,0,0,1-1.28.36,2,2,0,0,1-1.5-.58,2.61,2.61,0,0,1,.36-3.69,3.87,3.87,0,0,1,1.53-.49l.6-.08a3.22,3.22,0,0,0,.7-.17.6.6,0,0,0,.37-.57.68.68,0,0,0-.29-.64,1.59,1.59,0,0,0-.84-.18,1,1,0,0,0-.87.35,1.44,1.44,0,0,0-.25.69H32.87A3.2,3.2,0,0,1,33.36,127.39Zm1.3,5.33a.89.89,0,0,0,.61.23,1.67,1.67,0,0,0,1-.38,1.73,1.73,0,0,0,.5-1.37v-.74a1.68,1.68,0,0,1-.34.19,2.32,2.32,0,0,1-.46.14l-.4.08a2.61,2.61,0,0,0-.79.27,1.13,1.13,0,0,0-.16,1.58Z"/><path class="cls-2" d="M43.27,128a1.22,1.22,0,0,0-1.23.85,3.43,3.43,0,0,0-.17,1.16v4.1H40.13v-7.57h1.69v1.11a3.13,3.13,0,0,1,.64-.84,2,2,0,0,1,1.37-.46,2.4,2.4,0,0,1,1.7.61,2.69,2.69,0,0,1,.66,2v5.11h-1.8v-4.61a2.25,2.25,0,0,0-.14-.92A1,1,0,0,0,43.27,128Z"/><path class="cls-2" d="M48.06,127.39a2.69,2.69,0,0,1,2.39-1,3.82,3.82,0,0,1,1.95.49,2,2,0,0,1,.86,1.87v3.47c0,.24,0,.53,0,.88a1.36,1.36,0,0,0,.1.53.84.84,0,0,0,.26.23v.29H51.72c0-.16-.08-.3-.11-.43s0-.29,0-.46a4,4,0,0,1-.83.76,2.33,2.33,0,0,1-1.28.36,2,2,0,0,1-1.5-.58,2.61,2.61,0,0,1,.36-3.69,3.81,3.81,0,0,1,1.53-.49l.6-.08a3.22,3.22,0,0,0,.7-.17.6.6,0,0,0,.37-.57.7.7,0,0,0-.29-.64,1.59,1.59,0,0,0-.84-.18,1,1,0,0,0-.87.35,1.44,1.44,0,0,0-.25.69H47.57A3.11,3.11,0,0,1,48.06,127.39Zm1.3,5.33A.89.89,0,0,0,50,133a1.67,1.67,0,0,0,1-.38,1.69,1.69,0,0,0,.49-1.37v-.74a1.4,1.4,0,0,1-.33.19,2.24,2.24,0,0,1-.47.14l-.39.08a2.61,2.61,0,0,0-.79.27,1.13,1.13,0,0,0-.16,1.58Z"/><path class="cls-2" d="M56.71,135.48a1.33,1.33,0,0,0,.95.27,1.26,1.26,0,0,0,1.27-.72,4,4,0,0,0,.21-1.54V133a2.34,2.34,0,0,1-.54.73,2,2,0,0,1-1.36.45,2.46,2.46,0,0,1-2.07-1,4.56,4.56,0,0,1-.77-2.78,5.17,5.17,0,0,1,.74-2.84,2.37,2.37,0,0,1,2.11-1.15,2.16,2.16,0,0,1,.88.17,2.28,2.28,0,0,1,1,1.1v-1.09h1.7v7.19a4.46,4.46,0,0,1-.44,2.21,3.05,3.05,0,0,1-2.87,1.28,3.57,3.57,0,0,1-2.1-.57,2.18,2.18,0,0,1-.9-1.71h1.91A1,1,0,0,0,56.71,135.48Zm-.3-3.92a1.3,1.3,0,0,0,1.28,1,1.28,1.28,0,0,0,1-.52,2.69,2.69,0,0,0,.42-1.68,2.82,2.82,0,0,0-.4-1.64,1.32,1.32,0,0,0-2.35.42,4,4,0,0,0-.19,1.29A3.26,3.26,0,0,0,56.41,131.56Z"/><path class="cls-2" d="M68.24,131.92a2.58,2.58,0,0,1-.62,1.37,2.86,2.86,0,0,1-2.41,1.11,3.2,3.2,0,0,1-2.26-.93,4.05,4.05,0,0,1-1-3,4.55,4.55,0,0,1,.88-3,2.85,2.85,0,0,1,2.29-1,3.26,3.26,0,0,1,1.51.35,2.82,2.82,0,0,1,1.1,1.12,3.88,3.88,0,0,1,.51,1.57,10.08,10.08,0,0,1,.06,1.5H63.74a2,2,0,0,0,.64,1.6,1.35,1.35,0,0,0,.87.28,1.15,1.15,0,0,0,.88-.35,1.5,1.5,0,0,0,.32-.52Zm-1.73-2.32a1.86,1.86,0,0,0-.42-1.19,1.24,1.24,0,0,0-.94-.41,1.13,1.13,0,0,0-.94.43,2.21,2.21,0,0,0-.42,1.17Z"/><path class="cls-2" d="M73.27,128.66a.83.83,0,0,0-.86-.55,1,1,0,0,0-1,.55,2.21,2.21,0,0,0-.14.93v4.56H69.48v-7.57h1.7v1.11a3.37,3.37,0,0,1,.62-.84,1.92,1.92,0,0,1,1.32-.45,1.88,1.88,0,0,1,1.24.39,2.13,2.13,0,0,1,.58.91A2.19,2.19,0,0,1,77,126.4a2,2,0,0,1,.87.2,2,2,0,0,1,.79.68,2.5,2.5,0,0,1,.38,1,7.85,7.85,0,0,1,.06,1.12v4.78h-1.8v-4.83a1.85,1.85,0,0,0-.12-.71.87.87,0,0,0-.86-.52,1,1,0,0,0-1,.68,2.48,2.48,0,0,0-.14.87v4.51H73.4v-4.51A2.61,2.61,0,0,0,73.27,128.66Z"/><path class="cls-2" d="M86.45,131.92a2.66,2.66,0,0,1-.62,1.37,2.89,2.89,0,0,1-2.41,1.11,3.17,3.17,0,0,1-2.26-.93,4.05,4.05,0,0,1-1-3,4.55,4.55,0,0,1,.88-3,2.86,2.86,0,0,1,2.29-1,3.26,3.26,0,0,1,1.51.35A2.78,2.78,0,0,1,86,127.84a4.21,4.21,0,0,1,.51,1.57,12.08,12.08,0,0,1,0,1.5H82a2,2,0,0,0,.63,1.6,1.35,1.35,0,0,0,.87.28,1.14,1.14,0,0,0,.88-.35,1.5,1.5,0,0,0,.33-.52Zm-1.74-2.32a1.86,1.86,0,0,0-.42-1.19,1.23,1.23,0,0,0-.94-.41,1.14,1.14,0,0,0-.94.43A2.39,2.39,0,0,0,82,129.6Z"/><path class="cls-2" d="M90.87,128a1.21,1.21,0,0,0-1.22.85,3.17,3.17,0,0,0-.18,1.16v4.1H87.73v-7.57h1.69v1.11a3.13,3.13,0,0,1,.64-.84,2,2,0,0,1,1.37-.46,2.4,2.4,0,0,1,1.7.61,2.69,2.69,0,0,1,.66,2v5.11H92v-4.61a2.22,2.22,0,0,0-.15-.92A1,1,0,0,0,90.87,128Z"/><path class="cls-2" d="M98.48,132.74v1.48l-.83,0a2,2,0,0,1-1.7-.49,1.52,1.52,0,0,1-.29-1v-4.67h-.94v-1.41h.94v-2.11h1.73v2.11h1.09v1.41H97.39v4a1,1,0,0,0,.1.59,1.12,1.12,0,0,0,.64.11h.35Z"/><path class="cls-2" d="M106.25,123.84v1.61l-.5,0a.53.53,0,0,0-.48.17.69.69,0,0,0-.13.41v.64h1.15V128h-1.15v6.11h-1.75V128h-1v-1.4h1v-.49a2.72,2.72,0,0,1,.37-1.67c.25-.46.86-.68,1.83-.68h.31Z"/><path class="cls-2" d="M112.89,127.53a5.2,5.2,0,0,1,0,5.7,3.41,3.41,0,0,1-5.16,0,5.25,5.25,0,0,1,0-5.7,3.37,3.37,0,0,1,5.16,0Zm-2.59.47a1.35,1.35,0,0,0-1.18.62,3.08,3.08,0,0,0-.41,1.75,3.12,3.12,0,0,0,.41,1.76,1.35,1.35,0,0,0,1.18.62,1.33,1.33,0,0,0,1.18-.62,3.11,3.11,0,0,0,.42-1.76,3.08,3.08,0,0,0-.42-1.75A1.33,1.33,0,0,0,110.3,128Z"/><path class="cls-2" d="M118.36,128.4a1.41,1.41,0,0,0-1.42.78,3.3,3.3,0,0,0-.2,1.35v3.62H115v-7.58h1.67v1.32a4.38,4.38,0,0,1,.71-1,1.76,1.76,0,0,1,1.28-.47h.23v2l-.29,0Z"/><path class="cls-2" d="M126.55,128a1.22,1.22,0,0,0-1.23.85,3.43,3.43,0,0,0-.17,1.16v4.1H123.4v-7.57h1.7v1.11a3.13,3.13,0,0,1,.63-.84,2.05,2.05,0,0,1,1.38-.46,2.4,2.4,0,0,1,1.7.61,2.69,2.69,0,0,1,.66,2v5.11h-1.8v-4.61a2.43,2.43,0,0,0-.14-.92A1,1,0,0,0,126.55,128Z"/><path class="cls-2" d="M136.68,127.53a5.25,5.25,0,0,1,0,5.7,3.41,3.41,0,0,1-5.16,0,5.2,5.2,0,0,1,0-5.7,3.37,3.37,0,0,1,5.16,0Zm-2.59.47a1.35,1.35,0,0,0-1.18.62,3.08,3.08,0,0,0-.42,1.75,3.11,3.11,0,0,0,.42,1.76,1.35,1.35,0,0,0,1.18.62,1.33,1.33,0,0,0,1.18-.62,3.11,3.11,0,0,0,.42-1.76,3.08,3.08,0,0,0-.42-1.75A1.33,1.33,0,0,0,134.09,128Z"/><path class="cls-2" d="M141.85,132.74v1.48l-.83,0a2,2,0,0,1-1.7-.49,1.52,1.52,0,0,1-.29-1v-4.67h-.94v-1.41H139v-2.11h1.73v2.11h1.09v1.41h-1.09v4a1,1,0,0,0,.1.59,1.12,1.12,0,0,0,.64.11h.35Z"/><path class="cls-2" d="M151.56,134.15l-1.05-5.52-1.07,5.52h-1.82l-1.88-7.58h1.88l1,5.44,1-5.44h1.78l1,5.46,1-5.46h1.82l-1.94,7.58Z"/><path class="cls-2" d="M161.86,127.53a5.2,5.2,0,0,1,0,5.7,3.4,3.4,0,0,1-5.15,0,5.2,5.2,0,0,1,0-5.7,3.36,3.36,0,0,1,5.15,0Zm-2.58.47a1.37,1.37,0,0,0-1.19.62,3.17,3.17,0,0,0-.41,1.75,3.2,3.2,0,0,0,.41,1.76,1.37,1.37,0,0,0,1.19.62,1.35,1.35,0,0,0,1.18-.62,3.2,3.2,0,0,0,.41-1.76,3.17,3.17,0,0,0-.41-1.75A1.35,1.35,0,0,0,159.28,128Z"/><path class="cls-2" d="M167.33,128.4a1.42,1.42,0,0,0-1.42.78,3.48,3.48,0,0,0-.2,1.35v3.62H164v-7.58h1.67v1.32a3.85,3.85,0,0,1,.71-1,1.72,1.72,0,0,1,1.27-.47h.24v2l-.3,0Z"/><path class="cls-2" d="M175,134.15H172.9l-1.61-3.24-.72.85v2.39h-1.72V123.94h1.72v5.51l2.18-2.84h2.17l-2.34,2.89Z"/><path class="cls-2" d="M177.67,123.84v1.83h-1.78v-1.83Zm0,2.73v7.58h-1.78v-7.58Z"/><path class="cls-2" d="M182.52,128a1.21,1.21,0,0,0-1.22.85,3.43,3.43,0,0,0-.17,1.16v4.1h-1.75v-7.57h1.69v1.11a3.35,3.35,0,0,1,.64-.84,2,2,0,0,1,1.37-.46,2.42,2.42,0,0,1,1.71.61,2.69,2.69,0,0,1,.66,2v5.11h-1.8v-4.61a2.43,2.43,0,0,0-.14-.92A1,1,0,0,0,182.52,128Z"/><path class="cls-2" d="M189,135.48a1.35,1.35,0,0,0,.95.27,1.26,1.26,0,0,0,1.27-.72,4,4,0,0,0,.21-1.54V133a2.34,2.34,0,0,1-.54.73,2,2,0,0,1-1.36.45,2.48,2.48,0,0,1-2.07-1,4.56,4.56,0,0,1-.77-2.78,5.09,5.09,0,0,1,.75-2.84,2.36,2.36,0,0,1,2.11-1.15,2.14,2.14,0,0,1,.87.17,2.24,2.24,0,0,1,1,1.1v-1.09h1.7v7.19a4.36,4.36,0,0,1-.44,2.21,3.05,3.05,0,0,1-2.87,1.28,3.57,3.57,0,0,1-2.1-.57,2.18,2.18,0,0,1-.9-1.71h1.91A1,1,0,0,0,189,135.48Zm-.3-3.92a1.3,1.3,0,0,0,1.28,1,1.28,1.28,0,0,0,1-.52,2.69,2.69,0,0,0,.43-1.68,2.82,2.82,0,0,0-.41-1.64,1.32,1.32,0,0,0-2.35.42,4,4,0,0,0-.18,1.29A3.26,3.26,0,0,0,188.66,131.56Z"/><path class="cls-2" d="M204,131.92a2.58,2.58,0,0,1-.62,1.37A2.86,2.86,0,0,1,201,134.4a3.16,3.16,0,0,1-2.25-.93,4,4,0,0,1-1-3,4.55,4.55,0,0,1,.88-3,2.85,2.85,0,0,1,2.29-1,3.26,3.26,0,0,1,1.51.35,2.91,2.91,0,0,1,1.11,1.12,4.21,4.21,0,0,1,.51,1.57,12.08,12.08,0,0,1,.05,1.5h-4.59a2,2,0,0,0,.64,1.6,1.35,1.35,0,0,0,.87.28,1.15,1.15,0,0,0,.88-.35,1.67,1.67,0,0,0,.33-.52Zm-1.73-2.32a1.86,1.86,0,0,0-.42-1.19,1.24,1.24,0,0,0-.94-.41,1.14,1.14,0,0,0-.94.43,2.21,2.21,0,0,0-.42,1.17Z"/><path class="cls-2" d="M208.4,123.84v1.61l-.49,0a.53.53,0,0,0-.48.17.69.69,0,0,0-.13.41v.64h1.15V128H207.3v6.11h-1.75V128h-1v-1.4h1v-.49a2.8,2.8,0,0,1,.36-1.67c.26-.46.87-.68,1.84-.68H208Z"/><path class="cls-2" d="M212.6,123.84v1.61l-.5,0a.53.53,0,0,0-.48.17.76.76,0,0,0-.13.41v.64h1.15V128h-1.15v6.11h-1.74V128h-1v-1.4h1v-.49a2.8,2.8,0,0,1,.36-1.67c.25-.46.87-.68,1.84-.68h.3Z"/><path class="cls-2" d="M215.45,123.84v1.83h-1.77v-1.83Zm0,2.73v7.58h-1.77v-7.58Z"/><path class="cls-2" d="M223,129.29h-1.8a1.84,1.84,0,0,0-.25-.77,1,1,0,0,0-.92-.46,1.24,1.24,0,0,0-1.21,1,4.8,4.8,0,0,0-.17,1.4,4.37,4.37,0,0,0,.17,1.34,1.19,1.19,0,0,0,1.18.95,1,1,0,0,0,.88-.38,2.06,2.06,0,0,0,.31-1h1.79a3.53,3.53,0,0,1-.58,1.71,3,3,0,0,1-4.82.22,4.79,4.79,0,0,1-.76-2.82,4.88,4.88,0,0,1,.84-3,2.78,2.78,0,0,1,2.32-1.08A3.2,3.2,0,0,1,222,127,3.14,3.14,0,0,1,223,129.29Z"/><path class="cls-2" d="M226,123.84v1.83h-1.78v-1.83Zm0,2.73v7.58h-1.78v-7.58Z"/><path class="cls-2" d="M233.39,131.92a2.58,2.58,0,0,1-.62,1.37,2.87,2.87,0,0,1-2.41,1.11,3.2,3.2,0,0,1-2.26-.93,4.05,4.05,0,0,1-1-3,4.55,4.55,0,0,1,.88-3,2.85,2.85,0,0,1,2.29-1,3.26,3.26,0,0,1,1.51.35,2.82,2.82,0,0,1,1.1,1.12,3.88,3.88,0,0,1,.51,1.57,10.08,10.08,0,0,1,.06,1.5h-4.59a2,2,0,0,0,.63,1.6,1.4,1.4,0,0,0,.88.28,1.15,1.15,0,0,0,.88-.35,1.5,1.5,0,0,0,.32-.52Zm-1.73-2.32a1.86,1.86,0,0,0-.42-1.19,1.26,1.26,0,0,0-.94-.41,1.16,1.16,0,0,0-1,.43,2.39,2.39,0,0,0-.42,1.17Z"/><path class="cls-2" d="M237.81,128a1.21,1.21,0,0,0-1.22.85,3.19,3.19,0,0,0-.17,1.16v4.1h-1.75v-7.57h1.69v1.11a3.35,3.35,0,0,1,.64-.84,2,2,0,0,1,1.37-.46,2.38,2.38,0,0,1,1.7.61,2.65,2.65,0,0,1,.67,2v5.11h-1.8v-4.61a2.43,2.43,0,0,0-.14-.92A1,1,0,0,0,237.81,128Z"/><path class="cls-2" d="M245.42,132.74v1.48l-.83,0a2.06,2.06,0,0,1-1.7-.49,1.57,1.57,0,0,1-.29-1v-4.67h-.94v-1.41h.94v-2.11h1.73v2.11h1.09v1.41h-1.09v4a1,1,0,0,0,.11.59,1.1,1.1,0,0,0,.64.11h.34Z"/><path class="cls-2" d="M246.58,123.9h1.76v10.25h-1.76Z"/><path class="cls-2" d="M252.77,132.16l1.38-5.59H256l-2.3,7.45a11.1,11.1,0,0,1-1.05,2.68,1.88,1.88,0,0,1-1.55.51h-.38l-.42,0V135.6h.22a2,2,0,0,0,.49,0,.69.69,0,0,0,.39-.16,1,1,0,0,0,.29-.49,1.26,1.26,0,0,0,.11-.46l-2.46-7.91h1.95Z"/><path class="cls-2" d="M256.09,132.08H258v2.07h-1.87Z"/><path class="cls-2" d="M10.74,146.32h3.53v1.88H10.74Z"/><path class="cls-2" d="M20.84,151.23H19.07V141h2.76L23.47,149,25.11,141h2.72v10.25H26.07V144.3c0-.2,0-.48,0-.84v-.83l-1.71,8.6H22.53l-1.71-8.6c0,.2,0,.47,0,.83s0,.64,0,.84Z"/><path class="cls-2" d="M35,144.61a5.2,5.2,0,0,1,0,5.7,2.94,2.94,0,0,1-2.57,1.18,3,3,0,0,1-2.58-1.18,5.2,5.2,0,0,1,0-5.7,2.93,2.93,0,0,1,2.58-1.2A2.93,2.93,0,0,1,35,144.61Zm-2.58.48a1.33,1.33,0,0,0-1.18.61,3.9,3.9,0,0,0,0,3.52,1.45,1.45,0,0,0,2.36,0,4,4,0,0,0,0-3.52A1.33,1.33,0,0,0,32.46,145.09Z"/><path class="cls-2" d="M41.77,144a2.57,2.57,0,0,1,.9,2H40.92a1.37,1.37,0,0,0-.19-.6,1.14,1.14,0,0,0-1-.41,1.23,1.23,0,0,0-.81.21.6.6,0,0,0-.25.47.52.52,0,0,0,.26.49,9.79,9.79,0,0,0,1.83.55,3.3,3.3,0,0,1,1.57.84,2.07,2.07,0,0,1,.51,1.43,2.43,2.43,0,0,1-.74,1.84,3.22,3.22,0,0,1-2.29.71,3.14,3.14,0,0,1-2.33-.76,2.61,2.61,0,0,1-.76-1.92h1.78A1.14,1.14,0,0,0,40,150a1.73,1.73,0,0,0,.82-.17.63.63,0,0,0,.06-1,9,9,0,0,0-1.83-.6,3.64,3.64,0,0,1-1.61-.8,1.87,1.87,0,0,1-.46-1.36,2.51,2.51,0,0,1,.73-1.81,2.72,2.72,0,0,1,2-.75A3.52,3.52,0,0,1,41.77,144Z"/><path class="cls-2" d="M47.22,149.82v1.48l-.83,0a2.06,2.06,0,0,1-1.7-.49,1.62,1.62,0,0,1-.29-1v-4.67h-.94v-1.41h.94v-2.11h1.73v2.11h1.09v1.41H46.13v4a1,1,0,0,0,.11.58c.07.08.28.11.64.11h.34Z"/><path class="cls-2" d="M56.93,151.23l-1-5.52-1.07,5.52H53l-1.88-7.58H53l1,5.44,1-5.44h1.77l1,5.46,1.05-5.46h1.83l-2,7.58Z"/><path class="cls-2" d="M67.23,144.61a5.2,5.2,0,0,1,0,5.7,3.4,3.4,0,0,1-5.15,0,5.2,5.2,0,0,1,0-5.7,3.36,3.36,0,0,1,5.15,0Zm-2.58.48a1.33,1.33,0,0,0-1.18.61,3.9,3.9,0,0,0,0,3.52,1.45,1.45,0,0,0,2.36,0,4,4,0,0,0,0-3.52A1.33,1.33,0,0,0,64.65,145.09Z"/><path class="cls-2" d="M73.1,145.74a.85.85,0,0,0-.87-.55,1,1,0,0,0-1,.55,2.45,2.45,0,0,0-.14.93v4.56H69.31v-7.56H71v1.1a3.37,3.37,0,0,1,.61-.84,2,2,0,0,1,1.33-.44,2,2,0,0,1,1.24.38,2.3,2.3,0,0,1,.58.91,2.44,2.44,0,0,1,.85-1,2.34,2.34,0,0,1,1.21-.31,2.1,2.1,0,0,1,.87.19,2,2,0,0,1,.78.68,2.26,2.26,0,0,1,.38,1,7.66,7.66,0,0,1,.06,1.12v4.77H77.12v-4.82a1.77,1.77,0,0,0-.13-.71.86.86,0,0,0-.86-.53,1,1,0,0,0-1,.68,2.27,2.27,0,0,0-.14.87v4.51H73.22v-4.51A2.88,2.88,0,0,0,73.1,145.74Z"/><path class="cls-2" d="M86.27,149a2.62,2.62,0,0,1-.62,1.37,2.89,2.89,0,0,1-2.41,1.1,3.2,3.2,0,0,1-2.26-.93,4,4,0,0,1-1-3,4.57,4.57,0,0,1,.88-3,2.85,2.85,0,0,1,2.29-1.05,3.15,3.15,0,0,1,1.51.36,2.76,2.76,0,0,1,1.1,1.12,3.88,3.88,0,0,1,.51,1.56,10.23,10.23,0,0,1,.06,1.5H81.77a2,2,0,0,0,.63,1.6,1.41,1.41,0,0,0,.88.29,1.19,1.19,0,0,0,.88-.35,1.71,1.71,0,0,0,.32-.52Zm-1.73-2.32a1.87,1.87,0,0,0-.42-1.2,1.23,1.23,0,0,0-.94-.4,1.1,1.1,0,0,0-.94.43,2.23,2.23,0,0,0-.43,1.17Z"/><path class="cls-2" d="M90.69,145.12a1.22,1.22,0,0,0-1.22.86,3.36,3.36,0,0,0-.17,1.15v4.1H87.55v-7.56h1.69v1.1a3.35,3.35,0,0,1,.64-.84,2.08,2.08,0,0,1,1.37-.46,2.43,2.43,0,0,1,1.71.62,2.69,2.69,0,0,1,.66,2v5.1h-1.8v-4.61a2.47,2.47,0,0,0-.14-.92A1,1,0,0,0,90.69,145.12Z"/><path class="cls-2" d="M104.47,149a2.62,2.62,0,0,1-.62,1.37,2.89,2.89,0,0,1-2.41,1.1,3.19,3.19,0,0,1-2.26-.93,4,4,0,0,1-1-3,4.57,4.57,0,0,1,.89-3,2.85,2.85,0,0,1,2.29-1.05,3.15,3.15,0,0,1,1.51.36,2.76,2.76,0,0,1,1.1,1.12,4.22,4.22,0,0,1,.51,1.56,10.23,10.23,0,0,1,.06,1.5H100a2,2,0,0,0,.63,1.6,1.41,1.41,0,0,0,.88.29,1.19,1.19,0,0,0,.88-.35,1.71,1.71,0,0,0,.32-.52Zm-1.73-2.32a1.87,1.87,0,0,0-.42-1.2,1.25,1.25,0,0,0-.94-.4,1.13,1.13,0,0,0-.95.43,2.31,2.31,0,0,0-.42,1.17Z"/><path class="cls-2" d="M105.08,143.65h2l1.39,5.59,1.43-5.59h1.88l-2.41,7.58h-1.86Z"/><path class="cls-2" d="M118.48,149a2.62,2.62,0,0,1-.62,1.37,2.89,2.89,0,0,1-2.41,1.1,3.19,3.19,0,0,1-2.26-.93,4,4,0,0,1-1-3,4.57,4.57,0,0,1,.89-3,2.84,2.84,0,0,1,2.29-1.05,3.08,3.08,0,0,1,1.5.36,2.72,2.72,0,0,1,1.11,1.12,4.22,4.22,0,0,1,.51,1.56,10.23,10.23,0,0,1,.06,1.5H114a2,2,0,0,0,.63,1.6,1.39,1.39,0,0,0,.88.29,1.19,1.19,0,0,0,.88-.35,1.71,1.71,0,0,0,.32-.52Zm-1.73-2.32a1.87,1.87,0,0,0-.42-1.2,1.25,1.25,0,0,0-.94-.4,1.13,1.13,0,0,0-1,.43,2.31,2.31,0,0,0-.42,1.17Z"/><path class="cls-2" d="M122.9,145.12a1.22,1.22,0,0,0-1.22.86,3.14,3.14,0,0,0-.17,1.15v4.1h-1.75v-7.56h1.69v1.1a3.35,3.35,0,0,1,.64-.84,2.08,2.08,0,0,1,1.37-.46,2.39,2.39,0,0,1,1.7.62,2.69,2.69,0,0,1,.66,2v5.1H124v-4.61a2.47,2.47,0,0,0-.14-.92A1,1,0,0,0,122.9,145.12Z"/><path class="cls-2" d="M132.84,152.56a1.33,1.33,0,0,0,.95.27,1.26,1.26,0,0,0,1.27-.72,4.22,4.22,0,0,0,.21-1.54v-.49a2.21,2.21,0,0,1-.55.73,2,2,0,0,1-1.36.46,2.47,2.47,0,0,1-2.06-1,4.54,4.54,0,0,1-.77-2.78,5.2,5.2,0,0,1,.74-2.84,2.39,2.39,0,0,1,2.11-1.15,2,2,0,0,1,.88.18,2.24,2.24,0,0,1,1,1.1v-1.1H137v7.19a4.44,4.44,0,0,1-.44,2.21,3,3,0,0,1-2.88,1.28,3.56,3.56,0,0,1-2.09-.57,2.17,2.17,0,0,1-.9-1.7h1.91A.81.81,0,0,0,132.84,152.56Zm-.3-3.91a1.32,1.32,0,0,0,2.32.43,2.68,2.68,0,0,0,.42-1.67,2.78,2.78,0,0,0-.4-1.64,1.26,1.26,0,0,0-1.08-.57,1.29,1.29,0,0,0-1.27,1,3.74,3.74,0,0,0-.19,1.29A3.36,3.36,0,0,0,132.54,148.65Z"/><path class="cls-2" d="M144.37,149a2.62,2.62,0,0,1-.62,1.37,2.89,2.89,0,0,1-2.41,1.1,3.2,3.2,0,0,1-2.26-.93,4,4,0,0,1-1-3,4.57,4.57,0,0,1,.88-3,2.85,2.85,0,0,1,2.29-1.05,3.15,3.15,0,0,1,1.51.36,2.76,2.76,0,0,1,1.1,1.12,3.88,3.88,0,0,1,.51,1.56,10.23,10.23,0,0,1,.06,1.5h-4.59a2,2,0,0,0,.63,1.6,1.41,1.41,0,0,0,.88.29,1.19,1.19,0,0,0,.88-.35,1.71,1.71,0,0,0,.32-.52Zm-1.73-2.32a1.87,1.87,0,0,0-.42-1.2,1.23,1.23,0,0,0-.94-.4,1.1,1.1,0,0,0-.94.43,2.23,2.23,0,0,0-.43,1.17Z"/><path class="cls-2" d="M148.71,149.82v1.48l-.83,0a2,2,0,0,1-1.7-.49,1.57,1.57,0,0,1-.29-1v-4.67H145v-1.41h.94v-2.11h1.73v2.11h1.09v1.41h-1.09v4a1,1,0,0,0,.1.58c.07.08.29.11.64.11h.35Z"/><path class="cls-2" d="M158,144a2.54,2.54,0,0,1,.91,2H157.1a1.15,1.15,0,0,0-.19-.6,1.12,1.12,0,0,0-1-.41,1.28,1.28,0,0,0-.82.21.59.59,0,0,0-.24.47.52.52,0,0,0,.26.49,9.79,9.79,0,0,0,1.83.55,3.26,3.26,0,0,1,1.56.84,2,2,0,0,1,.52,1.43,2.46,2.46,0,0,1-.74,1.84,3.22,3.22,0,0,1-2.29.71,3.14,3.14,0,0,1-2.33-.76,2.57,2.57,0,0,1-.76-1.92h1.78a1.5,1.5,0,0,0,.24.75,1.48,1.48,0,0,0,1.2.4,1.77,1.77,0,0,0,.83-.17.57.57,0,0,0,.3-.53.55.55,0,0,0-.25-.5,8.51,8.51,0,0,0-1.82-.6,3.59,3.59,0,0,1-1.61-.8,1.87,1.87,0,0,1-.47-1.36,2.56,2.56,0,0,1,.73-1.81,2.73,2.73,0,0,1,2.05-.75A3.5,3.5,0,0,1,158,144Z"/><path class="cls-2" d="M166.08,149a2.79,2.79,0,0,1-.62,1.37,2.91,2.91,0,0,1-2.41,1.1,3.17,3.17,0,0,1-2.26-.93,4,4,0,0,1-1-3,4.57,4.57,0,0,1,.88-3,2.85,2.85,0,0,1,2.29-1.05,3.15,3.15,0,0,1,1.51.36,2.72,2.72,0,0,1,1.11,1.12,4.22,4.22,0,0,1,.51,1.56,12.25,12.25,0,0,1,0,1.5h-4.59a2,2,0,0,0,.64,1.6,1.36,1.36,0,0,0,.87.29,1.17,1.17,0,0,0,.88-.35,1.94,1.94,0,0,0,.33-.52Zm-1.74-2.32a1.87,1.87,0,0,0-.42-1.2,1.22,1.22,0,0,0-.94-.4,1.11,1.11,0,0,0-.94.43,2.31,2.31,0,0,0-.42,1.17Z"/><path class="cls-2" d="M173.32,151.23h-2.19L170,149l-1.17,2.27h-2.12l2.28-3.84-2.19-3.72h2.15l1.12,2.2,1.09-2.2h2.09l-2.2,3.69Z"/><path class="cls-2" d="M178.65,150.16a1.78,1.78,0,0,0-.13.21,1.19,1.19,0,0,1-.23.31,2.39,2.39,0,0,1-.8.56,2.23,2.23,0,0,1-.9.16,2,2,0,0,1-2-1.21,5.24,5.24,0,0,1-.29-2v-4.57h1.8v4.57a2.65,2.65,0,0,0,.13,1,.91.91,0,0,0,.94.58,1.22,1.22,0,0,0,1.23-.82,3.18,3.18,0,0,0,.17-1.17v-4.13h1.78v7.58h-1.7Z"/><path class="cls-2" d="M182.29,144.47a2.73,2.73,0,0,1,2.39-1,3.86,3.86,0,0,1,2,.5,2,2,0,0,1,.85,1.86v3.48c0,.24,0,.53,0,.87a1.28,1.28,0,0,0,.11.53.66.66,0,0,0,.26.23v.29H186a2.72,2.72,0,0,1-.11-.43c0-.13,0-.29,0-.46a3.57,3.57,0,0,1-.84.76,2.31,2.31,0,0,1-1.28.37,2.07,2.07,0,0,1-1.5-.59,2.64,2.64,0,0,1,.36-3.69,3.88,3.88,0,0,1,1.54-.48l.59-.09a2.27,2.27,0,0,0,.7-.17.59.59,0,0,0,.37-.56.71.71,0,0,0-.28-.65,1.6,1.6,0,0,0-.84-.17,1,1,0,0,0-.88.34,1.6,1.6,0,0,0-.25.7H181.8A3.24,3.24,0,0,1,182.29,144.47Zm1.31,5.33a.85.85,0,0,0,.6.23,1.63,1.63,0,0,0,1-.38,1.68,1.68,0,0,0,.5-1.37v-.73a1.63,1.63,0,0,1-.34.19,2.2,2.2,0,0,1-.46.13l-.39.09a2.22,2.22,0,0,0-.8.27.93.93,0,0,0-.4.84A.92.92,0,0,0,183.6,149.8Z"/><path class="cls-2" d="M189.08,141h1.76v10.25h-1.76Z"/><path class="cls-2" d="M192.58,141h1.76v10.25h-1.76Z"/><path class="cls-2" d="M198.77,149.24l1.38-5.59H202l-2.3,7.46a12.12,12.12,0,0,1-1.05,2.67,1.88,1.88,0,0,1-1.55.52h-.38l-.42,0v-1.59l.22,0a2.64,2.64,0,0,0,.49,0,.87.87,0,0,0,.39-.16,1.07,1.07,0,0,0,.29-.5,1.27,1.27,0,0,0,.11-.45l-2.46-7.92h1.95Z"/><path class="cls-2" d="M212.61,146.78v4.45h-1.79v-4.61a2.11,2.11,0,0,0-.19-1,.89.89,0,0,0-.91-.53,1.19,1.19,0,0,0-1.05.52,2.64,2.64,0,0,0-.36,1.5v4.1h-1.75V141h1.75v3.62a2.24,2.24,0,0,1,.88-.92,2.34,2.34,0,0,1,1.06-.26,2.56,2.56,0,0,1,1.12.24,2.08,2.08,0,0,1,.84.75,2.14,2.14,0,0,1,.34.87A12.45,12.45,0,0,1,212.61,146.78Z"/><path class="cls-2" d="M214.5,144.47a2.71,2.71,0,0,1,2.38-1,3.83,3.83,0,0,1,2,.5,2,2,0,0,1,.85,1.86v3.48c0,.24,0,.53,0,.87a1.16,1.16,0,0,0,.1.53.66.66,0,0,0,.26.23v.29h-1.91a2.72,2.72,0,0,1-.11-.43c0-.13,0-.29-.05-.46a3.74,3.74,0,0,1-.83.76,2.36,2.36,0,0,1-1.28.37,2.07,2.07,0,0,1-1.51-.59,2.64,2.64,0,0,1,.36-3.69,3.88,3.88,0,0,1,1.54-.48l.6-.09a2.27,2.27,0,0,0,.69-.17.6.6,0,0,0,.38-.56.71.71,0,0,0-.29-.65,1.6,1.6,0,0,0-.84-.17,1,1,0,0,0-.88.34,1.6,1.6,0,0,0-.24.7H214A3.24,3.24,0,0,1,214.5,144.47Zm1.3,5.33a.86.86,0,0,0,.6.23,1.67,1.67,0,0,0,1-.38,1.71,1.71,0,0,0,.49-1.37v-.73a1.63,1.63,0,0,1-.34.19,2.2,2.2,0,0,1-.46.13l-.39.09a2.22,2.22,0,0,0-.8.27.93.93,0,0,0-.4.84A.92.92,0,0,0,215.8,149.8Z"/><path class="cls-2" d="M224.62,145.48a1.4,1.4,0,0,0-1.42.78,3.3,3.3,0,0,0-.2,1.35v3.62h-1.77v-7.58h1.67V145a4.09,4.09,0,0,1,.71-1,1.79,1.79,0,0,1,1.28-.47h.23v2l-.29,0Z"/><path class="cls-2" d="M229.52,145.48a1.41,1.41,0,0,0-1.42.78,3.3,3.3,0,0,0-.2,1.35v3.62h-1.77v-7.58h1.68V145a4.12,4.12,0,0,1,.7-1,1.8,1.8,0,0,1,1.28-.47H230v2l-.29,0Z"/><path class="cls-2" d="M231.3,144.47a2.73,2.73,0,0,1,2.39-1,3.86,3.86,0,0,1,2,.5,2,2,0,0,1,.85,1.86v3.48c0,.24,0,.53,0,.87a1.28,1.28,0,0,0,.11.53.66.66,0,0,0,.26.23v.29H235a2.72,2.72,0,0,1-.11-.43c0-.13,0-.29-.05-.46a3.57,3.57,0,0,1-.84.76,2.31,2.31,0,0,1-1.28.37,2.07,2.07,0,0,1-1.5-.59,2.64,2.64,0,0,1,.36-3.69,3.88,3.88,0,0,1,1.54-.48l.59-.09a2.27,2.27,0,0,0,.7-.17.59.59,0,0,0,.37-.56.71.71,0,0,0-.28-.65,1.6,1.6,0,0,0-.84-.17,1,1,0,0,0-.88.34,1.6,1.6,0,0,0-.25.7h-1.69A3.24,3.24,0,0,1,231.3,144.47Zm1.31,5.33a.85.85,0,0,0,.6.23,1.65,1.65,0,0,0,1-.38,1.68,1.68,0,0,0,.5-1.37v-.73a1.63,1.63,0,0,1-.34.19,2.4,2.4,0,0,1-.46.13l-.39.09a2.22,2.22,0,0,0-.8.27.93.93,0,0,0-.4.84A.92.92,0,0,0,232.61,149.8Z"/><path class="cls-2" d="M242.68,144a2.57,2.57,0,0,1,.9,2h-1.75a1.37,1.37,0,0,0-.19-.6,1.14,1.14,0,0,0-1-.41,1.23,1.23,0,0,0-.81.21.6.6,0,0,0-.25.47.52.52,0,0,0,.26.49,9.79,9.79,0,0,0,1.83.55,3.3,3.3,0,0,1,1.57.84,2.07,2.07,0,0,1,.51,1.43,2.43,2.43,0,0,1-.74,1.84,3.2,3.2,0,0,1-2.29.71,3.14,3.14,0,0,1-2.33-.76,2.61,2.61,0,0,1-.76-1.92h1.78a1.14,1.14,0,0,0,1.45,1.15,1.73,1.73,0,0,0,.82-.17.63.63,0,0,0,.06-1,9,9,0,0,0-1.83-.6,3.64,3.64,0,0,1-1.61-.8,1.87,1.87,0,0,1-.46-1.36,2.51,2.51,0,0,1,.73-1.81,2.72,2.72,0,0,1,2-.75A3.52,3.52,0,0,1,242.68,144Z"/><path class="cls-2" d="M249.68,144a2.51,2.51,0,0,1,.9,2h-1.75a1.25,1.25,0,0,0-.19-.6,1.12,1.12,0,0,0-1-.41,1.26,1.26,0,0,0-.82.21.59.59,0,0,0-.24.47.51.51,0,0,0,.26.49,9.84,9.84,0,0,0,1.82.55,3.3,3.3,0,0,1,1.57.84,2,2,0,0,1,.52,1.43,2.46,2.46,0,0,1-.74,1.84,3.24,3.24,0,0,1-2.29.71,3.15,3.15,0,0,1-2.34-.76,2.6,2.6,0,0,1-.75-1.92h1.78a1.32,1.32,0,0,0,.24.75,1.47,1.47,0,0,0,1.2.4,1.7,1.7,0,0,0,.82-.17.56.56,0,0,0,.31-.53.55.55,0,0,0-.25-.5,8.51,8.51,0,0,0-1.82-.6,3.59,3.59,0,0,1-1.61-.8,1.87,1.87,0,0,1-.47-1.36,2.56,2.56,0,0,1,.73-1.81,2.73,2.73,0,0,1,2-.75A3.5,3.5,0,0,1,249.68,144Z"/><path class="cls-2" d="M257.8,149a2.62,2.62,0,0,1-.62,1.37,2.88,2.88,0,0,1-2.41,1.1,3.16,3.16,0,0,1-2.25-.93,4,4,0,0,1-1-3,4.57,4.57,0,0,1,.88-3,2.85,2.85,0,0,1,2.29-1.05,3.15,3.15,0,0,1,1.51.36,2.76,2.76,0,0,1,1.1,1.12,4.05,4.05,0,0,1,.52,1.56,12.25,12.25,0,0,1,.05,1.5H253.3a2,2,0,0,0,.64,1.6,1.36,1.36,0,0,0,.87.29,1.19,1.19,0,0,0,.88-.35A1.94,1.94,0,0,0,256,149Zm-1.73-2.32a1.87,1.87,0,0,0-.42-1.2,1.23,1.23,0,0,0-.94-.4,1.11,1.11,0,0,0-.94.43,2.14,2.14,0,0,0-.42,1.17Z"/><path class="cls-2" d="M265.17,141v10.23h-1.7v-1a2.63,2.63,0,0,1-.86,1,2.09,2.09,0,0,1-1.19.31,2.41,2.41,0,0,1-2-1.08,4.49,4.49,0,0,1-.8-2.75,5.14,5.14,0,0,1,.79-3,2.46,2.46,0,0,1,2.11-1.12,1.93,1.93,0,0,1,1.09.31,2.37,2.37,0,0,1,.77.83V141Zm-4.72,6.49a3.27,3.27,0,0,0,.37,1.68,1.19,1.19,0,0,0,1.11.63,1.25,1.25,0,0,0,1.13-.63,3,3,0,0,0,.38-1.62,2.63,2.63,0,0,0-.62-2,1.25,1.25,0,0,0-.88-.37,1.2,1.2,0,0,0-1.13.66A3.36,3.36,0,0,0,260.45,147.49Z"/><path class="cls-2" d="M266.73,149.16h1.87v2.07h-1.87Z"/><path class="cls-2" d="M7.58,163.41h3.53v1.88H7.58Z"/><path class="cls-2" d="M22.53,158.07v1.81H19.82v8.44H17.91v-8.44H15.19v-1.81Z"/><path class="cls-2" d="M29.56,163.87v4.45H27.77v-4.61a2.16,2.16,0,0,0-.19-1,.91.91,0,0,0-.91-.53,1.2,1.2,0,0,0-1.05.53,2.62,2.62,0,0,0-.36,1.49v4.11H23.51V158.1h1.75v3.63a2.24,2.24,0,0,1,.88-.92,2.2,2.2,0,0,1,1.06-.27,2.56,2.56,0,0,1,1.12.25,2.06,2.06,0,0,1,.84.74,2.35,2.35,0,0,1,.34.87A12.54,12.54,0,0,1,29.56,163.87Z"/><path class="cls-2" d="M36.93,166.09a2.58,2.58,0,0,1-.62,1.37,2.89,2.89,0,0,1-2.41,1.11,3.16,3.16,0,0,1-2.26-.94,4,4,0,0,1-1-3,4.54,4.54,0,0,1,.89-3,2.84,2.84,0,0,1,2.29-1.05,3.22,3.22,0,0,1,1.5.35A2.78,2.78,0,0,1,36.45,162a4.21,4.21,0,0,1,.51,1.57,11.68,11.68,0,0,1,.06,1.5H32.43a2,2,0,0,0,.63,1.6,1.37,1.37,0,0,0,.87.28,1.16,1.16,0,0,0,.88-.35,1.46,1.46,0,0,0,.33-.52Zm-1.73-2.32a1.81,1.81,0,0,0-.43-1.19,1.22,1.22,0,0,0-.93-.41,1.13,1.13,0,0,0-1,.43,2.39,2.39,0,0,0-.42,1.17Z"/><path class="cls-2" d="M42,161.56a2.69,2.69,0,0,1,2.39-1,3.82,3.82,0,0,1,1.95.49,2,2,0,0,1,.86,1.86v3.48c0,.24,0,.53,0,.88a1.26,1.26,0,0,0,.1.52.65.65,0,0,0,.26.23v.3H45.61a3,3,0,0,1-.11-.43c0-.14,0-.29,0-.46a3.69,3.69,0,0,1-.83.75,2.28,2.28,0,0,1-1.28.37,2,2,0,0,1-1.5-.58,2.25,2.25,0,0,1-.6-1.67,2.22,2.22,0,0,1,1-2,3.81,3.81,0,0,1,1.53-.49l.6-.08a2.44,2.44,0,0,0,.69-.18.59.59,0,0,0,.38-.56.7.7,0,0,0-.29-.64,1.59,1.59,0,0,0-.84-.18,1,1,0,0,0-.88.35,1.56,1.56,0,0,0-.24.69H41.46A3.11,3.11,0,0,1,42,161.56Zm1.3,5.32a.84.84,0,0,0,.61.23,1.66,1.66,0,0,0,1-.37,1.69,1.69,0,0,0,.49-1.37v-.74a1.86,1.86,0,0,1-.33.19,2.24,2.24,0,0,1-.47.14l-.39.08a2.61,2.61,0,0,0-.79.27,1.12,1.12,0,0,0-.16,1.57Z"/><path class="cls-2" d="M48,160.74h2l1.4,5.59,1.43-5.59h1.88l-2.42,7.58H50.45Z"/><path class="cls-2" d="M61.44,166.09a2.58,2.58,0,0,1-.62,1.37,2.86,2.86,0,0,1-2.41,1.11,3.13,3.13,0,0,1-2.25-.94,4,4,0,0,1-1-3,4.54,4.54,0,0,1,.88-3,2.85,2.85,0,0,1,2.29-1.05,3.26,3.26,0,0,1,1.51.35A2.85,2.85,0,0,1,61,162a4.21,4.21,0,0,1,.51,1.57,12.08,12.08,0,0,1,.05,1.5H56.94a2,2,0,0,0,.64,1.6,1.35,1.35,0,0,0,.87.28,1.19,1.19,0,0,0,.88-.35,1.79,1.79,0,0,0,.33-.52Zm-1.73-2.32a1.86,1.86,0,0,0-.42-1.19,1.24,1.24,0,0,0-.94-.41,1.11,1.11,0,0,0-.94.43,2.21,2.21,0,0,0-.42,1.17Z"/><path class="cls-2" d="M66.08,162.57a1.41,1.41,0,0,0-1.42.78,3.46,3.46,0,0,0-.2,1.34v3.63H62.69v-7.58h1.68v1.32a4.22,4.22,0,0,1,.7-1,1.8,1.8,0,0,1,1.28-.46h.24v2l-.3,0Z"/><path class="cls-2" d="M67.87,161.56a2.67,2.67,0,0,1,2.38-1,3.83,3.83,0,0,1,2,.49,2,2,0,0,1,.85,1.86v3.48c0,.24,0,.53,0,.88a1.22,1.22,0,0,0,.11.52.59.59,0,0,0,.26.23v.3H71.53a3,3,0,0,1-.11-.43c0-.14,0-.29,0-.46a3.53,3.53,0,0,1-.84.75,2.23,2.23,0,0,1-1.27.37,2.07,2.07,0,0,1-1.51-.58,2.28,2.28,0,0,1-.59-1.67,2.24,2.24,0,0,1,1-2,3.87,3.87,0,0,1,1.54-.49l.6-.08a2.55,2.55,0,0,0,.69-.18.59.59,0,0,0,.38-.56.7.7,0,0,0-.29-.64,1.59,1.59,0,0,0-.84-.18,1,1,0,0,0-.88.35,1.69,1.69,0,0,0-.25.69H67.37A3.11,3.11,0,0,1,67.87,161.56Zm1.3,5.32a.81.81,0,0,0,.6.23,1.62,1.62,0,0,0,1-.37,1.69,1.69,0,0,0,.5-1.37v-.74a1.63,1.63,0,0,1-.34.19,2.13,2.13,0,0,1-.46.14l-.39.08a2.7,2.7,0,0,0-.8.27.93.93,0,0,0-.4.84A.91.91,0,0,0,69.17,166.88Z"/><path class="cls-2" d="M76.51,169.64a1.33,1.33,0,0,0,1,.27,1.23,1.23,0,0,0,1.26-.71,4,4,0,0,0,.21-1.54v-.49a2.47,2.47,0,0,1-.54.73,2,2,0,0,1-1.36.45,2.45,2.45,0,0,1-2.06-1,4.5,4.5,0,0,1-.77-2.78,5.09,5.09,0,0,1,.74-2.84,2.37,2.37,0,0,1,2.11-1.15,2.16,2.16,0,0,1,.88.17,2.22,2.22,0,0,1,1,1.1v-1.09h1.71v7.19a4.46,4.46,0,0,1-.44,2.21,3.06,3.06,0,0,1-2.88,1.28,3.59,3.59,0,0,1-2.1-.57,2.14,2.14,0,0,1-.89-1.71h1.9A.94.94,0,0,0,76.51,169.64Zm-.29-3.91a1.28,1.28,0,0,0,1.28,1,1.31,1.31,0,0,0,1-.53,2.64,2.64,0,0,0,.42-1.67,2.8,2.8,0,0,0-.4-1.64,1.28,1.28,0,0,0-1.08-.56,1.3,1.3,0,0,0-1.28,1,4,4,0,0,0-.18,1.29A3.26,3.26,0,0,0,76.22,165.73Z"/><path class="cls-2" d="M88.05,166.09a2.58,2.58,0,0,1-.62,1.37A2.89,2.89,0,0,1,85,168.57a3.16,3.16,0,0,1-2.26-.94,4,4,0,0,1-1-3,4.54,4.54,0,0,1,.89-3A2.84,2.84,0,0,1,85,160.54a3.19,3.19,0,0,1,1.5.35A2.78,2.78,0,0,1,87.57,162a4.21,4.21,0,0,1,.51,1.57,11.68,11.68,0,0,1,.06,1.5H83.55a2,2,0,0,0,.63,1.6,1.38,1.38,0,0,0,.88.28,1.15,1.15,0,0,0,.87-.35,1.46,1.46,0,0,0,.33-.52Zm-1.73-2.32a1.81,1.81,0,0,0-.43-1.19,1.22,1.22,0,0,0-.93-.41,1.13,1.13,0,0,0-.95.43,2.39,2.39,0,0,0-.42,1.17Z"/><path class="cls-2" d="M98.55,166.09a2.58,2.58,0,0,1-.62,1.37,2.86,2.86,0,0,1-2.41,1.11,3.13,3.13,0,0,1-2.25-.94,4,4,0,0,1-1-3,4.54,4.54,0,0,1,.88-3,2.85,2.85,0,0,1,2.29-1.05,3.26,3.26,0,0,1,1.51.35,2.82,2.82,0,0,1,1.1,1.12,4,4,0,0,1,.52,1.57,12.08,12.08,0,0,1,0,1.5H94.05a2,2,0,0,0,.64,1.6,1.35,1.35,0,0,0,.87.28,1.19,1.19,0,0,0,.88-.35,1.79,1.79,0,0,0,.33-.52Zm-1.73-2.32a1.86,1.86,0,0,0-.42-1.19,1.24,1.24,0,0,0-.94-.41,1.11,1.11,0,0,0-.94.43,2.21,2.21,0,0,0-.42,1.17Z"/><path class="cls-2" d="M103.59,162.82a.85.85,0,0,0-.87-.54,1,1,0,0,0-1,.54,2.29,2.29,0,0,0-.14.94v4.56H99.79v-7.57h1.7v1.11a3,3,0,0,1,.62-.84,2.19,2.19,0,0,1,2.56-.07,2.17,2.17,0,0,1,.58.92,2.15,2.15,0,0,1,2.06-1.3,2,2,0,0,1,.87.2,2,2,0,0,1,.79.68,2.5,2.5,0,0,1,.38,1,7.85,7.85,0,0,1,.06,1.12v4.78h-1.8v-4.83a1.81,1.81,0,0,0-.12-.71.86.86,0,0,0-.86-.53,1,1,0,0,0-1,.69,2.46,2.46,0,0,0-.14.86v4.52h-1.76V163.8A3,3,0,0,0,103.59,162.82Z"/><path class="cls-2" d="M116.64,161.55a4.43,4.43,0,0,1,.81,2.88,5,5,0,0,1-.8,3,2.46,2.46,0,0,1-2.05,1.05,2,2,0,0,1-1.33-.45,2.84,2.84,0,0,1-.56-.73v4H111V160.74h1.68v1.12a3.19,3.19,0,0,1,.6-.78,2.06,2.06,0,0,1,1.39-.51A2.53,2.53,0,0,1,116.64,161.55Zm-1,3a3.34,3.34,0,0,0-.35-1.55,1.21,1.21,0,0,0-1.15-.68,1.32,1.32,0,0,0-1.31,1,4.39,4.39,0,0,0-.19,1.37,2.34,2.34,0,0,0,.63,1.86,1.27,1.27,0,0,0,.87.31,1.23,1.23,0,0,0,1.12-.64A3.34,3.34,0,0,0,115.64,164.53Z"/><path class="cls-2" d="M124.31,161.7a5.25,5.25,0,0,1,0,5.7,3.41,3.41,0,0,1-5.16,0,5.2,5.2,0,0,1,0-5.7,3.37,3.37,0,0,1,5.16,0Zm-2.59.47a1.34,1.34,0,0,0-1.18.62,3.08,3.08,0,0,0-.42,1.75,3.11,3.11,0,0,0,.42,1.76,1.43,1.43,0,0,0,2.36,0,3.12,3.12,0,0,0,.41-1.76,3.08,3.08,0,0,0-.41-1.75A1.34,1.34,0,0,0,121.72,162.17Z"/><path class="cls-2" d="M126.44,158.07h1.76v10.25h-1.76Z"/><path class="cls-2" d="M132.63,166.33l1.39-5.59h1.86l-2.3,7.45a10.78,10.78,0,0,1-1.05,2.67,1.85,1.85,0,0,1-1.55.52h-.38l-.42,0v-1.58h.22a2,2,0,0,0,.49,0,.69.69,0,0,0,.39-.16,1,1,0,0,0,.29-.49,1.26,1.26,0,0,0,.11-.46l-2.46-7.91h1.95Z"/><path class="cls-2" d="M142.65,166.09a2.66,2.66,0,0,1-.62,1.37,2.89,2.89,0,0,1-2.41,1.11,3.16,3.16,0,0,1-2.26-.94,4,4,0,0,1-1-3,4.54,4.54,0,0,1,.89-3,2.84,2.84,0,0,1,2.29-1.05,3.22,3.22,0,0,1,1.5.35,2.78,2.78,0,0,1,1.11,1.12,4.21,4.21,0,0,1,.51,1.57,11.68,11.68,0,0,1,.06,1.5h-4.59a2,2,0,0,0,.63,1.6,1.35,1.35,0,0,0,.87.28,1.16,1.16,0,0,0,.88-.35,1.46,1.46,0,0,0,.33-.52Zm-1.73-2.32a1.81,1.81,0,0,0-.43-1.19,1.22,1.22,0,0,0-.93-.41,1.13,1.13,0,0,0-.95.43,2.39,2.39,0,0,0-.42,1.17Z"/><path class="cls-2" d="M149.65,166.09a2.58,2.58,0,0,1-.62,1.37,2.86,2.86,0,0,1-2.41,1.11,3.13,3.13,0,0,1-2.25-.94,4,4,0,0,1-1-3,4.54,4.54,0,0,1,.88-3,2.85,2.85,0,0,1,2.29-1.05,3.26,3.26,0,0,1,1.51.35,2.85,2.85,0,0,1,1.11,1.12,4.21,4.21,0,0,1,.51,1.57,12.08,12.08,0,0,1,.05,1.5h-4.59a2,2,0,0,0,.64,1.6,1.35,1.35,0,0,0,.87.28,1.19,1.19,0,0,0,.88-.35,1.79,1.79,0,0,0,.33-.52Zm-1.73-2.32a1.86,1.86,0,0,0-.42-1.19,1.24,1.24,0,0,0-.94-.41,1.11,1.11,0,0,0-.94.43,2.21,2.21,0,0,0-.42,1.17Z"/><path class="cls-2" d="M159.51,168.32l-1-5.52-1.07,5.52h-1.82l-1.88-7.58h1.88l1.05,5.44,1-5.44h1.78l1,5.46,1.05-5.46h1.82l-1.94,7.58Z"/><path class="cls-2" d="M169.81,161.7a5.2,5.2,0,0,1,0,5.7,3,3,0,0,1-2.58,1.18,2.94,2.94,0,0,1-2.57-1.18,5.2,5.2,0,0,1,0-5.7,2.93,2.93,0,0,1,2.57-1.2A3,3,0,0,1,169.81,161.7Zm-2.58.47a1.35,1.35,0,0,0-1.19.62,3.17,3.17,0,0,0-.41,1.75,3.2,3.2,0,0,0,.41,1.76,1.44,1.44,0,0,0,2.37,0,3.2,3.2,0,0,0,.41-1.76,3.17,3.17,0,0,0-.41-1.75A1.35,1.35,0,0,0,167.23,162.17Z"/><path class="cls-2" d="M175.28,162.57a1.41,1.41,0,0,0-1.42.78,3.46,3.46,0,0,0-.2,1.34v3.63h-1.77v-7.58h1.68v1.32a4.22,4.22,0,0,1,.7-1,1.8,1.8,0,0,1,1.28-.46h.24v2l-.3,0Z"/><path class="cls-2" d="M183,168.32h-2.11l-1.61-3.24-.72.85v2.39H176.8V158.1h1.72v5.52l2.18-2.85h2.17l-2.34,2.9Z"/><path class="cls-2" d="M188.44,161.09a2.55,2.55,0,0,1,.9,2h-1.75a1.37,1.37,0,0,0-.19-.61,1.12,1.12,0,0,0-1-.4,1.3,1.3,0,0,0-.81.2.59.59,0,0,0-.24.47.52.52,0,0,0,.26.5,10.78,10.78,0,0,0,1.82.55,3.13,3.13,0,0,1,1.57.84,2.05,2.05,0,0,1,.52,1.42,2.45,2.45,0,0,1-.74,1.84,4,4,0,0,1-4.63,0,2.6,2.6,0,0,1-.75-1.92h1.77a1.5,1.5,0,0,0,.24.75,1.53,1.53,0,0,0,1.21.39,1.61,1.61,0,0,0,.82-.17.58.58,0,0,0,.31-.52.61.61,0,0,0-.25-.51,9.91,9.91,0,0,0-1.83-.6,3.54,3.54,0,0,1-1.6-.8,1.86,1.86,0,0,1-.47-1.36,2.48,2.48,0,0,1,.73-1.8,2.72,2.72,0,0,1,2-.76A3.43,3.43,0,0,1,188.44,161.09Z"/><path class="cls-2" d="M198.27,168.32h-1.79v-6.95h-2.1V160a6.54,6.54,0,0,0,1.16-.13,1.58,1.58,0,0,0,.86-.53,1.86,1.86,0,0,0,.35-.72,2,2,0,0,0,.06-.4h1.46Z"/><path class="cls-2" d="M204.36,161.78a2.43,2.43,0,0,1,1.95.91,3.52,3.52,0,0,1,.76,2.32,4.24,4.24,0,0,1-.75,2.49,2.6,2.6,0,0,1-2.31,1.08,2.64,2.64,0,0,1-2.49-1.59,7.25,7.25,0,0,1-.62-3.21,15.81,15.81,0,0,1,.09-1.88,6.1,6.1,0,0,1,.6-2.14,3.2,3.2,0,0,1,1-1.18,2.48,2.48,0,0,1,1.47-.44,2.75,2.75,0,0,1,2,.72,2.93,2.93,0,0,1,.83,1.91h-1.75a1.09,1.09,0,0,0-.17-.53.92.92,0,0,0-.85-.47c-.57,0-1,.36-1.22,1.08a7.68,7.68,0,0,0-.27,1.77,1.91,1.91,0,0,1,.76-.64A2.17,2.17,0,0,1,204.36,161.78Zm-1.18,1.89a1.85,1.85,0,0,0-.52,1.46,2.11,2.11,0,0,0,.39,1.32,1.18,1.18,0,0,0,1,.52,1.05,1.05,0,0,0,.92-.5,2.21,2.21,0,0,0,.34-1.29,2.11,2.11,0,0,0-.38-1.35,1.19,1.19,0,0,0-.94-.47A1.13,1.13,0,0,0,203.18,163.67Z"/><path class="cls-2" d="M217.89,163.87v4.45H216.1v-4.61a2.31,2.31,0,0,0-.18-1,.92.92,0,0,0-.91-.53,1.2,1.2,0,0,0-1.06.53,2.62,2.62,0,0,0-.36,1.49v4.11h-1.74V158.1h1.74v3.63a2.31,2.31,0,0,1,.88-.92,2.23,2.23,0,0,1,1.06-.27,2.64,2.64,0,0,1,1.13.25,2,2,0,0,1,.83.74,2.05,2.05,0,0,1,.34.87A12.54,12.54,0,0,1,217.89,163.87Z"/><path class="cls-2" d="M225.12,161.7a5.2,5.2,0,0,1,0,5.7,3.41,3.41,0,0,1-5.16,0,5.2,5.2,0,0,1,0-5.7,3.37,3.37,0,0,1,5.16,0Zm-2.59.47a1.35,1.35,0,0,0-1.18.62,3.08,3.08,0,0,0-.42,1.75,3.11,3.11,0,0,0,.42,1.76,1.35,1.35,0,0,0,1.18.62,1.33,1.33,0,0,0,1.18-.62,3.11,3.11,0,0,0,.42-1.76,3.08,3.08,0,0,0-.42-1.75A1.33,1.33,0,0,0,222.53,162.17Z"/><path class="cls-2" d="M231.52,167.25a1.36,1.36,0,0,0-.12.2,1.5,1.5,0,0,1-.24.31,2.36,2.36,0,0,1-.79.57,2.5,2.5,0,0,1-.9.15,2,2,0,0,1-2-1.21,5.18,5.18,0,0,1-.29-2v-4.57H229v4.57a2.69,2.69,0,0,0,.13,1,.93.93,0,0,0,.94.58,1.23,1.23,0,0,0,1.23-.82,3.22,3.22,0,0,0,.18-1.18v-4.12h1.77v7.58h-1.7Z"/><path class="cls-2" d="M238.28,162.57a1.42,1.42,0,0,0-1.42.78,3.46,3.46,0,0,0-.2,1.34v3.63H234.9v-7.58h1.67v1.32a3.94,3.94,0,0,1,.71-1,1.76,1.76,0,0,1,1.28-.46h.23v2l-.3,0Z"/><path class="cls-2" d="M244.43,161.09a2.53,2.53,0,0,1,.91,2h-1.75a1.26,1.26,0,0,0-.2-.61,1.12,1.12,0,0,0-1-.4,1.3,1.3,0,0,0-.81.2.58.58,0,0,0-.25.47.54.54,0,0,0,.26.5,10.71,10.71,0,0,0,1.83.55,3.13,3.13,0,0,1,1.57.84,2,2,0,0,1,.51,1.42,2.41,2.41,0,0,1-.74,1.84,4,4,0,0,1-4.62,0,2.57,2.57,0,0,1-.76-1.92h1.78a1.5,1.5,0,0,0,.24.75,1.53,1.53,0,0,0,1.21.39,1.64,1.64,0,0,0,.82-.17.57.57,0,0,0,.3-.52.6.6,0,0,0-.24-.51,10.57,10.57,0,0,0-1.83-.6,3.64,3.64,0,0,1-1.61-.8,1.85,1.85,0,0,1-.46-1.36,2.48,2.48,0,0,1,.73-1.8,2.71,2.71,0,0,1,2-.76A3.4,3.4,0,0,1,244.43,161.09Z"/><path class="cls-2" d="M255.93,161.55a4.38,4.38,0,0,1,.82,2.88,5,5,0,0,1-.8,3,2.46,2.46,0,0,1-2,1.05,2,2,0,0,1-1.33-.45,2.84,2.84,0,0,1-.56-.73v4h-1.74V160.74H252v1.12a3.19,3.19,0,0,1,.6-.78,2.06,2.06,0,0,1,1.39-.51A2.49,2.49,0,0,1,255.93,161.55Zm-1,3a3.34,3.34,0,0,0-.35-1.55,1.21,1.21,0,0,0-1.15-.68,1.32,1.32,0,0,0-1.31,1,4.39,4.39,0,0,0-.19,1.37,2.38,2.38,0,0,0,.62,1.86,1.32,1.32,0,0,0,.88.31,1.23,1.23,0,0,0,1.12-.64A3.34,3.34,0,0,0,254.94,164.53Z"/><path class="cls-2" d="M263.75,166.09a2.58,2.58,0,0,1-.62,1.37,2.87,2.87,0,0,1-2.41,1.11,3.16,3.16,0,0,1-2.26-.94,4,4,0,0,1-1-3,4.54,4.54,0,0,1,.89-3,2.85,2.85,0,0,1,2.29-1.05,3.26,3.26,0,0,1,1.51.35,2.82,2.82,0,0,1,1.1,1.12,4.21,4.21,0,0,1,.51,1.57,10.08,10.08,0,0,1,.06,1.5h-4.59a2,2,0,0,0,.63,1.6,1.4,1.4,0,0,0,.88.28,1.19,1.19,0,0,0,.88-.35,1.6,1.6,0,0,0,.32-.52ZM262,163.77a1.86,1.86,0,0,0-.42-1.19,1.26,1.26,0,0,0-.94-.41,1.13,1.13,0,0,0-1,.43,2.39,2.39,0,0,0-.42,1.17Z"/><path class="cls-2" d="M268.39,162.57a1.4,1.4,0,0,0-1.42.78,3.27,3.27,0,0,0-.2,1.34v3.63H265v-7.58h1.67v1.32a4.19,4.19,0,0,1,.71-1,1.78,1.78,0,0,1,1.28-.46h.23v2l-.29,0Z"/><path class="cls-2" d="M30.14,175.17V185.4h-1.7v-1.05a2.63,2.63,0,0,1-.86,1,2.13,2.13,0,0,1-1.19.31,2.39,2.39,0,0,1-2-1.08,4.49,4.49,0,0,1-.8-2.75,5.19,5.19,0,0,1,.79-3.06,2.47,2.47,0,0,1,2.11-1.11,1.88,1.88,0,0,1,1.08.31,2.2,2.2,0,0,1,.77.83v-3.61Zm-4.72,6.49a3.27,3.27,0,0,0,.37,1.68,1.19,1.19,0,0,0,1.1.63,1.23,1.23,0,0,0,1.13-.63,3,3,0,0,0,.39-1.62,2.71,2.71,0,0,0-.62-2,1.25,1.25,0,0,0-.89-.36,1.19,1.19,0,0,0-1.12.66A3.36,3.36,0,0,0,25.42,181.66Z"/><path class="cls-2" d="M32,178.64a2.73,2.73,0,0,1,2.39-1,3.86,3.86,0,0,1,2,.5,2,2,0,0,1,.85,1.86v3.47c0,.25,0,.54,0,.88a1.28,1.28,0,0,0,.11.53.66.66,0,0,0,.26.23v.29H35.65a2.72,2.72,0,0,1-.11-.43c0-.14,0-.29,0-.46a3.57,3.57,0,0,1-.84.76,2.31,2.31,0,0,1-1.28.37,2.07,2.07,0,0,1-1.5-.59,2.23,2.23,0,0,1-.59-1.67,2.25,2.25,0,0,1,.95-2,3.87,3.87,0,0,1,1.54-.49l.59-.08a2.61,2.61,0,0,0,.7-.17.59.59,0,0,0,.37-.57.69.69,0,0,0-.28-.64,1.59,1.59,0,0,0-.84-.18,1,1,0,0,0-.88.35,1.6,1.6,0,0,0-.25.7H31.49A3.21,3.21,0,0,1,32,178.64ZM33.29,184a.85.85,0,0,0,.6.23,1.63,1.63,0,0,0,1-.38,1.68,1.68,0,0,0,.5-1.37v-.73a2.27,2.27,0,0,1-.34.19,2.2,2.2,0,0,1-.46.13l-.39.09a2.22,2.22,0,0,0-.8.27.93.93,0,0,0-.4.84A.92.92,0,0,0,33.29,184Z"/><path class="cls-2" d="M41.46,183.41l1.39-5.59h1.86l-2.3,7.46a11.15,11.15,0,0,1-1,2.67,1.88,1.88,0,0,1-1.55.52h-.38l-.42,0v-1.59l.22,0a2.61,2.61,0,0,0,.49,0,.87.87,0,0,0,.39-.16,1.07,1.07,0,0,0,.29-.5,1.26,1.26,0,0,0,.11-.46l-2.46-7.91h2Z"/><path class="cls-2" d="M49.49,178.64a2.73,2.73,0,0,1,2.39-1,3.86,3.86,0,0,1,2,.5,2,2,0,0,1,.85,1.86v3.47c0,.25,0,.54,0,.88a1.28,1.28,0,0,0,.11.53.66.66,0,0,0,.26.23v.29H53.16a2.72,2.72,0,0,1-.11-.43c0-.14,0-.29,0-.46a3.57,3.57,0,0,1-.84.76,2.31,2.31,0,0,1-1.28.37,2.07,2.07,0,0,1-1.5-.59,2.64,2.64,0,0,1,.36-3.69,3.87,3.87,0,0,1,1.54-.49l.59-.08a2.61,2.61,0,0,0,.7-.17.59.59,0,0,0,.37-.57.69.69,0,0,0-.28-.64,1.59,1.59,0,0,0-.84-.18,1,1,0,0,0-.88.35,1.6,1.6,0,0,0-.25.7H49A3.21,3.21,0,0,1,49.49,178.64ZM50.8,184a.85.85,0,0,0,.6.23,1.63,1.63,0,0,0,1-.38,1.68,1.68,0,0,0,.5-1.37v-.73a2.27,2.27,0,0,1-.34.19,2.2,2.2,0,0,1-.46.13l-.39.09a2.22,2.22,0,0,0-.8.27.93.93,0,0,0-.4.84A.92.92,0,0,0,50.8,184Z"/><path class="cls-2" d="M59.4,179.29a1.22,1.22,0,0,0-1.22.85A3.23,3.23,0,0,0,58,181.3v4.1H56.26v-7.56H58v1.1a3.35,3.35,0,0,1,.64-.84,2,2,0,0,1,1.37-.46,2.4,2.4,0,0,1,1.7.62,2.69,2.69,0,0,1,.66,2v5.1H60.53v-4.61a2.47,2.47,0,0,0-.14-.92A1,1,0,0,0,59.4,179.29Z"/><path class="cls-2" d="M70,175.17V185.4h-1.7v-1.05a2.63,2.63,0,0,1-.86,1,2.11,2.11,0,0,1-1.19.31,2.41,2.41,0,0,1-2-1.08,4.49,4.49,0,0,1-.8-2.75,5.19,5.19,0,0,1,.79-3.06,2.47,2.47,0,0,1,2.11-1.11,1.93,1.93,0,0,1,1.09.31,2.26,2.26,0,0,1,.76.83v-3.61Zm-4.72,6.49a3.27,3.27,0,0,0,.37,1.68,1.19,1.19,0,0,0,1.1.63,1.26,1.26,0,0,0,1.14-.63,3.08,3.08,0,0,0,.38-1.62,2.67,2.67,0,0,0-.62-2,1.24,1.24,0,0,0-.88-.36,1.19,1.19,0,0,0-1.13.66A3.36,3.36,0,0,0,65.32,181.66Z"/><path class="cls-2" d="M81.23,175.17V185.4h-1.7v-1.05a2.61,2.61,0,0,1-.85,1,2.14,2.14,0,0,1-1.2.31,2.38,2.38,0,0,1-2-1.08,4.42,4.42,0,0,1-.81-2.75,5.27,5.27,0,0,1,.79-3.06,2.47,2.47,0,0,1,2.12-1.11,1.92,1.92,0,0,1,1.08.31,2.37,2.37,0,0,1,.77.83v-3.61Zm-4.72,6.49a3.27,3.27,0,0,0,.37,1.68A1.19,1.19,0,0,0,78,184a1.25,1.25,0,0,0,1.13-.63,3,3,0,0,0,.39-1.62,2.71,2.71,0,0,0-.62-2,1.26,1.26,0,0,0-.89-.36,1.2,1.2,0,0,0-1.13.66A3.36,3.36,0,0,0,76.51,181.66Z"/><path class="cls-2" d="M88.42,178.78a5.2,5.2,0,0,1,0,5.7,3,3,0,0,1-2.58,1.18,2.94,2.94,0,0,1-2.57-1.18,5.2,5.2,0,0,1,0-5.7,2.93,2.93,0,0,1,2.57-1.2A3,3,0,0,1,88.42,178.78Zm-2.58.47a1.35,1.35,0,0,0-1.19.62,3.12,3.12,0,0,0-.41,1.76,3.08,3.08,0,0,0,.41,1.75,1.44,1.44,0,0,0,2.37,0,3.17,3.17,0,0,0,.41-1.75,3.2,3.2,0,0,0-.41-1.76A1.35,1.35,0,0,0,85.84,179.25Z"/><path class="cls-2" d="M96.26,183.18a2.67,2.67,0,0,1-.62,1.36,2.89,2.89,0,0,1-2.41,1.11,3.17,3.17,0,0,1-2.26-.93,4,4,0,0,1-1-3,4.57,4.57,0,0,1,.89-3,2.84,2.84,0,0,1,2.29-1,3.11,3.11,0,0,1,1.5.36,2.72,2.72,0,0,1,1.11,1.12,4.16,4.16,0,0,1,.51,1.56,11.87,11.87,0,0,1,.06,1.5H91.76a2,2,0,0,0,.63,1.6,1.35,1.35,0,0,0,.87.28,1.15,1.15,0,0,0,.88-.34,1.55,1.55,0,0,0,.33-.52Zm-1.74-2.33a1.76,1.76,0,0,0-.42-1.19,1.22,1.22,0,0,0-.93-.41,1.14,1.14,0,0,0-1,.44,2.31,2.31,0,0,0-.42,1.16Z"/><path class="cls-2" d="M102.14,178.17a2.53,2.53,0,0,1,.91,2H101.3a1.33,1.33,0,0,0-.19-.6,1.14,1.14,0,0,0-1-.41,1.23,1.23,0,0,0-.81.21.58.58,0,0,0-.25.47.54.54,0,0,0,.26.49,9.79,9.79,0,0,0,1.83.55,3.3,3.3,0,0,1,1.57.84,2.07,2.07,0,0,1,.51,1.43,2.43,2.43,0,0,1-.74,1.84,3.22,3.22,0,0,1-2.29.71,3.14,3.14,0,0,1-2.33-.76,2.61,2.61,0,0,1-.76-1.92h1.78a1.14,1.14,0,0,0,1.45,1.15,1.61,1.61,0,0,0,.82-.18.56.56,0,0,0,.3-.52.57.57,0,0,0-.24-.5,9,9,0,0,0-1.83-.6,3.75,3.75,0,0,1-1.61-.8,1.87,1.87,0,0,1-.46-1.36,2.51,2.51,0,0,1,.73-1.81,2.72,2.72,0,0,1,2-.75A3.39,3.39,0,0,1,102.14,178.17Z"/><path class="cls-2" d="M107.69,179.29a1.23,1.23,0,0,0-1.23.85,3.47,3.47,0,0,0-.17,1.16v4.1h-1.75v-7.56h1.69v1.1a3.35,3.35,0,0,1,.64-.84,2,2,0,0,1,1.38-.46,2.4,2.4,0,0,1,1.7.62,2.69,2.69,0,0,1,.66,2v5.1h-1.8v-4.61a2.47,2.47,0,0,0-.14-.92A1,1,0,0,0,107.69,179.29Z"/><path class="cls-2" d="M114,176.66a2.69,2.69,0,0,1-.45,1.65,2.16,2.16,0,0,1-1.27.79v-.73a1.38,1.38,0,0,0,.83-.73,1.35,1.35,0,0,0,.1-.62h-1v-1.83H114Z"/><path class="cls-2" d="M118.79,184v1.48l-.83,0a2,2,0,0,1-1.69-.48A1.57,1.57,0,0,1,116,184V179.3H115v-1.41H116v-2.11h1.73v2.11h1.09v1.41H117.7v4a1,1,0,0,0,.11.58,1.1,1.1,0,0,0,.64.11h.34Z"/><path class="cls-2" d="M125.31,186.73a1.38,1.38,0,0,0,1,.27,1.24,1.24,0,0,0,1.26-.72,4,4,0,0,0,.21-1.54v-.49a2.34,2.34,0,0,1-.54.73,2,2,0,0,1-1.36.46,2.46,2.46,0,0,1-2.06-1,4.48,4.48,0,0,1-.77-2.78,5.11,5.11,0,0,1,.74-2.84,2.39,2.39,0,0,1,2.11-1.15,2,2,0,0,1,.88.18,2.2,2.2,0,0,1,1,1.09v-1.09h1.71V185a4.44,4.44,0,0,1-.44,2.21,3.06,3.06,0,0,1-2.88,1.28,3.57,3.57,0,0,1-2.1-.57,2.14,2.14,0,0,1-.89-1.7h1.9A.94.94,0,0,0,125.31,186.73Zm-.29-3.92a1.28,1.28,0,0,0,1.28,1,1.3,1.3,0,0,0,1-.52,2.68,2.68,0,0,0,.42-1.67,2.78,2.78,0,0,0-.4-1.64,1.26,1.26,0,0,0-1.08-.57,1.3,1.3,0,0,0-1.28,1,4,4,0,0,0-.18,1.29A3.26,3.26,0,0,0,125,182.81Z"/><path class="cls-2" d="M136.85,183.18a2.59,2.59,0,0,1-.62,1.36,2.89,2.89,0,0,1-2.41,1.11,3.19,3.19,0,0,1-2.26-.93,4,4,0,0,1-1-3,4.57,4.57,0,0,1,.89-3,2.84,2.84,0,0,1,2.29-1,3.11,3.11,0,0,1,1.5.36,2.72,2.72,0,0,1,1.11,1.12,4.16,4.16,0,0,1,.51,1.56,11.87,11.87,0,0,1,.06,1.5h-4.59a2,2,0,0,0,.63,1.6,1.37,1.37,0,0,0,.87.28,1.15,1.15,0,0,0,.88-.34,1.55,1.55,0,0,0,.33-.52Zm-1.73-2.33a1.81,1.81,0,0,0-.43-1.19,1.22,1.22,0,0,0-.93-.41,1.14,1.14,0,0,0-.95.44,2.31,2.31,0,0,0-.42,1.16Z"/><path class="cls-2" d="M141.19,184v1.48l-.83,0a2,2,0,0,1-1.7-.48,1.57,1.57,0,0,1-.3-1.05V179.3h-.93v-1.41h.93v-2.11h1.74v2.11h1.09v1.41H140.1v4a1,1,0,0,0,.1.58,1.1,1.1,0,0,0,.64.11h.35Z"/><path class="cls-2" d="M151.43,178.64a4.4,4.4,0,0,1,.81,2.87,5,5,0,0,1-.8,3.06,2.46,2.46,0,0,1-2.05,1.05,2,2,0,0,1-1.33-.46,2.67,2.67,0,0,1-.56-.73v3.95h-1.74V177.82h1.68v1.12a3.19,3.19,0,0,1,.6-.78,2.1,2.1,0,0,1,1.39-.5A2.5,2.5,0,0,1,151.43,178.64Zm-1,3a3.37,3.37,0,0,0-.35-1.55,1.2,1.2,0,0,0-1.15-.67,1.32,1.32,0,0,0-1.31,1,4.41,4.41,0,0,0-.19,1.38,2.31,2.31,0,0,0,.63,1.85,1.27,1.27,0,0,0,.87.31,1.23,1.23,0,0,0,1.12-.64A3.32,3.32,0,0,0,150.43,181.61Z"/><path class="cls-2" d="M153.76,178.64a2.71,2.71,0,0,1,2.38-1,3.83,3.83,0,0,1,2,.5A2,2,0,0,1,159,180v3.47c0,.25,0,.54,0,.88a1.16,1.16,0,0,0,.1.53.66.66,0,0,0,.26.23v.29h-1.91a2.72,2.72,0,0,1-.11-.43c0-.14,0-.29-.05-.46a3.74,3.74,0,0,1-.83.76,2.36,2.36,0,0,1-1.28.37,2.07,2.07,0,0,1-1.51-.59,2.64,2.64,0,0,1,.36-3.69,3.87,3.87,0,0,1,1.54-.49l.6-.08a2.62,2.62,0,0,0,.69-.17.6.6,0,0,0,.38-.57.7.7,0,0,0-.29-.64,1.59,1.59,0,0,0-.84-.18,1,1,0,0,0-.88.35,1.6,1.6,0,0,0-.24.7h-1.69A3.12,3.12,0,0,1,153.76,178.64Zm1.3,5.33a.86.86,0,0,0,.6.23,1.67,1.67,0,0,0,1.05-.38,1.71,1.71,0,0,0,.49-1.37v-.73a2.79,2.79,0,0,1-.33.19,2.53,2.53,0,0,1-.47.13l-.39.09a2.22,2.22,0,0,0-.8.27.93.93,0,0,0-.4.84A.92.92,0,0,0,155.06,184Z"/><path class="cls-2" d="M162.31,175.09v1.83h-1.78v-1.83Zm0,2.73v7.58h-1.78v-7.58Z"/><path class="cls-2" d="M170.11,175.17V185.4h-1.7v-1.05a2.63,2.63,0,0,1-.86,1,2.13,2.13,0,0,1-1.19.31,2.39,2.39,0,0,1-2-1.08,4.49,4.49,0,0,1-.8-2.75,5.19,5.19,0,0,1,.79-3.06,2.46,2.46,0,0,1,2.11-1.11,1.88,1.88,0,0,1,1.08.31,2.2,2.2,0,0,1,.77.83v-3.61Zm-4.72,6.49a3.27,3.27,0,0,0,.37,1.68,1.19,1.19,0,0,0,1.1.63,1.23,1.23,0,0,0,1.13-.63,3,3,0,0,0,.39-1.62,2.71,2.71,0,0,0-.62-2,1.25,1.25,0,0,0-.89-.36,1.19,1.19,0,0,0-1.12.66A3.36,3.36,0,0,0,165.39,181.66Z"/><path class="cls-2" d="M178.35,175.09v1.61l-.5,0a.54.54,0,0,0-.48.18.64.64,0,0,0-.13.4v.64h1.15v1.4h-1.15v6.11h-1.75v-6.11h-1v-1.4h1v-.48a2.75,2.75,0,0,1,.37-1.68c.25-.45.86-.68,1.83-.68H178Z"/><path class="cls-2" d="M185,178.78a5.2,5.2,0,0,1,0,5.7,3.41,3.41,0,0,1-5.16,0,5.2,5.2,0,0,1,0-5.7,3.37,3.37,0,0,1,5.16,0Zm-2.59.47a1.35,1.35,0,0,0-1.18.62,3.12,3.12,0,0,0-.41,1.76,3.08,3.08,0,0,0,.41,1.75,1.33,1.33,0,0,0,1.18.62,1.3,1.3,0,0,0,1.18-.62,3.08,3.08,0,0,0,.42-1.75,3.11,3.11,0,0,0-.42-1.76A1.33,1.33,0,0,0,182.4,179.25Z"/><path class="cls-2" d="M190.46,179.65a1.41,1.41,0,0,0-1.42.78,3.3,3.3,0,0,0-.2,1.35v3.62h-1.77v-7.58h1.67v1.32a4.38,4.38,0,0,1,.71-1,1.8,1.8,0,0,1,1.28-.47H191v2l-.29,0Z"/><path class="cls-2" d="M201.08,178.78a5.2,5.2,0,0,1,0,5.7,3.4,3.4,0,0,1-5.15,0,5.2,5.2,0,0,1,0-5.7,3.36,3.36,0,0,1,5.15,0Zm-2.58.47a1.37,1.37,0,0,0-1.19.62,3.2,3.2,0,0,0-.41,1.76,3.17,3.17,0,0,0,.41,1.75,1.34,1.34,0,0,0,1.19.62,1.33,1.33,0,0,0,1.18-.62,3.17,3.17,0,0,0,.41-1.75,3.2,3.2,0,0,0-.41-1.76A1.35,1.35,0,0,0,198.5,179.25Z"/><path class="cls-2" d="M202.53,177.82h2l1.4,5.59,1.43-5.59h1.88l-2.42,7.58h-1.85Z"/><path class="cls-2" d="M215.93,183.18a2.67,2.67,0,0,1-.62,1.36,2.89,2.89,0,0,1-2.41,1.11,3.17,3.17,0,0,1-2.26-.93,4,4,0,0,1-1-3,4.57,4.57,0,0,1,.88-3,2.85,2.85,0,0,1,2.29-1,3.15,3.15,0,0,1,1.51.36,2.72,2.72,0,0,1,1.11,1.12,4.16,4.16,0,0,1,.51,1.56,12.25,12.25,0,0,1,0,1.5h-4.58a2,2,0,0,0,.63,1.6,1.35,1.35,0,0,0,.87.28,1.17,1.17,0,0,0,.88-.34,1.94,1.94,0,0,0,.33-.52Zm-1.74-2.33a1.86,1.86,0,0,0-.42-1.19,1.23,1.23,0,0,0-.94-.41,1.12,1.12,0,0,0-.94.44,2.31,2.31,0,0,0-.42,1.16Z"/><path class="cls-2" d="M220.56,179.65a1.42,1.42,0,0,0-1.42.78,3.48,3.48,0,0,0-.2,1.35v3.62h-1.76v-7.58h1.67v1.32a3.85,3.85,0,0,1,.71-1,1.77,1.77,0,0,1,1.28-.47h.23v2l-.3,0Z"/><path class="cls-2" d="M225.17,184v1.48l-.83,0a2,2,0,0,1-1.7-.48,1.57,1.57,0,0,1-.3-1.05V179.3h-.93v-1.41h.93v-2.11h1.74v2.11h1.09v1.41h-1.09v4a1,1,0,0,0,.1.58,1.1,1.1,0,0,0,.64.11h.35Z"/><path class="cls-2" d="M228.09,175.09v1.83h-1.77v-1.83Zm0,2.73v7.58h-1.77v-7.58Z"/><path class="cls-2" d="M233.55,179.91a.83.83,0,0,0-.86-.55,1,1,0,0,0-1,.55,2.27,2.27,0,0,0-.14.93v4.56h-1.78v-7.56h1.7v1.1a3.37,3.37,0,0,1,.62-.84,1.92,1.92,0,0,1,1.32-.44,1.88,1.88,0,0,1,1.24.38,2.19,2.19,0,0,1,.58.91,2.16,2.16,0,0,1,2.06-1.29,2,2,0,0,1,.87.19,2,2,0,0,1,.78.68,2.4,2.4,0,0,1,.39,1,7.6,7.6,0,0,1,.06,1.11v4.78h-1.8v-4.82a1.78,1.78,0,0,0-.12-.71.86.86,0,0,0-.86-.53,1,1,0,0,0-1,.68,2.48,2.48,0,0,0-.14.87v4.51h-1.76v-4.51A2.61,2.61,0,0,0,233.55,179.91Z"/><path class="cls-2" d="M246.73,183.18a2.76,2.76,0,0,1-.62,1.36,2.89,2.89,0,0,1-2.41,1.11,3.17,3.17,0,0,1-2.26-.93,4,4,0,0,1-1-3,4.57,4.57,0,0,1,.88-3,2.85,2.85,0,0,1,2.29-1,3.15,3.15,0,0,1,1.51.36,2.72,2.72,0,0,1,1.11,1.12,4.16,4.16,0,0,1,.51,1.56,12.25,12.25,0,0,1,.05,1.5h-4.59a2,2,0,0,0,.64,1.6,1.35,1.35,0,0,0,.87.28,1.17,1.17,0,0,0,.88-.34,1.94,1.94,0,0,0,.33-.52ZM245,180.85a1.86,1.86,0,0,0-.42-1.19,1.23,1.23,0,0,0-.94-.41,1.12,1.12,0,0,0-.94.44,2.31,2.31,0,0,0-.42,1.16Z"/><path class="cls-2" d="M248,183.33h1.87v2.07H248Z"/></g></g></svg>