<svg xmlns="http://www.w3.org/2000/svg" viewBox="0 0 279.9 205.08"><defs><style>.cls-1{fill:#aea49b;}.cls-2{fill:#fff;}.cls-3{fill:#ffe5a1;}.cls-4{fill:#cfc6be;}</style></defs><g id="Layer_2" data-name="Layer 2"><g id="Layer_1-2" data-name="Layer 1"><rect class="cls-1" y="82.49" width="279.9" height="122.59"/><rect class="cls-1" x="208.85" y="24.47" width="30.49" height="78.28"/><rect class="cls-1" x="245.97" width="33.93" height="90.05"/><path class="cls-2" d="M43.82,109.44a4.37,4.37,0,0,1-3.09,1.11,4.65,4.65,0,0,1-3.66-1.5,7,7,0,0,1,.18-8.47,4.53,4.53,0,0,1,3.36-1.34,4.54,4.54,0,0,1,4,1.79,4,4,0,0,1,.75,2H43.08a3.16,3.16,0,0,0-.56-1.18,2.33,2.33,0,0,0-1.83-.7,2.27,2.27,0,0,0-1.94,1A4.8,4.8,0,0,0,38,105a4.18,4.18,0,0,0,.75,2.72,2.36,2.36,0,0,0,1.91.91,2.17,2.17,0,0,0,1.81-.78,3.39,3.39,0,0,0,.57-1.25h2.24A4.92,4.92,0,0,1,43.82,109.44Z"/><path class="cls-2" d="M46.91,99.45H49v10.79H46.91Z"/><path class="cls-2" d="M53.18,99.38v1.93H51.07V99.38Zm0,2.88v8H51.07v-8Z"/><path class="cls-2" d="M62.11,105.13H60a1.89,1.89,0,0,0-.3-.81,1.26,1.26,0,0,0-1.09-.48,1.44,1.44,0,0,0-1.44,1,4.3,4.3,0,0,0-.21,1.48,4,4,0,0,0,.21,1.42,1.38,1.38,0,0,0,1.4,1,1.24,1.24,0,0,0,1-.39,2,2,0,0,0,.38-1h2.13a3.46,3.46,0,0,1-.69,1.8,3.32,3.32,0,0,1-2.91,1.37,3.39,3.39,0,0,1-2.83-1.14,4.6,4.6,0,0,1-.91-3,4.7,4.7,0,0,1,1-3.2,3.51,3.51,0,0,1,2.77-1.14,4.25,4.25,0,0,1,2.46.67A3.15,3.15,0,0,1,62.11,105.13Z"/><path class="cls-2" d="M70.87,110.24H68.35l-1.91-3.41-.87.9v2.51h-2V99.49h2v5.81l2.61-3h2.58l-2.79,3Z"/><path class="cls-2" d="M82.71,103.27a4.65,4.65,0,0,1,1,3,4.57,4.57,0,0,1-1,3,4.38,4.38,0,0,1-6.13,0,4.58,4.58,0,0,1-1-3,4.66,4.66,0,0,1,1-3,4.36,4.36,0,0,1,6.13,0Zm-3.07.5a1.68,1.68,0,0,0-1.41.65,3.67,3.67,0,0,0,0,3.7,1.65,1.65,0,0,0,1.41.65,1.62,1.62,0,0,0,1.4-.65,3.74,3.74,0,0,0,0-3.7A1.64,1.64,0,0,0,79.64,103.77Z"/><path class="cls-2" d="M89,103.81a1.45,1.45,0,0,0-1.45.9,3,3,0,0,0-.21,1.21v4.32H85.23v-8h2v1.16a3.77,3.77,0,0,1,.76-.89,2.65,2.65,0,0,1,1.63-.48,3.11,3.11,0,0,1,2,.65,2.65,2.65,0,0,1,.78,2.15v5.37H90.32v-4.85a2.28,2.28,0,0,0-.17-1A1.2,1.2,0,0,0,89,103.81Z"/><path class="cls-2" d="M102.2,108.76v1.56l-1,0a2.65,2.65,0,0,1-2-.52,1.54,1.54,0,0,1-.35-1.1v-4.92H97.73v-1.49h1.11v-2.22h2.07v2.22h1.29v1.49h-1.29V108a1,1,0,0,0,.12.61,1.38,1.38,0,0,0,.76.12h.41Z"/><path class="cls-2" d="M110.76,105.56v4.68h-2.13v-4.85a2.2,2.2,0,0,0-.22-1,1.12,1.12,0,0,0-1.09-.56,1.48,1.48,0,0,0-1.25.56,2.47,2.47,0,0,0-.43,1.57v4.32h-2.08V99.49h2.08v3.81a2.53,2.53,0,0,1,1-1,3,3,0,0,1,1.25-.27,3.42,3.42,0,0,1,1.35.25,2.31,2.31,0,0,1,1,.79,1.93,1.93,0,0,1,.4.92A10.71,10.71,0,0,1,110.76,105.56Z"/><path class="cls-2" d="M119.54,107.9a2.6,2.6,0,0,1-.74,1.44,3.61,3.61,0,0,1-2.87,1.17,4.07,4.07,0,0,1-2.69-1,4,4,0,0,1-1.16-3.2,4.41,4.41,0,0,1,1-3.17,3.58,3.58,0,0,1,2.72-1.11,4.17,4.17,0,0,1,1.8.37A3.24,3.24,0,0,1,119,103.6a4.19,4.19,0,0,1,.61,1.65,11.31,11.31,0,0,1,.06,1.58h-5.46a2,2,0,0,0,.75,1.69,1.79,1.79,0,0,0,1,.3,1.48,1.48,0,0,0,1-.37,1.58,1.58,0,0,0,.39-.55Zm-2.07-2.45a1.78,1.78,0,0,0-.5-1.25,1.54,1.54,0,0,0-1.12-.43,1.43,1.43,0,0,0-1.12.45,2.38,2.38,0,0,0-.5,1.23Z"/><path class="cls-2" d="M132.48,99.46v10.78h-2v-1.1a2.87,2.87,0,0,1-1,1,2.79,2.79,0,0,1-1.42.32,3,3,0,0,1-2.35-1.13,4.32,4.32,0,0,1-1-2.9,5.06,5.06,0,0,1,.94-3.22,3.07,3.07,0,0,1,2.52-1.17,2.62,2.62,0,0,1,1.29.32,2.56,2.56,0,0,1,.91.88V99.46Zm-5.62,6.84a3.09,3.09,0,0,0,.44,1.77,1.45,1.45,0,0,0,1.31.67,1.55,1.55,0,0,0,1.35-.66,2.9,2.9,0,0,0,.46-1.71,2.58,2.58,0,0,0-.74-2.09,1.54,1.54,0,0,0-1.05-.38,1.48,1.48,0,0,0-1.35.69A3.23,3.23,0,0,0,126.86,106.3Z"/><path class="cls-2" d="M141,103.27a4.71,4.71,0,0,1,1,3,4.63,4.63,0,0,1-1,3,4.39,4.39,0,0,1-6.14,0,4.57,4.57,0,0,1-1-3,4.65,4.65,0,0,1,1-3,4.37,4.37,0,0,1,6.14,0Zm-3.08.5a1.68,1.68,0,0,0-1.41.65,3.74,3.74,0,0,0,0,3.7,1.85,1.85,0,0,0,2.82,0,3.74,3.74,0,0,0,0-3.7A1.68,1.68,0,0,0,138,103.77Z"/><path class="cls-2" d="M150.2,103.27a4.71,4.71,0,0,1,1,3,4.63,4.63,0,0,1-1,3,4.39,4.39,0,0,1-6.14,0,4.63,4.63,0,0,1-1-3,4.71,4.71,0,0,1,1-3,4.37,4.37,0,0,1,6.14,0Zm-3.08.5a1.68,1.68,0,0,0-1.41.65,3.74,3.74,0,0,0,0,3.7,1.85,1.85,0,0,0,2.82,0,3.74,3.74,0,0,0,0-3.7A1.68,1.68,0,0,0,147.12,103.77Z"/><path class="cls-2" d="M156.72,104.19a1.74,1.74,0,0,0-1.7.82,3.21,3.21,0,0,0-.24,1.42v3.81h-2.1v-8h2v1.39a4.22,4.22,0,0,1,.85-1.09,2.29,2.29,0,0,1,1.52-.49h.1l.18,0v2.13l-.36,0Z"/><path class="cls-2" d="M166.36,108.76v1.56l-1,0a2.65,2.65,0,0,1-2-.52,1.54,1.54,0,0,1-.35-1.1v-4.92h-1.11v-1.49H163v-2.22h2.07v2.22h1.29v1.49h-1.29V108a1,1,0,0,0,.12.61,1.38,1.38,0,0,0,.76.12h.41Z"/><path class="cls-2" d="M174.36,103.27a4.71,4.71,0,0,1,1,3,4.63,4.63,0,0,1-1,3,4.39,4.39,0,0,1-6.14,0,4.63,4.63,0,0,1-1-3,4.71,4.71,0,0,1,1-3,4.37,4.37,0,0,1,6.14,0Zm-3.08.5a1.68,1.68,0,0,0-1.41.65,3.74,3.74,0,0,0,0,3.7,1.85,1.85,0,0,0,2.82,0,3.74,3.74,0,0,0,0-3.7A1.68,1.68,0,0,0,171.28,103.77Z"/><path class="cls-2" d="M184.78,99.38v1.7l-.59,0a.65.65,0,0,0-.57.18.64.64,0,0,0-.16.43v.67h1.37v1.48h-1.37v6.43h-2.08v-6.43h-1.17v-1.48h1.15v-.51a2.68,2.68,0,0,1,.43-1.76q.45-.72,2.19-.72h.36Z"/><path class="cls-2" d="M188.18,99.38v1.93h-2.12V99.38Zm0,2.88v8h-2.12v-8Z"/><path class="cls-2" d="M194,103.81a1.45,1.45,0,0,0-1.45.9,3,3,0,0,0-.21,1.21v4.32h-2.08v-8h2v1.16a3.78,3.78,0,0,1,.77-.89,2.65,2.65,0,0,1,1.63-.48,3.08,3.08,0,0,1,2,.65,2.62,2.62,0,0,1,.79,2.15v5.37h-2.14v-4.85a2.3,2.3,0,0,0-.16-1A1.2,1.2,0,0,0,194,103.81Z"/><path class="cls-2" d="M206.62,99.46v10.78h-2v-1.1a3,3,0,0,1-1,1,2.81,2.81,0,0,1-1.42.32,3,3,0,0,1-2.36-1.13,4.31,4.31,0,0,1-1-2.9,5,5,0,0,1,.94-3.22,3,3,0,0,1,2.51-1.17,2.53,2.53,0,0,1,2.21,1.2V99.46ZM201,106.3a3.18,3.18,0,0,0,.44,1.77,1.48,1.48,0,0,0,1.32.67,1.52,1.52,0,0,0,1.34-.66,2.91,2.91,0,0,0,.47-1.71,2.61,2.61,0,0,0-.74-2.09,1.59,1.59,0,0,0-1.06-.38,1.46,1.46,0,0,0-1.34.69A3.15,3.15,0,0,0,201,106.3Z"/><path class="cls-2" d="M219.35,103.27a4.71,4.71,0,0,1,1,3,4.63,4.63,0,0,1-1,3,4.39,4.39,0,0,1-6.14,0,4.57,4.57,0,0,1-1-3,4.65,4.65,0,0,1,1-3,4.37,4.37,0,0,1,6.14,0Zm-3.08.5a1.68,1.68,0,0,0-1.41.65,3.74,3.74,0,0,0,0,3.7,1.85,1.85,0,0,0,2.82,0,3.74,3.74,0,0,0,0-3.7A1.68,1.68,0,0,0,216.27,103.77Z"/><path class="cls-2" d="M227,109.12a1.67,1.67,0,0,0-.15.22,1.39,1.39,0,0,1-.27.32,3.1,3.1,0,0,1-1,.6,3.23,3.23,0,0,1-1.08.16,2.38,2.38,0,0,1-2.38-1.27,4.88,4.88,0,0,1-.35-2.08v-4.81h2.14v4.81a2.49,2.49,0,0,0,.16,1,1.13,1.13,0,0,0,1.12.61,1.47,1.47,0,0,0,1.47-.87,3.22,3.22,0,0,0,.2-1.23v-4.35H229v8h-2Z"/><path class="cls-2" d="M234.67,108.76v1.56l-1,0a2.64,2.64,0,0,1-2-.52,1.5,1.5,0,0,1-.35-1.1v-4.92h-1.12v-1.49h1.12v-2.22h2.06v2.22h1.3v1.49h-1.3V108c0,.33,0,.53.13.61s.33.12.76.12h.41Z"/><path class="cls-2" d="M239,102.23l-.59,5h-1.09l-.61-5V99.49H239Zm-.05,5.9v2.11h-2.19v-2.11Z"/><rect class="cls-3" x="110.03" y="149.41" width="46.61" height="55.67"/><rect class="cls-4" x="19.49" y="124.6" width="24.81" height="24.81"/><rect class="cls-4" x="67.87" y="124.6" width="24.81" height="24.81"/><rect class="cls-4" x="67.87" y="165.95" width="24.81" height="24.81"/><rect class="cls-4" x="19.49" y="165.95" width="24.81" height="24.81"/><rect class="cls-4" x="172.4" y="124.6" width="24.81" height="24.81"/><rect class="cls-4" x="208.85" y="124.6" width="24.81" height="24.81"/><rect class="cls-4" x="245.29" y="124.6" width="24.81" height="24.81"/><rect class="cls-4" x="245.29" y="165.95" width="24.81" height="24.81"/><rect class="cls-4" x="208.85" y="165.95" width="24.81" height="24.81"/><rect class="cls-4" x="172.4" y="165.95" width="24.81" height="24.81"/></g></g></svg>