<svg xmlns="http://www.w3.org/2000/svg" viewBox="0 0 501.83 265.08"><defs><style>.cls-1{fill:#cfae8b;isolation:isolate;}.cls-2{fill:#985d2e;}</style></defs><g id="Layer_2" data-name="Layer 2"><g id="Layer_1-2" data-name="Layer 1"><rect class="cls-1" width="501.83" height="265.08" rx="26.12"/><path class="cls-2" d="M33.77,96.23H27.58V82.55h6.64A4.23,4.23,0,0,1,37.78,84a3.44,3.44,0,0,1,.63,2.08,3.07,3.07,0,0,1-.63,2,3.44,3.44,0,0,1-1,.78,3,3,0,0,1,1.58,1.2,3.59,3.59,0,0,1,.54,2,4,4,0,0,1-.62,2.18,3.82,3.82,0,0,1-1,1.07,3.71,3.71,0,0,1-1.55.69A9.92,9.92,0,0,1,33.77,96.23Zm1.36-8.63a1.28,1.28,0,0,0,.55-1.2,1.21,1.21,0,0,0-.74-1.26,5.33,5.33,0,0,0-1.63-.21h-3v3h3.36A2.81,2.81,0,0,0,35.13,87.6Zm-1.42,2.6H30.3v3.65h3.36a3.29,3.29,0,0,0,1.4-.24A1.72,1.72,0,0,0,36,91.9a1.45,1.45,0,0,0-.88-1.46A3.56,3.56,0,0,0,33.71,90.2Z"/><path class="cls-2" d="M49.69,93.26a3.35,3.35,0,0,1-.93,1.82,4.58,4.58,0,0,1-3.64,1.48,5.14,5.14,0,0,1-3.41-1.24,5,5,0,0,1-1.47-4,5.59,5.59,0,0,1,1.33-4A4.54,4.54,0,0,1,45,85.84a5.24,5.24,0,0,1,2.27.48A4,4,0,0,1,49,87.81a5.24,5.24,0,0,1,.77,2.09,13.56,13.56,0,0,1,.08,2H42.9a2.53,2.53,0,0,0,1,2.14,2.25,2.25,0,0,0,1.31.38A1.89,1.89,0,0,0,46.5,94a2.07,2.07,0,0,0,.49-.69Zm-2.61-3.1a2.33,2.33,0,0,0-.64-1.59A2,2,0,0,0,45,88a1.82,1.82,0,0,0-1.43.58A2.78,2.78,0,0,0,43,90.16Z"/><path class="cls-2" d="M60.35,89.74H57.64a2.25,2.25,0,0,0-.38-1,1.58,1.58,0,0,0-1.38-.61,1.82,1.82,0,0,0-1.83,1.32,5.66,5.66,0,0,0-.26,1.88,5.17,5.17,0,0,0,.26,1.79,1.77,1.77,0,0,0,1.78,1.26,1.59,1.59,0,0,0,1.32-.5,2.44,2.44,0,0,0,.47-1.3h2.7a4.35,4.35,0,0,1-.87,2.28,4.23,4.23,0,0,1-3.68,1.74,4.29,4.29,0,0,1-3.59-1.45A5.84,5.84,0,0,1,51,91.37a5.92,5.92,0,0,1,1.27-4.05,4.42,4.42,0,0,1,3.51-1.45,5.29,5.29,0,0,1,3.11.86A4,4,0,0,1,60.35,89.74Z"/><path class="cls-2" d="M62.55,87.21a4.32,4.32,0,0,1,3.6-1.34,6.38,6.38,0,0,1,2.95.66A2.53,2.53,0,0,1,70.39,89v4.64c0,.32,0,.71,0,1.16a1.44,1.44,0,0,0,.16.71.9.9,0,0,0,.39.31v.39H68.08a3.08,3.08,0,0,1-.17-.58c0-.18,0-.38-.07-.61a5.89,5.89,0,0,1-1.26,1,3.8,3.8,0,0,1-1.93.49,3.33,3.33,0,0,1-2.27-.78,2.81,2.81,0,0,1-.9-2.22,2.87,2.87,0,0,1,1.44-2.7,6.28,6.28,0,0,1,2.32-.65l.9-.12a3.78,3.78,0,0,0,1-.23.79.79,0,0,0,.57-.75.9.9,0,0,0-.44-.86A2.77,2.77,0,0,0,66.06,88a1.65,1.65,0,0,0-1.33.46,2,2,0,0,0-.37.93H61.81A3.82,3.82,0,0,1,62.55,87.21Zm2,7.1a1.34,1.34,0,0,0,.91.31,2.71,2.71,0,0,0,1.57-.5,2.13,2.13,0,0,0,.75-1.83v-1a3,3,0,0,1-.51.25,3.32,3.32,0,0,1-.7.18l-.59.12a3.92,3.92,0,0,0-1.2.36,1.2,1.2,0,0,0-.61,1.12A1.13,1.13,0,0,0,64.52,94.31Z"/><path class="cls-2" d="M79.22,94.8l-.18.28a1.72,1.72,0,0,1-.36.4,3.52,3.52,0,0,1-1.2.76,4,4,0,0,1-1.36.21,3,3,0,0,1-3-1.62,6.13,6.13,0,0,1-.44-2.62v-6.1h2.71v6.1a3.13,3.13,0,0,0,.21,1.3,1.41,1.41,0,0,0,1.42.77,1.85,1.85,0,0,0,1.85-1.1,4,4,0,0,0,.26-1.57v-5.5h2.68V96.23H79.22Z"/><path class="cls-2" d="M91.31,86.58a3.23,3.23,0,0,1,1.36,2.61H90a1.49,1.49,0,0,0-.29-.8,1.79,1.79,0,0,0-1.48-.54,2.11,2.11,0,0,0-1.23.27.77.77,0,0,0-.37.63.7.7,0,0,0,.39.66,17.77,17.77,0,0,0,2.76.73,5.05,5.05,0,0,1,2.36,1.12,2.55,2.55,0,0,1,.78,1.9,3.07,3.07,0,0,1-1.12,2.46,6.69,6.69,0,0,1-7-.06A3.26,3.26,0,0,1,83.72,93H86.4a1.84,1.84,0,0,0,.36,1,2.47,2.47,0,0,0,1.82.53,2.83,2.83,0,0,0,1.24-.23.78.78,0,0,0,.09-1.38,15.34,15.34,0,0,0-2.76-.79,5.91,5.91,0,0,1-2.42-1.07,2.32,2.32,0,0,1-.7-1.82,3.14,3.14,0,0,1,1.1-2.41,4.4,4.4,0,0,1,3.09-1A5.75,5.75,0,0,1,91.31,86.58Z"/><path class="cls-2" d="M103.57,93.26a3.31,3.31,0,0,1-.94,1.82A4.58,4.58,0,0,1,99,96.56a5.11,5.11,0,0,1-3.4-1.24,5,5,0,0,1-1.48-4,5.63,5.63,0,0,1,1.33-4,4.54,4.54,0,0,1,3.46-1.41,5.21,5.21,0,0,1,2.27.48,3.91,3.91,0,0,1,1.67,1.49,5.09,5.09,0,0,1,.77,2.09,13.29,13.29,0,0,1,.09,2H96.77a2.53,2.53,0,0,0,1,2.14,2.28,2.28,0,0,0,1.32.38,1.89,1.89,0,0,0,1.32-.47,2.24,2.24,0,0,0,.5-.69ZM101,90.16a2.28,2.28,0,0,0-.64-1.59A2,2,0,0,0,98.9,88a1.79,1.79,0,0,0-1.42.58,2.86,2.86,0,0,0-.64,1.56Z"/><path class="cls-2" d="M118.43,96.23l-1.59-7.37-1.6,7.37h-2.75l-2.84-10.12h2.84l1.58,7.26,1.45-7.26h2.69l1.54,7.29,1.57-7.29h2.76l-2.93,10.12Z"/><path class="cls-2" d="M134,87.39A6.3,6.3,0,0,1,134,95a5.58,5.58,0,0,1-7.78,0,6.3,6.3,0,0,1,0-7.61,5.53,5.53,0,0,1,7.78,0Zm-3.9.63a2.1,2.1,0,0,0-1.78.83,3.75,3.75,0,0,0-.63,2.34,3.84,3.84,0,0,0,.63,2.35,2.34,2.34,0,0,0,3.56,0,3.84,3.84,0,0,0,.62-2.35,3.75,3.75,0,0,0-.62-2.34A2.1,2.1,0,0,0,130.07,88Z"/><path class="cls-2" d="M142.82,88.9a1.3,1.3,0,0,0-1.31-.74,1.56,1.56,0,0,0-1.52.74,2.82,2.82,0,0,0-.21,1.24v6.09h-2.69V86.13h2.57v1.48a4.42,4.42,0,0,1,.93-1.13,3.21,3.21,0,0,1,2-.59,3.16,3.16,0,0,1,1.87.51,3,3,0,0,1,.87,1.22,3.38,3.38,0,0,1,1.29-1.31,3.93,3.93,0,0,1,1.82-.42,3.61,3.61,0,0,1,1.32.26,3,3,0,0,1,1.18.91,3,3,0,0,1,.57,1.3,9.24,9.24,0,0,1,.09,1.49v6.38h-2.71V89.79a2.17,2.17,0,0,0-.19-1,1.31,1.31,0,0,0-1.3-.7,1.51,1.51,0,0,0-1.51.91,2.85,2.85,0,0,0-.21,1.15v6H143v-6A3.46,3.46,0,0,0,142.82,88.9Z"/><path class="cls-2" d="M162.69,93.26a3.31,3.31,0,0,1-.94,1.82,4.55,4.55,0,0,1-3.63,1.48,5.14,5.14,0,0,1-3.41-1.24,5,5,0,0,1-1.47-4,5.59,5.59,0,0,1,1.33-4A4.54,4.54,0,0,1,158,85.84a5.29,5.29,0,0,1,2.28.48A4,4,0,0,1,162,87.81a5.24,5.24,0,0,1,.77,2.09,15.13,15.13,0,0,1,.08,2H155.9a2.53,2.53,0,0,0,.95,2.14,2.3,2.3,0,0,0,1.32.38A1.89,1.89,0,0,0,159.5,94a2.22,2.22,0,0,0,.49-.69Zm-2.62-3.1a2.28,2.28,0,0,0-.63-1.59A2,2,0,0,0,158,88a1.81,1.81,0,0,0-1.42.58,2.86,2.86,0,0,0-.64,1.56Z"/><path class="cls-2" d="M169.36,88.07a1.85,1.85,0,0,0-1.85,1.14,4,4,0,0,0-.26,1.54v5.48h-2.63V86.13h2.55v1.48a4.42,4.42,0,0,1,1-1.13,3.38,3.38,0,0,1,2.06-.61,3.94,3.94,0,0,1,2.57.82,3.37,3.37,0,0,1,1,2.73v6.81h-2.71V90.07a2.82,2.82,0,0,0-.21-1.22A1.51,1.51,0,0,0,169.36,88.07Z"/><path class="cls-2" d="M187.16,88.9a1.28,1.28,0,0,0-1.3-.74,1.57,1.57,0,0,0-1.53.74,2.82,2.82,0,0,0-.21,1.24v6.09h-2.68V86.13H184v1.48a4.42,4.42,0,0,1,.93-1.13,3.68,3.68,0,0,1,3.87-.08,3,3,0,0,1,.87,1.22A3.25,3.25,0,0,1,191,86.31a3.9,3.9,0,0,1,1.82-.42,3.56,3.56,0,0,1,1.31.26,3,3,0,0,1,1.76,2.21,9.24,9.24,0,0,1,.09,1.49l0,6.38h-2.71V89.79a2.17,2.17,0,0,0-.18-1,1.32,1.32,0,0,0-1.3-.7,1.5,1.5,0,0,0-1.51.91A2.68,2.68,0,0,0,190,90.2v6h-2.66v-6A3.23,3.23,0,0,0,187.16,88.9Z"/><path class="cls-2" d="M198.76,87.21a4.32,4.32,0,0,1,3.6-1.34,6.38,6.38,0,0,1,2.95.66A2.53,2.53,0,0,1,206.6,89v4.64c0,.32,0,.71,0,1.16a1.44,1.44,0,0,0,.16.71.9.9,0,0,0,.39.31v.39h-2.88a3.08,3.08,0,0,1-.17-.58c0-.18-.05-.38-.07-.61a5.89,5.89,0,0,1-1.26,1,3.8,3.8,0,0,1-1.93.49,3.33,3.33,0,0,1-2.27-.78,2.81,2.81,0,0,1-.9-2.22,2.87,2.87,0,0,1,1.44-2.7,6.28,6.28,0,0,1,2.32-.65l.9-.12a3.78,3.78,0,0,0,1.05-.23.79.79,0,0,0,.57-.75.9.9,0,0,0-.44-.86,2.77,2.77,0,0,0-1.26-.23,1.65,1.65,0,0,0-1.33.46,2,2,0,0,0-.37.93H198A3.82,3.82,0,0,1,198.76,87.21Zm2,7.1a1.34,1.34,0,0,0,.91.31,2.71,2.71,0,0,0,1.57-.5,2.13,2.13,0,0,0,.75-1.83v-1a3,3,0,0,1-.51.25,3.32,3.32,0,0,1-.7.18l-.59.12a3.92,3.92,0,0,0-1.2.36,1.2,1.2,0,0,0-.61,1.12A1.13,1.13,0,0,0,200.73,94.31Z"/><path class="cls-2" d="M218.22,96.23H215l-2.42-4.33L211.52,93v3.19h-2.6V82.6h2.6V90l3.29-3.8h3.28L214.55,90Z"/><path class="cls-2" d="M228.17,93.26a3.31,3.31,0,0,1-.94,1.82,4.56,4.56,0,0,1-3.63,1.48,5.12,5.12,0,0,1-3.41-1.24,5,5,0,0,1-1.47-4,5.59,5.59,0,0,1,1.33-4,4.52,4.52,0,0,1,3.45-1.41,5.29,5.29,0,0,1,2.28.48,4,4,0,0,1,1.67,1.49,5.24,5.24,0,0,1,.77,2.09,15.13,15.13,0,0,1,.08,2h-6.92a2.53,2.53,0,0,0,1,2.14,2.3,2.3,0,0,0,1.32.38A1.89,1.89,0,0,0,225,94a2.22,2.22,0,0,0,.49-.69Zm-2.62-3.1a2.28,2.28,0,0,0-.63-1.59A2,2,0,0,0,223.5,88a1.81,1.81,0,0,0-1.42.58,2.86,2.86,0,0,0-.64,1.56Z"/><path class="cls-2" d="M241.84,94.8l-.18.28a1.93,1.93,0,0,1-.35.4,3.72,3.72,0,0,1-1.2.76,4,4,0,0,1-1.36.21,3,3,0,0,1-3-1.62,6.15,6.15,0,0,1-.43-2.62v-6.1H238v6.1a3.13,3.13,0,0,0,.21,1.3,1.41,1.41,0,0,0,1.42.77,1.85,1.85,0,0,0,1.85-1.1,3.83,3.83,0,0,0,.26-1.57v-5.5h2.68V96.23h-2.57Z"/><path class="cls-2" d="M255.44,87.2A5.45,5.45,0,0,1,256.66,91a6.08,6.08,0,0,1-1.2,4.07,3.86,3.86,0,0,1-3.09,1.4,3.24,3.24,0,0,1-2-.6,4,4,0,0,1-.85-1v5.27h-2.62V86.11h2.53v1.5a4.32,4.32,0,0,1,.91-1,3.37,3.37,0,0,1,2.1-.68A4,4,0,0,1,255.44,87.2Zm-1.51,4a3.94,3.94,0,0,0-.53-2.07,1.86,1.86,0,0,0-1.73-.9,2,2,0,0,0-2,1.36,5.36,5.36,0,0,0-.28,1.84,3,3,0,0,0,.94,2.48,2.12,2.12,0,0,0,1.32.42,1.89,1.89,0,0,0,1.68-.86A3.94,3.94,0,0,0,253.93,91.17Z"/><path class="cls-2" d="M264.28,95.38a3.94,3.94,0,0,1-1.16-2.88,4.13,4.13,0,0,1,.51-2,3.29,3.29,0,0,1,1.51-1.39,3.17,3.17,0,0,1-1.27-1.4,4.09,4.09,0,0,1-.29-1.42,3.3,3.3,0,0,1,1.11-2.5,5.23,5.23,0,0,1,6.23,0,3.3,3.3,0,0,1,1.1,2.5,3.87,3.87,0,0,1-.29,1.42A2.67,2.67,0,0,1,270.47,89,3.72,3.72,0,0,1,272,90.45a4.23,4.23,0,0,1,.5,2,3.84,3.84,0,0,1-1.26,2.89,4.91,4.91,0,0,1-3.51,1.19A4.53,4.53,0,0,1,264.28,95.38Zm1.58-3.06a2.17,2.17,0,0,0,.52,1.54,1.84,1.84,0,0,0,1.42.55,1.86,1.86,0,0,0,1.43-.55,2.17,2.17,0,0,0,.51-1.54,2.12,2.12,0,0,0-.52-1.56,2.12,2.12,0,0,0-2.83,0A2.12,2.12,0,0,0,265.86,92.32Zm.7-4.58a1.91,1.91,0,0,0,2.49,0,1.69,1.69,0,0,0,.44-1.2,1.73,1.73,0,0,0-.44-1.25,1.75,1.75,0,0,0-2.49,2.45Z"/><path class="cls-2" d="M278.25,89.55a2.66,2.66,0,0,0-.84.12,1.66,1.66,0,0,0-.93.82l-2.38-.11.95-7.43h7.41v2.24H277l-.48,3a4.91,4.91,0,0,1,.95-.53,3.88,3.88,0,0,1,1.4-.22,4.21,4.21,0,0,1,2.92,1.13A4.14,4.14,0,0,1,283,91.78a5.09,5.09,0,0,1-1.2,3.33,4.33,4.33,0,0,1-3.58,1.47,4.78,4.78,0,0,1-3.15-1,4,4,0,0,1-1.38-2.92h2.64a2.57,2.57,0,0,0,.6,1.33,2,2,0,0,0,2.8-.23,2.84,2.84,0,0,0,.51-1.73,3,3,0,0,0-.48-1.74A1.67,1.67,0,0,0,278.25,89.55Z"/><path class="cls-2" d="M294.89,94.34v2l-1.25,0a3.36,3.36,0,0,1-2.56-.64,1.94,1.94,0,0,1-.45-1.41V88.09h-1.41V86.21h1.41V83.39h2.62v2.82h1.64v1.88h-1.64v5.34c0,.42.05.68.16.78a1.73,1.73,0,0,0,1,.15h.26Z"/><path class="cls-2" d="M305,87.39A6.3,6.3,0,0,1,305,95a5.57,5.57,0,0,1-7.77,0,6.3,6.3,0,0,1,0-7.61,5.52,5.52,0,0,1,7.77,0Zm-3.89.63a2.11,2.11,0,0,0-1.79.83,3.75,3.75,0,0,0-.63,2.34,3.84,3.84,0,0,0,.63,2.35,2.35,2.35,0,0,0,3.57,0,3.91,3.91,0,0,0,.62-2.35,3.81,3.81,0,0,0-.62-2.34A2.11,2.11,0,0,0,301.13,88Z"/><path class="cls-2" d="M317.18,96.62a4.42,4.42,0,0,1-2.72-.9,3.49,3.49,0,0,1-1.38-2.61h2.63a1.58,1.58,0,0,0,.5,1,1.55,1.55,0,0,0,1.09.37A1.88,1.88,0,0,0,319.13,93a8.11,8.11,0,0,0,.37-2.33,3,3,0,0,1-.77.69,3.5,3.5,0,0,1-1.83.45,4.16,4.16,0,0,1-2.85-1.11,4,4,0,0,1-1.24-3.19A5,5,0,0,1,314.05,84a4.27,4.27,0,0,1,3.25-1.34,4.2,4.2,0,0,1,4.21,2.72,10.65,10.65,0,0,1,.65,4.05,11.68,11.68,0,0,1-.62,4.08A4.36,4.36,0,0,1,317.18,96.62Zm-.93-11.37a2.4,2.4,0,0,0-.76,2,2.78,2.78,0,0,0,.49,1.8,1.8,1.8,0,0,0,1.49.6,1.84,1.84,0,0,0,1-.32,2.18,2.18,0,0,0,.9-2,2.79,2.79,0,0,0-.53-1.81,1.76,1.76,0,0,0-1.46-.67A1.84,1.84,0,0,0,316.25,85.25Z"/><path class="cls-2" d="M328,96.56a3.8,3.8,0,0,1-3.6-1.8,10.4,10.4,0,0,1-1-5.13,10.47,10.47,0,0,1,1-5.14,4.5,4.5,0,0,1,7.21,0,10.48,10.48,0,0,1,1,5.14,10.53,10.53,0,0,1-1,5.13A3.83,3.83,0,0,1,328,96.56Zm1.55-3.39a13.21,13.21,0,0,0,.36-3.54,13.21,13.21,0,0,0-.36-3.6A1.5,1.5,0,0,0,328,84.86,1.52,1.52,0,0,0,326.48,86a12.67,12.67,0,0,0-.38,3.6,12.81,12.81,0,0,0,.38,3.55A1.53,1.53,0,0,0,328,94.41,1.52,1.52,0,0,0,329.59,93.17Z"/><path class="cls-2" d="M334.82,88.73a3.45,3.45,0,0,1,4.88-4.88,3.46,3.46,0,0,1,0,4.88,3.46,3.46,0,0,1-4.89,0Zm1.4-1.4a1.4,1.4,0,0,0,1,.43,1.48,1.48,0,1,0-1-2.51,1.39,1.39,0,0,0-.43,1A1.4,1.4,0,0,0,336.22,87.33Zm2.5,9.25h-1.44l7.52-13.81h1.41ZM342.83,93a3.43,3.43,0,0,1,3.45-3.45,3.45,3.45,0,0,1,2.44,5.89A3.45,3.45,0,0,1,342.83,93Zm2.41,1a1.41,1.41,0,0,0,1,.44,1.39,1.39,0,0,0,1-.43,1.48,1.48,0,0,0,0-2.09,1.47,1.47,0,0,0-2.08,0,1.43,1.43,0,0,0-.44,1A1.4,1.4,0,0,0,345.24,94.08Z"/><path class="cls-2" d="M365.21,87.39a6.26,6.26,0,0,1,0,7.61,5.57,5.57,0,0,1-7.77,0,6.3,6.3,0,0,1,0-7.61,5.52,5.52,0,0,1,7.77,0Zm-3.89.63a2.11,2.11,0,0,0-1.79.83,3.81,3.81,0,0,0-.62,2.34,3.91,3.91,0,0,0,.62,2.35,2.35,2.35,0,0,0,3.57,0,3.91,3.91,0,0,0,.62-2.35,3.81,3.81,0,0,0-.62-2.34A2.1,2.1,0,0,0,361.32,88Z"/><path class="cls-2" d="M373.13,82.47v2.15c-.15,0-.4,0-.75,0a.86.86,0,0,0-.72.23.84.84,0,0,0-.2.54v.86h1.73v1.86h-1.73v8.16h-2.64V88.07h-1.47V86.21h1.45v-.65a3.45,3.45,0,0,1,.54-2.24c.39-.61,1.31-.91,2.78-.91l.45,0Z"/><path class="cls-2" d="M387,86.58a3.23,3.23,0,0,1,1.36,2.61h-2.64a1.49,1.49,0,0,0-.29-.8,1.79,1.79,0,0,0-1.48-.54,2.11,2.11,0,0,0-1.23.27.79.79,0,0,0-.37.63.7.7,0,0,0,.39.66,17.77,17.77,0,0,0,2.76.73,5.05,5.05,0,0,1,2.36,1.12,2.55,2.55,0,0,1,.78,1.9,3.09,3.09,0,0,1-1.11,2.46,5.29,5.29,0,0,1-3.46.95,5.21,5.21,0,0,1-3.52-1A3.26,3.26,0,0,1,379.37,93h2.68a1.84,1.84,0,0,0,.36,1,2.47,2.47,0,0,0,1.82.53,2.83,2.83,0,0,0,1.24-.23.78.78,0,0,0,.09-1.38,15.34,15.34,0,0,0-2.76-.79,5.91,5.91,0,0,1-2.42-1.07,2.32,2.32,0,0,1-.7-1.82,3.14,3.14,0,0,1,1.1-2.41,4.4,4.4,0,0,1,3.09-1A5.75,5.75,0,0,1,387,86.58Z"/><path class="cls-2" d="M398.23,96.23l-1.58-7.37L395,96.23h-2.75l-2.83-10.12h2.83l1.58,7.26,1.46-7.26H398l1.54,7.29,1.58-7.29h2.75L401,96.23Z"/><path class="cls-2" d="M414,93.26a3.31,3.31,0,0,1-.94,1.82,4.58,4.58,0,0,1-3.64,1.48,5.09,5.09,0,0,1-3.4-1.24,5,5,0,0,1-1.48-4,5.63,5.63,0,0,1,1.33-4,4.54,4.54,0,0,1,3.46-1.41,5.21,5.21,0,0,1,2.27.48,3.91,3.91,0,0,1,1.67,1.49A5.09,5.09,0,0,1,414,89.9a12.29,12.29,0,0,1,.08,2H407.2a2.53,2.53,0,0,0,1,2.14,2.26,2.26,0,0,0,1.32.38A1.89,1.89,0,0,0,410.8,94a2.07,2.07,0,0,0,.49-.69Zm-2.62-3.1a2.28,2.28,0,0,0-.64-1.59,2,2,0,0,0-1.41-.55,1.83,1.83,0,0,0-1.43.58,2.93,2.93,0,0,0-.63,1.56Z"/><path class="cls-2" d="M416.29,87.21a4.31,4.31,0,0,1,3.6-1.34,6.41,6.41,0,0,1,2.95.66A2.53,2.53,0,0,1,424.12,89v4.64c0,.32,0,.71,0,1.16a1.44,1.44,0,0,0,.16.71,1,1,0,0,0,.39.31v.39h-2.87a3.08,3.08,0,0,1-.17-.58c0-.18-.06-.38-.08-.61a5.43,5.43,0,0,1-1.26,1,3.77,3.77,0,0,1-1.93.49,3.35,3.35,0,0,1-2.27-.78,2.83,2.83,0,0,1-.89-2.22,2.87,2.87,0,0,1,1.44-2.7,6.22,6.22,0,0,1,2.32-.65l.9-.12a3.69,3.69,0,0,0,1-.23.79.79,0,0,0,.57-.75.9.9,0,0,0-.43-.86,2.82,2.82,0,0,0-1.27-.23,1.64,1.64,0,0,0-1.32.46,1.88,1.88,0,0,0-.37.93h-2.56A3.9,3.9,0,0,1,416.29,87.21Zm2,7.1a1.36,1.36,0,0,0,.91.31,2.71,2.71,0,0,0,1.57-.5,2.13,2.13,0,0,0,.75-1.83v-1a2.92,2.92,0,0,1-.5.25,3.5,3.5,0,0,1-.7.18l-.6.12a4,4,0,0,0-1.2.36,1.22,1.22,0,0,0-.61,1.12A1.15,1.15,0,0,0,418.25,94.31Z"/><path class="cls-2" d="M431.1,94.34v2l-1.25,0a3.36,3.36,0,0,1-2.56-.64,1.94,1.94,0,0,1-.45-1.41V88.09h-1.41V86.21h1.41V83.39h2.62v2.82h1.64v1.88h-1.64v5.34c0,.42.05.68.16.78a1.73,1.73,0,0,0,1,.15h.26Z"/><path class="cls-2" d="M439.77,86.58a3.25,3.25,0,0,1,1.36,2.61h-2.64a1.58,1.58,0,0,0-.29-.8,1.82,1.82,0,0,0-1.49-.54,2.09,2.09,0,0,0-1.22.27.77.77,0,0,0-.37.63.7.7,0,0,0,.39.66,17.85,17.85,0,0,0,2.75.73,5.09,5.09,0,0,1,2.37,1.12,2.55,2.55,0,0,1,.78,1.9,3.07,3.07,0,0,1-1.12,2.46,5.26,5.26,0,0,1-3.45.95,5.19,5.19,0,0,1-3.52-1A3.26,3.26,0,0,1,432.18,93h2.68a1.84,1.84,0,0,0,.36,1,2.47,2.47,0,0,0,1.82.53,2.86,2.86,0,0,0,1.24-.23.78.78,0,0,0,.09-1.38,15.34,15.34,0,0,0-2.76-.79,5.91,5.91,0,0,1-2.42-1.07,2.32,2.32,0,0,1-.71-1.82,3.17,3.17,0,0,1,1.1-2.41,4.45,4.45,0,0,1,3.1-1A5.75,5.75,0,0,1,439.77,86.58Z"/><path class="cls-2" d="M452.5,90.29v5.94h-2.7V90.07a2.74,2.74,0,0,0-.27-1.31,1.4,1.4,0,0,0-1.38-.71,1.9,1.9,0,0,0-1.59.7,3.24,3.24,0,0,0-.54,2v5.48h-2.64V82.6H446v4.83a3.22,3.22,0,0,1,1.33-1.23,3.83,3.83,0,0,1,1.59-.35,4.23,4.23,0,0,1,1.7.33,3,3,0,0,1,1.26,1,2.62,2.62,0,0,1,.51,1.17A14.66,14.66,0,0,1,452.5,90.29Z"/><path class="cls-2" d="M463.41,87.39a6.3,6.3,0,0,1,0,7.61,5.58,5.58,0,0,1-7.78,0,6.3,6.3,0,0,1,0-7.61,5.53,5.53,0,0,1,7.78,0Zm-3.9.63a2.13,2.13,0,0,0-1.79.83,3.81,3.81,0,0,0-.62,2.34,3.91,3.91,0,0,0,.62,2.35,2.12,2.12,0,0,0,1.79.82,2.09,2.09,0,0,0,1.78-.82,3.91,3.91,0,0,0,.62-2.35,3.81,3.81,0,0,0-.62-2.34A2.1,2.1,0,0,0,459.51,88Z"/><path class="cls-2" d="M475.05,87.2A5.4,5.4,0,0,1,476.27,91a6.08,6.08,0,0,1-1.2,4.07,3.86,3.86,0,0,1-3.09,1.4,3.26,3.26,0,0,1-2-.6,4,4,0,0,1-.85-1v5.27h-2.61V86.11H469v1.5a4.11,4.11,0,0,1,.91-1,3.34,3.34,0,0,1,2.09-.68A4,4,0,0,1,475.05,87.2Zm-1.5,4A3.94,3.94,0,0,0,473,89.1a1.85,1.85,0,0,0-1.73-.9,2,2,0,0,0-2,1.36A5.12,5.12,0,0,0,469,91.4a2.92,2.92,0,0,0,.94,2.48,2.12,2.12,0,0,0,1.31.42,1.92,1.92,0,0,0,1.69-.86A4,4,0,0,0,473.55,91.17Z"/><path class="cls-2" d="M59.26,119l-1.58-7.37L56.07,119H53.32l-2.83-10.12h2.83l1.58,7.26,1.46-7.26H59l1.54,7.29,1.58-7.29h2.75L62,119Z"/><path class="cls-2" d="M74.8,110.19a6.3,6.3,0,0,1,0,7.61,5.57,5.57,0,0,1-7.77,0,6.3,6.3,0,0,1,0-7.61,4.66,4.66,0,0,1,3.88-1.6A4.67,4.67,0,0,1,74.8,110.19Zm-3.9.63a2.11,2.11,0,0,0-1.78.83,3.75,3.75,0,0,0-.63,2.34,3.84,3.84,0,0,0,.63,2.35,2.35,2.35,0,0,0,3.57,0,3.91,3.91,0,0,0,.62-2.35,3.81,3.81,0,0,0-.62-2.34A2.11,2.11,0,0,0,70.9,110.82Z"/><path class="cls-2" d="M83.06,111.35a2.21,2.21,0,0,0-2.15,1,4.12,4.12,0,0,0-.3,1.8V119H78V108.91h2.52v1.77a5.47,5.47,0,0,1,1.07-1.39,2.9,2.9,0,0,1,1.93-.62h.35v2.71l-.45,0Z"/><path class="cls-2" d="M94.65,119h-3.2L89,114.7l-1.09,1.14V119h-2.6V105.4h2.6v7.36l3.29-3.8h3.28L91,112.83Z"/><path class="cls-2" d="M104.59,116.06a3.31,3.31,0,0,1-.94,1.82,4.55,4.55,0,0,1-3.63,1.48,5.14,5.14,0,0,1-3.41-1.24,5,5,0,0,1-1.47-4.05,5.59,5.59,0,0,1,1.33-4,4.54,4.54,0,0,1,3.45-1.41,5.26,5.26,0,0,1,2.28.48,4,4,0,0,1,1.67,1.49,5.24,5.24,0,0,1,.77,2.09,15.13,15.13,0,0,1,.08,2H97.8a2.53,2.53,0,0,0,1,2.14,2.25,2.25,0,0,0,1.31.38,1.89,1.89,0,0,0,1.33-.47,2.22,2.22,0,0,0,.49-.69ZM102,113a2.28,2.28,0,0,0-.63-1.59,2,2,0,0,0-1.42-.55,1.81,1.81,0,0,0-1.42.58,2.86,2.86,0,0,0-.64,1.56Z"/><path class="cls-2" d="M111.59,111.35a2.21,2.21,0,0,0-2.15,1,4.12,4.12,0,0,0-.3,1.8V119h-2.67V108.91H109v1.77a5.73,5.73,0,0,1,1.06-1.39,2.94,2.94,0,0,1,1.93-.62h.36v2.71l-.45,0Z"/><path class="cls-2" d="M120.86,109.38a3.26,3.26,0,0,1,1.37,2.61h-2.65a1.49,1.49,0,0,0-.28-.8,1.83,1.83,0,0,0-1.49-.54,2.15,2.15,0,0,0-1.23.27.78.78,0,0,0-.36.63.71.71,0,0,0,.38.66,17.77,17.77,0,0,0,2.76.73,5.14,5.14,0,0,1,2.37,1.12,2.55,2.55,0,0,1,.78,1.9,3.1,3.1,0,0,1-1.12,2.46,5.29,5.29,0,0,1-3.46,1,5.21,5.21,0,0,1-3.52-1,3.26,3.26,0,0,1-1.14-2.56H116a1.69,1.69,0,0,0,.36,1,2.44,2.44,0,0,0,1.82.53,2.78,2.78,0,0,0,1.23-.23.78.78,0,0,0,.09-1.38,15.62,15.62,0,0,0-2.75-.8,5.73,5.73,0,0,1-2.42-1.06,2.32,2.32,0,0,1-.71-1.82,3.17,3.17,0,0,1,1.1-2.41,4.4,4.4,0,0,1,3.09-1A5.7,5.7,0,0,1,120.86,109.38Z"/><path class="cls-2" d="M127,120a2.57,2.57,0,0,1-.62,1.19,3.17,3.17,0,0,1-1.15.81,3,3,0,0,1-.92.27v-1a2,2,0,0,0,1.18-.74,2.74,2.74,0,0,0,.43-1.45h-1.61v-2.77h2.86v2.39A5.2,5.2,0,0,1,127,120Z"/><path class="cls-2" d="M142,109.38a3.25,3.25,0,0,1,1.36,2.61h-2.64a1.58,1.58,0,0,0-.29-.8,1.81,1.81,0,0,0-1.48-.54,2.11,2.11,0,0,0-1.23.27.77.77,0,0,0-.37.63.7.7,0,0,0,.39.66,17.85,17.85,0,0,0,2.75.73,5.09,5.09,0,0,1,2.37,1.12,2.55,2.55,0,0,1,.78,1.9,3.07,3.07,0,0,1-1.12,2.46,5.26,5.26,0,0,1-3.45,1,5.19,5.19,0,0,1-3.52-1,3.26,3.26,0,0,1-1.14-2.56h2.68a1.84,1.84,0,0,0,.36,1,2.47,2.47,0,0,0,1.82.53,2.86,2.86,0,0,0,1.24-.23.75.75,0,0,0,.46-.7.77.77,0,0,0-.37-.68,15.88,15.88,0,0,0-2.76-.8,5.79,5.79,0,0,1-2.42-1.06,2.32,2.32,0,0,1-.71-1.82,3.17,3.17,0,0,1,1.1-2.41,4.45,4.45,0,0,1,3.1-1A5.75,5.75,0,0,1,142,109.38Z"/><path class="cls-2" d="M154,110.19a6.3,6.3,0,0,1,0,7.61,5.57,5.57,0,0,1-7.77,0,6.3,6.3,0,0,1,0-7.61,5.52,5.52,0,0,1,7.77,0Zm-3.9.63a2.11,2.11,0,0,0-1.78.83,3.75,3.75,0,0,0-.63,2.34,3.84,3.84,0,0,0,.63,2.35,2.35,2.35,0,0,0,3.57,0,3.91,3.91,0,0,0,.62-2.35,3.81,3.81,0,0,0-.62-2.34A2.11,2.11,0,0,0,150.12,110.82Z"/><path class="cls-2" d="M162.87,111.7a1.3,1.3,0,0,0-1.31-.74,1.56,1.56,0,0,0-1.52.74,2.82,2.82,0,0,0-.21,1.24V119h-2.68v-10.1h2.57v1.48a4.22,4.22,0,0,1,.92-1.13,3.23,3.23,0,0,1,2-.59,3.14,3.14,0,0,1,1.87.51,3,3,0,0,1,.88,1.22,3.3,3.3,0,0,1,1.28-1.31,4,4,0,0,1,1.82-.42,3.57,3.57,0,0,1,1.32.26,2.94,2.94,0,0,1,1.75,2.21,8,8,0,0,1,.1,1.49l0,6.38h-2.71v-6.44a2,2,0,0,0-.19-1,1.3,1.3,0,0,0-1.3-.7,1.52,1.52,0,0,0-1.51.9,2.93,2.93,0,0,0-.21,1.16v6h-2.66v-6A3.38,3.38,0,0,0,162.87,111.7Z"/><path class="cls-2" d="M182.74,116.06a3.35,3.35,0,0,1-.93,1.82,4.58,4.58,0,0,1-3.64,1.48,5.14,5.14,0,0,1-3.41-1.24,5,5,0,0,1-1.47-4.05,5.59,5.59,0,0,1,1.33-4,4.54,4.54,0,0,1,3.46-1.41,5.21,5.21,0,0,1,2.27.48,4,4,0,0,1,1.67,1.49,5.24,5.24,0,0,1,.77,2.09,12.29,12.29,0,0,1,.08,2H176a2.53,2.53,0,0,0,1,2.14,2.26,2.26,0,0,0,1.32.38,1.89,1.89,0,0,0,1.32-.47,2.07,2.07,0,0,0,.49-.69Zm-2.61-3.1a2.33,2.33,0,0,0-.64-1.59,2,2,0,0,0-1.41-.55,1.82,1.82,0,0,0-1.43.58A2.85,2.85,0,0,0,176,113Z"/><path class="cls-2" d="M198.59,116.06a3.31,3.31,0,0,1-.94,1.82,4.56,4.56,0,0,1-3.63,1.48,5.12,5.12,0,0,1-3.41-1.24,5,5,0,0,1-1.47-4.05,5.59,5.59,0,0,1,1.33-4,4.52,4.52,0,0,1,3.45-1.41,5.29,5.29,0,0,1,2.28.48,4,4,0,0,1,1.67,1.49,5.24,5.24,0,0,1,.77,2.09,15.13,15.13,0,0,1,.08,2H191.8a2.5,2.5,0,0,0,.95,2.14,2.3,2.3,0,0,0,1.32.38,1.91,1.91,0,0,0,1.33-.47,2.22,2.22,0,0,0,.49-.69ZM196,113a2.28,2.28,0,0,0-.63-1.59,2,2,0,0,0-1.42-.55,1.81,1.81,0,0,0-1.42.58,2.86,2.86,0,0,0-.64,1.56Z"/><path class="cls-2" d="M206.18,111.7a1.31,1.31,0,0,0-1.31-.74,1.56,1.56,0,0,0-1.52.74,2.8,2.8,0,0,0-.22,1.24V119h-2.68v-10.1H203v1.48a4.42,4.42,0,0,1,.93-1.13,3.21,3.21,0,0,1,2-.59,3.16,3.16,0,0,1,1.87.51,3,3,0,0,1,.87,1.22,3.38,3.38,0,0,1,1.29-1.31,3.93,3.93,0,0,1,1.82-.42,3.61,3.61,0,0,1,1.32.26,3,3,0,0,1,1.18.91,3,3,0,0,1,.57,1.3,9.24,9.24,0,0,1,.09,1.49l0,6.38h-2.7v-6.44a2.17,2.17,0,0,0-.19-1,1.32,1.32,0,0,0-1.3-.7,1.52,1.52,0,0,0-1.51.9A2.93,2.93,0,0,0,209,113v6h-2.67v-6A3.42,3.42,0,0,0,206.18,111.7Z"/><path class="cls-2" d="M225.86,110a5.4,5.4,0,0,1,1.23,3.84,6.08,6.08,0,0,1-1.2,4.07,3.87,3.87,0,0,1-3.1,1.4,3.23,3.23,0,0,1-2-.6,3.78,3.78,0,0,1-.85-1V123h-2.62v-14.1h2.53v1.5a4.32,4.32,0,0,1,.91-1,3.37,3.37,0,0,1,2.1-.68A4,4,0,0,1,225.86,110Zm-1.5,4a4,4,0,0,0-.53-2.07,1.86,1.86,0,0,0-1.73-.9,2,2,0,0,0-2,1.36,5.36,5.36,0,0,0-.28,1.84,3,3,0,0,0,.94,2.48,2.12,2.12,0,0,0,1.32.42,1.92,1.92,0,0,0,1.68-.86A3.94,3.94,0,0,0,224.36,114Z"/><path class="cls-2" d="M229.06,105.35h2.64V119h-2.64Z"/><path class="cls-2" d="M242.71,110.19a6.3,6.3,0,0,1,0,7.61,5.57,5.57,0,0,1-7.77,0,6.3,6.3,0,0,1,0-7.61,5.52,5.52,0,0,1,7.77,0Zm-3.89.63a2.11,2.11,0,0,0-1.79.83,3.75,3.75,0,0,0-.63,2.34,3.84,3.84,0,0,0,.63,2.35,2.35,2.35,0,0,0,3.57,0,3.91,3.91,0,0,0,.62-2.35,3.81,3.81,0,0,0-.62-2.34A2.11,2.11,0,0,0,238.82,110.82Z"/><path class="cls-2" d="M250,116.37l2.09-7.46h2.81l-3.47,10a13.88,13.88,0,0,1-1.58,3.57,3,3,0,0,1-2.34.69h-.57l-.64,0V121l.34,0a3.62,3.62,0,0,0,.74,0,1.48,1.48,0,0,0,.59-.22,1.31,1.31,0,0,0,.43-.66,1.38,1.38,0,0,0,.17-.61l-3.71-10.56h2.94Z"/><path class="cls-2" d="M265.11,116.06a3.31,3.31,0,0,1-.94,1.82,4.58,4.58,0,0,1-3.64,1.48,5.11,5.11,0,0,1-3.4-1.24,5,5,0,0,1-1.48-4.05,5.59,5.59,0,0,1,1.34-4,4.51,4.51,0,0,1,3.45-1.41,5.21,5.21,0,0,1,2.27.48,3.91,3.91,0,0,1,1.67,1.49,5,5,0,0,1,.77,2.09,13.29,13.29,0,0,1,.09,2h-6.92a2.5,2.5,0,0,0,.95,2.14,2.3,2.3,0,0,0,1.32.38,1.91,1.91,0,0,0,1.33-.47,2.22,2.22,0,0,0,.49-.69Zm-2.62-3.1a2.28,2.28,0,0,0-.63-1.59,2,2,0,0,0-1.42-.55,1.79,1.79,0,0,0-1.42.58,2.86,2.86,0,0,0-.64,1.56Z"/><path class="cls-2" d="M272.1,111.35a2.19,2.19,0,0,0-2.14,1,4.1,4.1,0,0,0-.31,1.8V119H267V108.91h2.52v1.77a5.71,5.71,0,0,1,1.07-1.39,2.94,2.94,0,0,1,1.93-.62h.35v2.71l-.44,0Z"/><path class="cls-2" d="M281.38,109.38a3.23,3.23,0,0,1,1.36,2.61H280.1a1.49,1.49,0,0,0-.29-.8,1.79,1.79,0,0,0-1.48-.54,2.11,2.11,0,0,0-1.23.27.77.77,0,0,0-.37.63.7.7,0,0,0,.39.66,17.77,17.77,0,0,0,2.76.73,5.05,5.05,0,0,1,2.36,1.12A2.55,2.55,0,0,1,283,116a3.07,3.07,0,0,1-1.12,2.46,6.69,6.69,0,0,1-7-.06,3.26,3.26,0,0,1-1.14-2.56h2.68a1.84,1.84,0,0,0,.36,1,2.47,2.47,0,0,0,1.82.53,2.86,2.86,0,0,0,1.24-.23.78.78,0,0,0,.09-1.38,15.88,15.88,0,0,0-2.76-.8,5.79,5.79,0,0,1-2.42-1.06,2.32,2.32,0,0,1-.7-1.82,3.14,3.14,0,0,1,1.1-2.41,4.4,4.4,0,0,1,3.09-1A5.75,5.75,0,0,1,281.38,109.38Z"/><path class="cls-2" d="M295,105.27v2.15c-.15,0-.4,0-.75,0a.86.86,0,0,0-.72.23.84.84,0,0,0-.2.54V109h1.73v1.86h-1.73V119h-2.64v-8.16h-1.47V109h1.45v-.65a3.45,3.45,0,0,1,.54-2.24c.39-.61,1.31-.91,2.78-.91l.45,0Z"/><path class="cls-2" d="M305,110.19a6.3,6.3,0,0,1,0,7.61,5.58,5.58,0,0,1-7.78,0,6.3,6.3,0,0,1,0-7.61,5.53,5.53,0,0,1,7.78,0Zm-3.9.63a2.1,2.1,0,0,0-1.78.83,3.75,3.75,0,0,0-.63,2.34,3.84,3.84,0,0,0,.63,2.35,2.34,2.34,0,0,0,3.56,0,3.84,3.84,0,0,0,.63-2.35,3.75,3.75,0,0,0-.63-2.34A2.08,2.08,0,0,0,301.12,110.82Z"/><path class="cls-2" d="M313.28,111.35a2.21,2.21,0,0,0-2.15,1,4.12,4.12,0,0,0-.3,1.8V119h-2.67V108.91h2.53v1.77a5.73,5.73,0,0,1,1.06-1.39,2.94,2.94,0,0,1,1.93-.62H314v2.71l-.45,0Z"/><path class="cls-2" d="M324.33,112.54h-2.71a2.24,2.24,0,0,0-.37-1,1.6,1.6,0,0,0-1.39-.61,1.81,1.81,0,0,0-1.82,1.32,5.41,5.41,0,0,0-.26,1.88,5,5,0,0,0,.26,1.79,1.75,1.75,0,0,0,1.78,1.26,1.58,1.58,0,0,0,1.31-.5,2.53,2.53,0,0,0,.48-1.3h2.7a4.45,4.45,0,0,1-.88,2.28,4.21,4.21,0,0,1-3.68,1.74,4.29,4.29,0,0,1-3.59-1.45,5.84,5.84,0,0,1-1.15-3.76,5.92,5.92,0,0,1,1.27-4,4.42,4.42,0,0,1,3.51-1.45,5.27,5.27,0,0,1,3.11.86A3.91,3.91,0,0,1,324.33,112.54Z"/><path class="cls-2" d="M334.81,116.06a3.31,3.31,0,0,1-.94,1.82,4.58,4.58,0,0,1-3.64,1.48,5.11,5.11,0,0,1-3.4-1.24,5,5,0,0,1-1.48-4.05,5.59,5.59,0,0,1,1.34-4,4.52,4.52,0,0,1,3.45-1.41,5.21,5.21,0,0,1,2.27.48,3.85,3.85,0,0,1,1.67,1.49,5,5,0,0,1,.77,2.09,13.29,13.29,0,0,1,.09,2H328a2.5,2.5,0,0,0,1,2.14,2.3,2.3,0,0,0,1.32.38,1.91,1.91,0,0,0,1.33-.47,2.22,2.22,0,0,0,.49-.69Zm-2.62-3.1a2.28,2.28,0,0,0-.63-1.59,2,2,0,0,0-1.42-.55,1.79,1.79,0,0,0-1.42.58,2.86,2.86,0,0,0-.64,1.56Z"/><path class="cls-2" d="M346.63,117.14v2l-1.26,0a3.38,3.38,0,0,1-2.56-.64,2,2,0,0,1-.44-1.41v-6.22H341V109h1.41v-2.82H345V109h1.64v1.88H345v5.34a1.26,1.26,0,0,0,.15.78,1.8,1.8,0,0,0,1,.15h.25Z"/><path class="cls-2" d="M357.46,113.09V119h-2.7v-6.16a2.74,2.74,0,0,0-.27-1.31,1.41,1.41,0,0,0-1.38-.71,1.9,1.9,0,0,0-1.59.7,3.24,3.24,0,0,0-.54,2V119h-2.64V105.4H351v4.83a3.22,3.22,0,0,1,1.33-1.23,3.76,3.76,0,0,1,1.59-.35,4.23,4.23,0,0,1,1.7.33,3,3,0,0,1,1.26,1,2.64,2.64,0,0,1,.51,1.16A14.94,14.94,0,0,1,357.46,113.09Z"/><path class="cls-2" d="M368.59,116.06a3.31,3.31,0,0,1-.94,1.82,4.58,4.58,0,0,1-3.64,1.48,5.11,5.11,0,0,1-3.4-1.24,5,5,0,0,1-1.48-4.05,5.63,5.63,0,0,1,1.33-4,4.54,4.54,0,0,1,3.46-1.41,5.21,5.21,0,0,1,2.27.48,3.91,3.91,0,0,1,1.67,1.49,5,5,0,0,1,.77,2.09,13.29,13.29,0,0,1,.09,2H361.8a2.5,2.5,0,0,0,.95,2.14,2.3,2.3,0,0,0,1.32.38,1.91,1.91,0,0,0,1.33-.47,2.22,2.22,0,0,0,.49-.69ZM366,113a2.24,2.24,0,0,0-.64-1.59,2,2,0,0,0-1.41-.55,1.79,1.79,0,0,0-1.42.58,2.86,2.86,0,0,0-.64,1.56Z"/><path class="cls-2" d="M376.18,111.7a1.31,1.31,0,0,0-1.31-.74,1.56,1.56,0,0,0-1.52.74,2.67,2.67,0,0,0-.22,1.24V119h-2.68v-10.1H373v1.48a4.42,4.42,0,0,1,.93-1.13,3.2,3.2,0,0,1,2-.59,3.17,3.17,0,0,1,1.88.51,3,3,0,0,1,.87,1.22,3.38,3.38,0,0,1,1.29-1.31,3.9,3.9,0,0,1,1.82-.42,3.65,3.65,0,0,1,1.32.26,2.92,2.92,0,0,1,1.17.91,2.87,2.87,0,0,1,.58,1.3,9.24,9.24,0,0,1,.09,1.49l0,6.38h-2.71v-6.44a2.17,2.17,0,0,0-.18-1,1.32,1.32,0,0,0-1.3-.7,1.52,1.52,0,0,0-1.51.9A2.76,2.76,0,0,0,379,113v6h-2.66v-6A3.42,3.42,0,0,0,376.18,111.7Z"/><path class="cls-2" d="M397.3,117.14v2l-1.25,0a3.36,3.36,0,0,1-2.56-.64,1.94,1.94,0,0,1-.45-1.41v-6.22h-1.41V109H393v-2.82h2.62V109h1.64v1.88h-1.64v5.34c0,.42,0,.68.16.78a1.73,1.73,0,0,0,1,.15H397Z"/><path class="cls-2" d="M407.43,110.19a6.3,6.3,0,0,1,0,7.61,5.57,5.57,0,0,1-7.77,0,6.3,6.3,0,0,1,0-7.61,5.52,5.52,0,0,1,7.77,0Zm-3.9.63a2.11,2.11,0,0,0-1.78.83,3.75,3.75,0,0,0-.63,2.34,3.84,3.84,0,0,0,.63,2.35,2.35,2.35,0,0,0,3.57,0,3.91,3.91,0,0,0,.62-2.35,3.81,3.81,0,0,0-.62-2.34A2.11,2.11,0,0,0,403.53,110.82Z"/><path class="cls-2" d="M420.51,117.14v2l-1.25,0a3.36,3.36,0,0,1-2.56-.64,1.94,1.94,0,0,1-.45-1.41v-6.22h-1.41V109h1.41v-2.82h2.62V109h1.64v1.88h-1.64v5.34c0,.42.05.68.16.78a1.73,1.73,0,0,0,1,.15h.26Z"/><path class="cls-2" d="M422.59,110a4.32,4.32,0,0,1,3.6-1.34,6.38,6.38,0,0,1,2.95.66,2.53,2.53,0,0,1,1.29,2.49v4.64c0,.32,0,.71,0,1.16a1.44,1.44,0,0,0,.16.71.9.9,0,0,0,.39.31V119h-2.88a3.08,3.08,0,0,1-.17-.58c0-.18-.05-.38-.07-.61a5.89,5.89,0,0,1-1.26,1,3.77,3.77,0,0,1-1.93.49,3.33,3.33,0,0,1-2.27-.78,2.81,2.81,0,0,1-.9-2.22,2.87,2.87,0,0,1,1.44-2.7,6.28,6.28,0,0,1,2.32-.65l.9-.12a3.78,3.78,0,0,0,1.05-.23.78.78,0,0,0,.56-.75.9.9,0,0,0-.43-.86,2.77,2.77,0,0,0-1.26-.23,1.65,1.65,0,0,0-1.33.46,2,2,0,0,0-.37.93h-2.55A3.82,3.82,0,0,1,422.59,110Zm2,7.1a1.34,1.34,0,0,0,.91.31,2.71,2.71,0,0,0,1.57-.5,2.13,2.13,0,0,0,.75-1.83v-1a3,3,0,0,1-.51.25,3.32,3.32,0,0,1-.7.18l-.59.12a3.92,3.92,0,0,0-1.2.36,1.2,1.2,0,0,0-.61,1.12A1.13,1.13,0,0,0,424.56,117.11Z"/><path class="cls-2" d="M442.05,119h-3.19l-2.42-4.33-1.09,1.14V119h-2.6V105.4h2.6v7.36l3.29-3.8h3.27l-3.53,3.87Z"/><path class="cls-2" d="M452,116.06a3.31,3.31,0,0,1-.94,1.82,4.56,4.56,0,0,1-3.63,1.48,5.12,5.12,0,0,1-3.41-1.24,5,5,0,0,1-1.48-4.05,5.59,5.59,0,0,1,1.34-4,4.52,4.52,0,0,1,3.45-1.41,5.29,5.29,0,0,1,2.28.48,4,4,0,0,1,1.67,1.49,5.08,5.08,0,0,1,.76,2.09,13.29,13.29,0,0,1,.09,2h-6.92a2.53,2.53,0,0,0,1,2.14,2.3,2.3,0,0,0,1.32.38,1.89,1.89,0,0,0,1.33-.47,2.22,2.22,0,0,0,.49-.69Zm-2.62-3.1a2.28,2.28,0,0,0-.63-1.59,2,2,0,0,0-1.42-.55,1.81,1.81,0,0,0-1.42.58,2.86,2.86,0,0,0-.64,1.56Z"/><path class="cls-2" d="M33.39,142.1a3.58,3.58,0,0,1-2-.51,3.91,3.91,0,0,1-1-1v1.27H27.8V128.17h2.64V133a3.87,3.87,0,0,1,1.1-1.08,3.36,3.36,0,0,1,1.82-.46,3.74,3.74,0,0,1,3.12,1.44,5.84,5.84,0,0,1,1.13,3.71,6.57,6.57,0,0,1-1.11,3.91A3.63,3.63,0,0,1,33.39,142.1Zm1.44-5.18a5,5,0,0,0-.27-1.78,2,2,0,0,0-2-1.34,2,2,0,0,0-2,1.31,5,5,0,0,0-.28,1.8,3.71,3.71,0,0,0,.58,2.15,2,2,0,0,0,1.75.85,1.82,1.82,0,0,0,1.59-.82A3.74,3.74,0,0,0,34.83,136.92Z"/><path class="cls-2" d="M42.22,128.07v2.44H39.54v-2.44Zm0,3.64v10.12H39.54V131.71Z"/><path class="cls-2" d="M49.86,134.15a2.2,2.2,0,0,0-2.14,1,4.1,4.1,0,0,0-.31,1.8v4.84H44.75V131.71h2.53v1.77a5.49,5.49,0,0,1,1.06-1.39,2.94,2.94,0,0,1,1.93-.62h.35v2.71l-.44,0Z"/><path class="cls-2" d="M56.8,139.94v2l-1.25.05a3.4,3.4,0,0,1-2.56-.65,1.94,1.94,0,0,1-.45-1.41v-6.22H51.13v-1.88h1.41V129h2.62v2.82H56.8v1.88H55.16V139c0,.42.05.68.16.78a1.75,1.75,0,0,0,1,.15h.26Z"/><path class="cls-2" d="M67.64,135.89v5.94h-2.7v-6.15a2.64,2.64,0,0,0-.28-1.32,1.4,1.4,0,0,0-1.37-.71,1.9,1.9,0,0,0-1.59.7,3.24,3.24,0,0,0-.55,2v5.48H58.52V128.2h2.63V133a3.24,3.24,0,0,1,1.34-1.23,3.76,3.76,0,0,1,1.59-.35,4.26,4.26,0,0,1,1.7.33,3.06,3.06,0,0,1,1.26,1,2.87,2.87,0,0,1,.51,1.17A14.66,14.66,0,0,1,67.64,135.89Z"/><path class="cls-2" d="M84.13,135.34h-2.7a2.27,2.27,0,0,0-.39-1,1.57,1.57,0,0,0-1.38-.61A1.82,1.82,0,0,0,77.83,135a5.73,5.73,0,0,0-.25,1.88,5.2,5.2,0,0,0,.25,1.79A1.77,1.77,0,0,0,79.62,140a1.58,1.58,0,0,0,1.31-.5,2.53,2.53,0,0,0,.48-1.3h2.7a4.45,4.45,0,0,1-.88,2.28,4.21,4.21,0,0,1-3.68,1.74A4.29,4.29,0,0,1,76,140.73,5.84,5.84,0,0,1,74.81,137a5.92,5.92,0,0,1,1.27-4.05,4.42,4.42,0,0,1,3.51-1.45,5.27,5.27,0,0,1,3.11.86A3.92,3.92,0,0,1,84.13,135.34Z"/><path class="cls-2" d="M94.39,133a6.3,6.3,0,0,1,0,7.61,5.58,5.58,0,0,1-7.78,0,6.3,6.3,0,0,1,0-7.61,5.53,5.53,0,0,1,7.78,0Zm-3.9.63a2.13,2.13,0,0,0-1.79.83,3.81,3.81,0,0,0-.62,2.34,3.89,3.89,0,0,0,.62,2.35,2.12,2.12,0,0,0,1.79.82,2.09,2.09,0,0,0,1.78-.82,3.89,3.89,0,0,0,.62-2.35,3.81,3.81,0,0,0-.62-2.34A2.1,2.1,0,0,0,90.49,133.62Z"/><path class="cls-2" d="M102.32,133.67a1.85,1.85,0,0,0-1.85,1.14,4,4,0,0,0-.26,1.54v5.48H97.58v-10.1h2.55v1.48a4.62,4.62,0,0,1,1-1.13,3.43,3.43,0,0,1,2.07-.61,4,4,0,0,1,2.57.82,3.37,3.37,0,0,1,1,2.73v6.81H104v-6.15a2.82,2.82,0,0,0-.22-1.23A1.49,1.49,0,0,0,102.32,133.67Z"/><path class="cls-2" d="M113.79,139.94v2l-1.25.05a3.4,3.4,0,0,1-2.56-.65,1.94,1.94,0,0,1-.44-1.41v-6.22h-1.41v-1.88h1.41V129h2.61v2.82h1.64v1.88h-1.64V139c0,.42,0,.68.16.78a1.75,1.75,0,0,0,1,.15h.26Z"/><path class="cls-2" d="M120.58,134.15a2.21,2.21,0,0,0-2.15,1,4.12,4.12,0,0,0-.3,1.8v4.84h-2.67V131.71H118v1.77a5.73,5.73,0,0,1,1.06-1.39,2.94,2.94,0,0,1,1.93-.62h.36v2.71l-.45,0Z"/><path class="cls-2" d="M131.32,133a6.3,6.3,0,0,1,0,7.61,5.58,5.58,0,0,1-7.78,0,6.3,6.3,0,0,1,0-7.61,5.53,5.53,0,0,1,7.78,0Zm-3.9.63a2.1,2.1,0,0,0-1.78.83,3.75,3.75,0,0,0-.63,2.34,3.82,3.82,0,0,0,.63,2.35,2.34,2.34,0,0,0,3.56,0,3.82,3.82,0,0,0,.63-2.35,3.75,3.75,0,0,0-.63-2.34A2.08,2.08,0,0,0,127.42,133.62Z"/><path class="cls-2" d="M134.55,128.15h2.64v13.68h-2.64Z"/><path class="cls-2" d="M145.43,132.81a4.32,4.32,0,0,1,3.6-1.34,6.38,6.38,0,0,1,2.95.66,2.53,2.53,0,0,1,1.29,2.49v4.64c0,.32,0,.71,0,1.17a1.43,1.43,0,0,0,.16.7.92.92,0,0,0,.38.31v.39H151a3.08,3.08,0,0,1-.17-.58c0-.18,0-.38-.07-.61a5.89,5.89,0,0,1-1.26,1,3.8,3.8,0,0,1-1.93.49,3.31,3.31,0,0,1-2.27-.78,2.81,2.81,0,0,1-.9-2.22,2.87,2.87,0,0,1,1.44-2.7,6.28,6.28,0,0,1,2.32-.65l.9-.11a4.09,4.09,0,0,0,1-.24.78.78,0,0,0,.56-.75.9.9,0,0,0-.43-.86,2.8,2.8,0,0,0-1.26-.23,1.65,1.65,0,0,0-1.33.46,1.88,1.88,0,0,0-.37.93h-2.55A3.82,3.82,0,0,1,145.43,132.81Zm2,7.1a1.34,1.34,0,0,0,.91.31,2.73,2.73,0,0,0,1.57-.5,2.1,2.1,0,0,0,.74-1.83v-1a2.6,2.6,0,0,1-.5.25,4,4,0,0,1-.7.19l-.59.11a3.92,3.92,0,0,0-1.2.36,1.2,1.2,0,0,0-.61,1.12A1.13,1.13,0,0,0,147.4,139.91Z"/><path class="cls-2" d="M160.38,133.67a1.84,1.84,0,0,0-1.85,1.14,4,4,0,0,0-.26,1.54v5.48h-2.64v-10.1h2.56v1.48a4.62,4.62,0,0,1,1-1.13,3.39,3.39,0,0,1,2.07-.61,3.93,3.93,0,0,1,2.56.82,3.34,3.34,0,0,1,1,2.73v6.81h-2.71v-6.15a2.83,2.83,0,0,0-.21-1.23A1.5,1.5,0,0,0,160.38,133.67Z"/><path class="cls-2" d="M176.43,128.17v13.66h-2.57v-1.4a3.73,3.73,0,0,1-1.29,1.3,3.58,3.58,0,0,1-1.8.41,3.78,3.78,0,0,1-3-1.43,5.55,5.55,0,0,1-1.21-3.68,6.34,6.34,0,0,1,1.19-4.07,3.89,3.89,0,0,1,3.19-1.49,3.23,3.23,0,0,1,1.63.41,3.17,3.17,0,0,1,1.16,1.11v-4.82Zm-7.13,8.66a4,4,0,0,0,.56,2.24,1.85,1.85,0,0,0,1.67.84,1.94,1.94,0,0,0,1.7-.83,3.7,3.7,0,0,0,.59-2.16,3.28,3.28,0,0,0-.94-2.65,2,2,0,0,0-1.33-.49,1.85,1.85,0,0,0-1.71.88A4.06,4.06,0,0,0,169.3,136.83Z"/><path class="cls-2" d="M189.19,134.15a2.19,2.19,0,0,0-2.14,1,4,4,0,0,0-.31,1.8v4.84h-2.66V131.71h2.52v1.77a5.71,5.71,0,0,1,1.07-1.39,2.92,2.92,0,0,1,1.93-.62H190v2.71l-.44,0Z"/><path class="cls-2" d="M199.93,133a6.3,6.3,0,0,1,0,7.61,5.57,5.57,0,0,1-7.77,0,6.3,6.3,0,0,1,0-7.61,5.52,5.52,0,0,1,7.77,0Zm-3.89.63a2.11,2.11,0,0,0-1.79.83,3.75,3.75,0,0,0-.62,2.34,3.82,3.82,0,0,0,.62,2.35,2.35,2.35,0,0,0,3.57,0,3.89,3.89,0,0,0,.62-2.35,3.81,3.81,0,0,0-.62-2.34A2.11,2.11,0,0,0,196,133.62Z"/><path class="cls-2" d="M209.59,140.4a2.88,2.88,0,0,0-.18.28,1.72,1.72,0,0,1-.36.4,3.52,3.52,0,0,1-1.2.76,4,4,0,0,1-1.36.21,3,3,0,0,1-3-1.62,6.13,6.13,0,0,1-.44-2.62v-6.1h2.71v6.1a3.13,3.13,0,0,0,.21,1.3,1.41,1.41,0,0,0,1.42.77,1.85,1.85,0,0,0,1.85-1.1,4,4,0,0,0,.26-1.56v-5.51h2.68v10.12h-2.57Z"/><path class="cls-2" d="M219.34,139.94v2l-1.25.05a3.4,3.4,0,0,1-2.56-.65,1.94,1.94,0,0,1-.45-1.41v-6.22h-1.41v-1.88h1.41V129h2.62v2.82h1.64v1.88H217.7V139c0,.42.05.68.16.78a1.73,1.73,0,0,0,1,.15h.26Z"/><path class="cls-2" d="M223.76,128.07v2.44h-2.68v-2.44Zm0,3.64v10.12h-2.68V131.71Z"/><path class="cls-2" d="M231.08,133.67a1.85,1.85,0,0,0-1.85,1.14,4,4,0,0,0-.26,1.54v5.48h-2.63v-10.1h2.55v1.48a4.62,4.62,0,0,1,1-1.13,3.43,3.43,0,0,1,2.07-.61,4,4,0,0,1,2.57.82,3.37,3.37,0,0,1,1,2.73v6.81h-2.7v-6.15a2.82,2.82,0,0,0-.22-1.23A1.49,1.49,0,0,0,231.08,133.67Z"/><path class="cls-2" d="M246.58,138.86a3.36,3.36,0,0,1-.94,1.83,4.57,4.57,0,0,1-3.63,1.47,5.14,5.14,0,0,1-3.41-1.24,5,5,0,0,1-1.47-4,5.59,5.59,0,0,1,1.33-4,4.54,4.54,0,0,1,3.45-1.41,5.29,5.29,0,0,1,2.28.48,4,4,0,0,1,1.67,1.49,5.24,5.24,0,0,1,.77,2.09,15.13,15.13,0,0,1,.08,2h-6.92a2.5,2.5,0,0,0,1,2.14,2.25,2.25,0,0,0,1.31.38,1.89,1.89,0,0,0,1.33-.47,2.22,2.22,0,0,0,.49-.69Zm-2.62-3.1a2.28,2.28,0,0,0-.63-1.59,2,2,0,0,0-1.42-.55,1.81,1.81,0,0,0-1.42.58,2.86,2.86,0,0,0-.64,1.56Z"/><path class="cls-2" d="M262.24,132.8a5.4,5.4,0,0,1,1.23,3.84,6.08,6.08,0,0,1-1.21,4.07,3.86,3.86,0,0,1-3.09,1.4,3.23,3.23,0,0,1-2-.6,3.8,3.8,0,0,1-.86-1v5.27H253.7v-14.1h2.53v1.5a4.11,4.11,0,0,1,.91-1,3.34,3.34,0,0,1,2.09-.68A4,4,0,0,1,262.24,132.8Zm-1.5,4a3.94,3.94,0,0,0-.54-2.07,1.85,1.85,0,0,0-1.73-.9,2,2,0,0,0-2,1.36,5.12,5.12,0,0,0-.28,1.84,2.92,2.92,0,0,0,.94,2.48,2.12,2.12,0,0,0,1.31.42,1.92,1.92,0,0,0,1.69-.86A4,4,0,0,0,260.74,136.77Z"/><path class="cls-2" d="M270.46,134.15a2.19,2.19,0,0,0-2.14,1A4,4,0,0,0,268,137v4.84h-2.66V131.71h2.52v1.77a5.71,5.71,0,0,1,1.07-1.39,2.92,2.92,0,0,1,1.93-.62h.35v2.71l-.44,0Z"/><path class="cls-2" d="M281.43,138.86a3.36,3.36,0,0,1-.94,1.83,4.61,4.61,0,0,1-3.64,1.47,5.11,5.11,0,0,1-3.4-1.24,5,5,0,0,1-1.48-4,5.63,5.63,0,0,1,1.33-4,4.54,4.54,0,0,1,3.46-1.41,5.21,5.21,0,0,1,2.27.48,3.91,3.91,0,0,1,1.67,1.49,5,5,0,0,1,.77,2.09,13.29,13.29,0,0,1,.09,2h-6.92a2.5,2.5,0,0,0,.95,2.14,2.28,2.28,0,0,0,1.32.38,1.93,1.93,0,0,0,1.33-.47,2.4,2.4,0,0,0,.49-.69Zm-2.62-3.1a2.24,2.24,0,0,0-.64-1.59,2,2,0,0,0-1.41-.55,1.79,1.79,0,0,0-1.42.58,2.86,2.86,0,0,0-.64,1.56Z"/><path class="cls-2" d="M286.2,143.6a2.22,2.22,0,0,0,1.43.36,1.93,1.93,0,0,0,1.91-1,4.79,4.79,0,0,0,.32-2.06v-.64a3.25,3.25,0,0,1-.82,1,3.28,3.28,0,0,1-2.05.6,3.86,3.86,0,0,1-3.11-1.37,5.49,5.49,0,0,1-1.16-3.7,6.21,6.21,0,0,1,1.12-3.79,3.7,3.7,0,0,1,3.18-1.54,3.59,3.59,0,0,1,1.33.23,3.24,3.24,0,0,1,1.56,1.47v-1.46h2.57v9.6a5.39,5.39,0,0,1-.66,2.95c-.76,1.13-2.2,1.7-4.34,1.7a5.91,5.91,0,0,1-3.17-.76,2.78,2.78,0,0,1-1.35-2.27h2.87A1.23,1.23,0,0,0,286.2,143.6Zm-.45-5.23a1.93,1.93,0,0,0,1.93,1.28,2,2,0,0,0,1.57-.7,3.26,3.26,0,0,0,.64-2.23,3.46,3.46,0,0,0-.61-2.19,2,2,0,0,0-1.63-.75,1.92,1.92,0,0,0-1.92,1.31,4.76,4.76,0,0,0-.28,1.72A3.81,3.81,0,0,0,285.75,138.37Z"/><path class="cls-2" d="M299.7,133.67a1.84,1.84,0,0,0-1.84,1.14,3.81,3.81,0,0,0-.26,1.54v5.48H295v-10.1h2.55v1.48a4.42,4.42,0,0,1,1-1.13,3.39,3.39,0,0,1,2.07-.61,3.93,3.93,0,0,1,2.56.82,3.34,3.34,0,0,1,1,2.73v6.81H301.4v-6.15a2.83,2.83,0,0,0-.21-1.23A1.51,1.51,0,0,0,299.7,133.67Z"/><path class="cls-2" d="M306.93,132.81a4.32,4.32,0,0,1,3.6-1.34,6.38,6.38,0,0,1,3,.66,2.53,2.53,0,0,1,1.29,2.49v4.64c0,.32,0,.71,0,1.17a1.43,1.43,0,0,0,.16.7.92.92,0,0,0,.38.31v.39h-2.87a3.08,3.08,0,0,1-.17-.58c0-.18-.05-.38-.07-.61a5.89,5.89,0,0,1-1.26,1,3.8,3.8,0,0,1-1.93.49,3.33,3.33,0,0,1-2.27-.78,2.81,2.81,0,0,1-.9-2.22,2.87,2.87,0,0,1,1.44-2.7,6.28,6.28,0,0,1,2.32-.65l.9-.11a4.09,4.09,0,0,0,1.05-.24.78.78,0,0,0,.56-.75.9.9,0,0,0-.43-.86,2.8,2.8,0,0,0-1.26-.23,1.65,1.65,0,0,0-1.33.46,1.88,1.88,0,0,0-.37.93h-2.55A3.82,3.82,0,0,1,306.93,132.81Zm2,7.1a1.34,1.34,0,0,0,.91.31,2.73,2.73,0,0,0,1.57-.5,2.1,2.1,0,0,0,.74-1.83v-1a2.6,2.6,0,0,1-.5.25,4,4,0,0,1-.7.19l-.59.11a3.92,3.92,0,0,0-1.2.36,1.2,1.2,0,0,0-.61,1.12A1.13,1.13,0,0,0,308.9,139.91Z"/><path class="cls-2" d="M321.88,133.67a1.84,1.84,0,0,0-1.85,1.14,4,4,0,0,0-.26,1.54v5.48h-2.64v-10.1h2.56v1.48a4.62,4.62,0,0,1,1-1.13,3.41,3.41,0,0,1,2.07-.61,4,4,0,0,1,2.57.82,3.37,3.37,0,0,1,1,2.73v6.81h-2.71v-6.15a2.83,2.83,0,0,0-.21-1.23A1.49,1.49,0,0,0,321.88,133.67Z"/><path class="cls-2" d="M337.47,135.34h-2.71a2.25,2.25,0,0,0-.38-1,1.59,1.59,0,0,0-1.38-.61,1.82,1.82,0,0,0-1.83,1.32,5.7,5.7,0,0,0-.26,1.88,5.17,5.17,0,0,0,.26,1.79A1.77,1.77,0,0,0,333,140a1.59,1.59,0,0,0,1.32-.5,2.44,2.44,0,0,0,.47-1.3h2.7a4.35,4.35,0,0,1-.87,2.28,4.24,4.24,0,0,1-3.68,1.74,4.28,4.28,0,0,1-3.59-1.45,5.84,5.84,0,0,1-1.15-3.76,5.92,5.92,0,0,1,1.27-4.05,4.4,4.4,0,0,1,3.5-1.45,5.3,5.3,0,0,1,3.12.86A4,4,0,0,1,337.47,135.34Z"/><path class="cls-2" d="M343.4,139.17l2.09-7.46h2.81l-3.47,9.95a14,14,0,0,1-1.59,3.57,3,3,0,0,1-2.34.69h-.56l-.64,0v-2.11H340a3.6,3.6,0,0,0,.74,0,1.47,1.47,0,0,0,.6-.22,1.38,1.38,0,0,0,.43-.66,1.31,1.31,0,0,0,.16-.61l-3.71-10.56h2.94Z"/><path class="cls-2" d="M359.76,139.94v2l-1.25.05a3.4,3.4,0,0,1-2.56-.65,1.94,1.94,0,0,1-.44-1.41v-6.22H354.1v-1.88h1.41V129h2.61v2.82h1.64v1.88h-1.64V139c0,.42.05.68.16.78a1.77,1.77,0,0,0,1,.15h.25Z"/><path class="cls-2" d="M370.12,138.86a3.36,3.36,0,0,1-.94,1.83,4.61,4.61,0,0,1-3.64,1.47,5.11,5.11,0,0,1-3.4-1.24,5,5,0,0,1-1.48-4,5.59,5.59,0,0,1,1.34-4,4.52,4.52,0,0,1,3.45-1.41,5.21,5.21,0,0,1,2.27.48,3.91,3.91,0,0,1,1.67,1.49,5,5,0,0,1,.77,2.09,13.29,13.29,0,0,1,.09,2h-6.92a2.5,2.5,0,0,0,.95,2.14,2.3,2.3,0,0,0,1.32.38,1.91,1.91,0,0,0,1.33-.47,2.22,2.22,0,0,0,.49-.69Zm-2.62-3.1a2.28,2.28,0,0,0-.63-1.59,2,2,0,0,0-1.42-.55,1.79,1.79,0,0,0-1.42.58,2.86,2.86,0,0,0-.64,1.56Z"/><path class="cls-2" d="M379,132.18a3.27,3.27,0,0,1,1.36,2.61h-2.64a1.61,1.61,0,0,0-.29-.8,1.82,1.82,0,0,0-1.49-.54,2.15,2.15,0,0,0-1.23.27.78.78,0,0,0-.36.63.7.7,0,0,0,.39.66,17.85,17.85,0,0,0,2.75.73,5.14,5.14,0,0,1,2.37,1.12,2.55,2.55,0,0,1,.78,1.9,3.07,3.07,0,0,1-1.12,2.46,5.28,5.28,0,0,1-3.46.95,5.21,5.21,0,0,1-3.52-1,3.28,3.28,0,0,1-1.13-2.56h2.68a1.69,1.69,0,0,0,.36,1,2.46,2.46,0,0,0,1.82.53,2.86,2.86,0,0,0,1.24-.23.78.78,0,0,0,.09-1.38,15.34,15.34,0,0,0-2.76-.79,5.78,5.78,0,0,1-2.42-1.07,2.32,2.32,0,0,1-.71-1.82,3.17,3.17,0,0,1,1.1-2.41,4.45,4.45,0,0,1,3.1-1A5.75,5.75,0,0,1,379,132.18Z"/><path class="cls-2" d="M387.22,139.94v2L386,142a3.4,3.4,0,0,1-2.56-.65,2,2,0,0,1-.44-1.41v-6.22h-1.41v-1.88H383V129h2.61v2.82h1.64v1.88h-1.64V139a1.24,1.24,0,0,0,.16.78,1.78,1.78,0,0,0,1,.15H387Z"/><path class="cls-2" d="M395.89,132.18a3.24,3.24,0,0,1,1.36,2.61h-2.64a1.52,1.52,0,0,0-.29-.8,1.79,1.79,0,0,0-1.48-.54,2.11,2.11,0,0,0-1.23.27.77.77,0,0,0-.37.63.7.7,0,0,0,.39.66,17.77,17.77,0,0,0,2.76.73,5.05,5.05,0,0,1,2.36,1.12,2.55,2.55,0,0,1,.78,1.9,3.07,3.07,0,0,1-1.12,2.46,6.69,6.69,0,0,1-7-.06,3.26,3.26,0,0,1-1.14-2.56H391a1.84,1.84,0,0,0,.36,1,2.47,2.47,0,0,0,1.82.53,2.83,2.83,0,0,0,1.24-.23.78.78,0,0,0,.09-1.38,15.34,15.34,0,0,0-2.76-.79,5.78,5.78,0,0,1-2.42-1.07,2.32,2.32,0,0,1-.7-1.82,3.14,3.14,0,0,1,1.1-2.41,4.4,4.4,0,0,1,3.09-1A5.75,5.75,0,0,1,395.89,132.18Z"/><path class="cls-2" d="M409.4,139.94v2l-1.25.05a3.39,3.39,0,0,1-2.56-.65,1.94,1.94,0,0,1-.45-1.41v-6.22h-1.41v-1.88h1.41V129h2.62v2.82h1.64v1.88h-1.64V139a1.26,1.26,0,0,0,.15.78,1.8,1.8,0,0,0,1,.15h.25Z"/><path class="cls-2" d="M419.53,133a6.3,6.3,0,0,1,0,7.61,5.58,5.58,0,0,1-7.78,0,6.3,6.3,0,0,1,0-7.61,5.53,5.53,0,0,1,7.78,0Zm-3.9.63a2.1,2.1,0,0,0-1.78.83,3.75,3.75,0,0,0-.63,2.34,3.82,3.82,0,0,0,.63,2.35,2.34,2.34,0,0,0,3.56,0,3.82,3.82,0,0,0,.63-2.35,3.75,3.75,0,0,0-.63-2.34A2.08,2.08,0,0,0,415.63,133.62Z"/><path class="cls-2" d="M428.36,132.81a4.32,4.32,0,0,1,3.6-1.34,6.38,6.38,0,0,1,3,.66,2.53,2.53,0,0,1,1.29,2.49v4.64c0,.32,0,.71,0,1.17a1.43,1.43,0,0,0,.16.7.9.9,0,0,0,.39.31v.39h-2.88a3.08,3.08,0,0,1-.17-.58c0-.18-.05-.38-.07-.61a5.89,5.89,0,0,1-1.26,1,3.8,3.8,0,0,1-1.93.49,3.33,3.33,0,0,1-2.27-.78,2.81,2.81,0,0,1-.9-2.22,2.87,2.87,0,0,1,1.44-2.7,6.28,6.28,0,0,1,2.32-.65l.9-.11a4.09,4.09,0,0,0,1.05-.24.78.78,0,0,0,.56-.75.9.9,0,0,0-.43-.86,2.77,2.77,0,0,0-1.26-.23,1.65,1.65,0,0,0-1.33.46,2,2,0,0,0-.37.93h-2.55A3.82,3.82,0,0,1,428.36,132.81Zm2,7.1a1.34,1.34,0,0,0,.91.31,2.71,2.71,0,0,0,1.57-.5,2.13,2.13,0,0,0,.75-1.83v-1a3,3,0,0,1-.51.25,4,4,0,0,1-.7.19l-.59.11a3.92,3.92,0,0,0-1.2.36,1.2,1.2,0,0,0-.61,1.12A1.13,1.13,0,0,0,430.33,139.91Z"/><path class="cls-2" d="M437.55,131.71h3l2.11,7.46,2.15-7.46h2.84L444,141.83h-2.79Z"/><path class="cls-2" d="M457.55,133a6.3,6.3,0,0,1,0,7.61,5.58,5.58,0,0,1-7.78,0,6.3,6.3,0,0,1,0-7.61,5.53,5.53,0,0,1,7.78,0Zm-3.9.63a2.1,2.1,0,0,0-1.78.83,3.75,3.75,0,0,0-.63,2.34,3.82,3.82,0,0,0,.63,2.35,2.34,2.34,0,0,0,3.56,0,3.82,3.82,0,0,0,.62-2.35,3.75,3.75,0,0,0-.62-2.34A2.1,2.1,0,0,0,453.65,133.62Z"/><path class="cls-2" d="M463.44,128.07v2.44h-2.68v-2.44Zm0,3.64v10.12h-2.68V131.71Z"/><path class="cls-2" d="M475.2,128.17v13.66h-2.57v-1.4a3.57,3.57,0,0,1-1.29,1.3,3.53,3.53,0,0,1-1.8.41,3.77,3.77,0,0,1-3-1.43,5.5,5.5,0,0,1-1.21-3.68,6.34,6.34,0,0,1,1.19-4.07,3.89,3.89,0,0,1,3.19-1.49,3.21,3.21,0,0,1,2.79,1.52v-4.82Zm-7.12,8.66a4,4,0,0,0,.55,2.24,1.87,1.87,0,0,0,1.67.84,1.94,1.94,0,0,0,1.71-.83,3.7,3.7,0,0,0,.59-2.16,3.32,3.32,0,0,0-.94-2.65,2,2,0,0,0-1.34-.49,1.85,1.85,0,0,0-1.7.88A4.06,4.06,0,0,0,468.08,136.83Z"/><path class="cls-2" d="M80.25,155a3.25,3.25,0,0,1,1.36,2.61H79a1.58,1.58,0,0,0-.29-.8,1.82,1.82,0,0,0-1.49-.54,2.09,2.09,0,0,0-1.22.27.77.77,0,0,0-.37.63.7.7,0,0,0,.39.66,17.85,17.85,0,0,0,2.75.73,5.09,5.09,0,0,1,2.37,1.12,2.55,2.55,0,0,1,.78,1.9A3.07,3.07,0,0,1,80.77,164a5.26,5.26,0,0,1-3.45.95,5.24,5.24,0,0,1-3.53-1,3.28,3.28,0,0,1-1.13-2.56h2.68a1.76,1.76,0,0,0,.36,1,2.46,2.46,0,0,0,1.82.53,2.86,2.86,0,0,0,1.24-.23.78.78,0,0,0,.09-1.38,15.34,15.34,0,0,0-2.76-.79,5.78,5.78,0,0,1-2.42-1.07,2.32,2.32,0,0,1-.71-1.82,3.17,3.17,0,0,1,1.1-2.41,4.45,4.45,0,0,1,3.1-1A5.75,5.75,0,0,1,80.25,155Z"/><path class="cls-2" d="M90.33,163.2a2.88,2.88,0,0,0-.18.28,1.72,1.72,0,0,1-.36.4,3.52,3.52,0,0,1-1.2.76,4,4,0,0,1-1.36.21,3,3,0,0,1-3-1.62,6.13,6.13,0,0,1-.44-2.62v-6.1h2.71v6.1a3.13,3.13,0,0,0,.21,1.3,1.41,1.41,0,0,0,1.41.77,1.86,1.86,0,0,0,1.86-1.1,4,4,0,0,0,.26-1.56v-5.51H92.9v10.12H90.33Z"/><path class="cls-2" d="M103.92,155.6a5.4,5.4,0,0,1,1.23,3.84,6.08,6.08,0,0,1-1.2,4.07,3.9,3.9,0,0,1-3.1,1.4,3.23,3.23,0,0,1-2-.6,4,4,0,0,1-.86-1v5.27H95.38v-14.1h2.53V156a4.32,4.32,0,0,1,.91-1,3.37,3.37,0,0,1,2.1-.68A4,4,0,0,1,103.92,155.6Zm-1.5,4a4,4,0,0,0-.53-2.07,1.87,1.87,0,0,0-1.73-.9,2,2,0,0,0-2,1.36,5.12,5.12,0,0,0-.28,1.84,2.92,2.92,0,0,0,.94,2.48,2.12,2.12,0,0,0,1.32.42,1.92,1.92,0,0,0,1.68-.86A3.94,3.94,0,0,0,102.42,159.57Z"/><path class="cls-2" d="M115.53,155.6a5.4,5.4,0,0,1,1.22,3.84,6.08,6.08,0,0,1-1.2,4.07,3.86,3.86,0,0,1-3.09,1.4,3.26,3.26,0,0,1-2-.6,4,4,0,0,1-.85-1v5.27H107v-14.1h2.54V156a3.93,3.93,0,0,1,.91-1,3.32,3.32,0,0,1,2.09-.68A4,4,0,0,1,115.53,155.6Zm-1.5,4a3.94,3.94,0,0,0-.54-2.07,1.85,1.85,0,0,0-1.73-.9,2,2,0,0,0-2,1.36,5.12,5.12,0,0,0-.28,1.84,3,3,0,0,0,.93,2.48,2.15,2.15,0,0,0,1.32.42,1.92,1.92,0,0,0,1.69-.86A4,4,0,0,0,114,159.57Z"/><path class="cls-2" d="M127.1,155.79a6.3,6.3,0,0,1,0,7.61,5.58,5.58,0,0,1-7.78,0,6.3,6.3,0,0,1,0-7.61,5.53,5.53,0,0,1,7.78,0Zm-3.9.63a2.13,2.13,0,0,0-1.79.83,3.81,3.81,0,0,0-.62,2.34,3.89,3.89,0,0,0,.62,2.35,2.12,2.12,0,0,0,1.79.82,2.09,2.09,0,0,0,1.78-.82,3.82,3.82,0,0,0,.62-2.35,3.75,3.75,0,0,0-.62-2.34A2.1,2.1,0,0,0,123.2,156.42Z"/><path class="cls-2" d="M135.35,157a2.2,2.2,0,0,0-2.14,1,4.12,4.12,0,0,0-.3,1.8v4.84h-2.67V154.51h2.53v1.77a5.49,5.49,0,0,1,1.06-1.39,2.94,2.94,0,0,1,1.93-.62h.36V157l-.45,0Z"/><path class="cls-2" d="M142.29,162.74v2l-1.25.05a3.4,3.4,0,0,1-2.56-.65,1.94,1.94,0,0,1-.44-1.41v-6.22h-1.41v-1.88H138v-2.82h2.61v2.82h1.64v1.88h-1.64v5.34c0,.42,0,.68.16.78a1.75,1.75,0,0,0,1,.15H142Z"/><path class="cls-2" d="M146.71,150.87v2.44H144v-2.44Zm0,3.64v10.12H144V154.51Z"/><path class="cls-2" d="M154,156.47a1.85,1.85,0,0,0-1.85,1.14,4,4,0,0,0-.26,1.54v5.48h-2.63v-10.1h2.55V156a4.42,4.42,0,0,1,1-1.13,3.38,3.38,0,0,1,2.06-.61,4,4,0,0,1,2.57.82,3.37,3.37,0,0,1,1,2.73v6.81h-2.71v-6.15a2.68,2.68,0,0,0-.22-1.23A1.49,1.49,0,0,0,154,156.47Z"/><path class="cls-2" d="M163.73,166.4a2.27,2.27,0,0,0,1.44.36,1.93,1.93,0,0,0,1.91-1,4.79,4.79,0,0,0,.32-2.06v-.64a3.4,3.4,0,0,1-.82,1,3.28,3.28,0,0,1-2.05.6,3.86,3.86,0,0,1-3.11-1.37,5.49,5.49,0,0,1-1.17-3.7,6.22,6.22,0,0,1,1.13-3.79,3.7,3.7,0,0,1,3.18-1.54,3.59,3.59,0,0,1,1.33.23,3.18,3.18,0,0,1,1.55,1.47v-1.46H170v9.6a5.49,5.49,0,0,1-.65,2.95q-1.14,1.69-4.35,1.7a5.89,5.89,0,0,1-3.16-.76,2.76,2.76,0,0,1-1.35-2.27h2.87A1.29,1.29,0,0,0,163.73,166.4Zm-.44-5.23a1.93,1.93,0,0,0,1.93,1.28,2,2,0,0,0,1.57-.7,3.26,3.26,0,0,0,.64-2.23,3.46,3.46,0,0,0-.61-2.19,2,2,0,0,0-1.63-.75,1.92,1.92,0,0,0-1.92,1.31,4.55,4.55,0,0,0-.28,1.72A3.84,3.84,0,0,0,163.29,161.17Z"/><path class="cls-2" d="M183.44,157.3a1.3,1.3,0,0,0-1.31-.74,1.56,1.56,0,0,0-1.52.74,2.82,2.82,0,0,0-.21,1.24v6.09h-2.69v-10.1h2.57V156a4.42,4.42,0,0,1,.93-1.13,3.23,3.23,0,0,1,2-.59,3.16,3.16,0,0,1,1.87.51A3,3,0,0,1,186,156a3.38,3.38,0,0,1,1.29-1.31,3.93,3.93,0,0,1,1.82-.42,3.57,3.57,0,0,1,1.32.26,3,3,0,0,1,1.18.91,3,3,0,0,1,.57,1.3,9.24,9.24,0,0,1,.09,1.49v6.38H189.5v-6.44a2.17,2.17,0,0,0-.19-.95,1.31,1.31,0,0,0-1.3-.7,1.52,1.52,0,0,0-1.51.9,3,3,0,0,0-.21,1.17v6h-2.67v-6A3.48,3.48,0,0,0,183.44,157.3Z"/><path class="cls-2" d="M195,155.61a4.3,4.3,0,0,1,3.6-1.34,6.41,6.41,0,0,1,3,.66,2.54,2.54,0,0,1,1.28,2.49v4.64c0,.32,0,.71,0,1.17a1.43,1.43,0,0,0,.16.7,1,1,0,0,0,.39.31v.39h-2.88a3,3,0,0,1-.16-.58c0-.18-.06-.38-.08-.61a5.43,5.43,0,0,1-1.26,1,3.77,3.77,0,0,1-1.93.49,3.35,3.35,0,0,1-2.27-.78,2.83,2.83,0,0,1-.89-2.22,2.87,2.87,0,0,1,1.44-2.7,6.22,6.22,0,0,1,2.32-.65l.9-.11a4.1,4.1,0,0,0,1-.24.79.79,0,0,0,.57-.75.9.9,0,0,0-.43-.86,2.82,2.82,0,0,0-1.27-.23,1.64,1.64,0,0,0-1.32.46,2,2,0,0,0-.38.93h-2.55A3.9,3.9,0,0,1,195,155.61Zm2,7.1a1.36,1.36,0,0,0,.91.31,2.71,2.71,0,0,0,1.57-.5,2.13,2.13,0,0,0,.75-1.83v-1a2.92,2.92,0,0,1-.5.25,4.1,4.1,0,0,1-.71.19l-.59.11a4,4,0,0,0-1.2.36,1.22,1.22,0,0,0-.61,1.12A1.15,1.15,0,0,0,197,162.71Z"/><path class="cls-2" d="M209.85,162.74v2l-1.25.05a3.4,3.4,0,0,1-2.56-.65,1.94,1.94,0,0,1-.45-1.41v-6.22h-1.41v-1.88h1.41v-2.82h2.62v2.82h1.64v1.88h-1.64v5.34c0,.42,0,.68.16.78a1.73,1.73,0,0,0,1,.15h.26Z"/><path class="cls-2" d="M220.2,161.66a3.28,3.28,0,0,1-.93,1.82,4.58,4.58,0,0,1-3.64,1.48,5.09,5.09,0,0,1-3.4-1.24,5,5,0,0,1-1.48-4.05,5.63,5.63,0,0,1,1.33-4,4.54,4.54,0,0,1,3.46-1.41,5.21,5.21,0,0,1,2.27.48,3.91,3.91,0,0,1,1.67,1.49,5.09,5.09,0,0,1,.77,2.09,12.29,12.29,0,0,1,.08,2h-6.92a2.53,2.53,0,0,0,1,2.14,2.26,2.26,0,0,0,1.32.38,1.89,1.89,0,0,0,1.32-.47,2.24,2.24,0,0,0,.5-.69Zm-2.61-3.1A2.28,2.28,0,0,0,217,157a2,2,0,0,0-1.41-.55,1.83,1.83,0,0,0-1.43.58,2.93,2.93,0,0,0-.63,1.56Z"/><path class="cls-2" d="M227.2,157a2.19,2.19,0,0,0-2.14,1,4,4,0,0,0-.31,1.8v4.84h-2.66V154.51h2.52v1.77a5.71,5.71,0,0,1,1.07-1.39,2.92,2.92,0,0,1,1.93-.62H228V157l-.44,0Z"/><path class="cls-2" d="M234.27,156.47a1.85,1.85,0,0,0-1.85,1.14,4,4,0,0,0-.26,1.54v5.48h-2.63v-10.1h2.55V156a4.62,4.62,0,0,1,1-1.13,3.43,3.43,0,0,1,2.07-.61,4,4,0,0,1,2.57.82,3.37,3.37,0,0,1,1,2.73v6.81H236v-6.15a2.68,2.68,0,0,0-.22-1.23A1.49,1.49,0,0,0,234.27,156.47Z"/><path class="cls-2" d="M243.83,150.87v2.44h-2.68v-2.44Zm0,3.64v10.12h-2.68V154.51Z"/><path class="cls-2" d="M251,162.74v2l-1.25.05a3.4,3.4,0,0,1-2.56-.65,1.94,1.94,0,0,1-.44-1.41v-6.22h-1.41v-1.88h1.41v-2.82h2.61v2.82H251v1.88h-1.64v5.34c0,.42.05.68.16.78a1.75,1.75,0,0,0,1,.15h.26Z"/><path class="cls-2" d="M256.83,162l2.09-7.46h2.81l-3.47,10a14,14,0,0,1-1.59,3.57,3,3,0,0,1-2.33.69h-.57l-.64,0v-2.11h.33a3.72,3.72,0,0,0,.75,0,1.48,1.48,0,0,0,.59-.22,1.38,1.38,0,0,0,.43-.66,1.31,1.31,0,0,0,.16-.61l-3.71-10.56h2.94Z"/><path class="cls-2" d="M268.62,151h2.65v13.68h-2.65Z"/><path class="cls-2" d="M282.5,161.66a3.35,3.35,0,0,1-.93,1.82,4.58,4.58,0,0,1-3.64,1.48,5.14,5.14,0,0,1-3.41-1.24,5,5,0,0,1-1.47-4.05,5.59,5.59,0,0,1,1.33-4,4.54,4.54,0,0,1,3.46-1.41,5.24,5.24,0,0,1,2.27.48,4,4,0,0,1,1.67,1.49,5.24,5.24,0,0,1,.77,2.09,13.56,13.56,0,0,1,.08,2h-6.92a2.53,2.53,0,0,0,1,2.14,2.25,2.25,0,0,0,1.31.38,1.89,1.89,0,0,0,1.33-.47,2.07,2.07,0,0,0,.49-.69Zm-2.61-3.1a2.33,2.33,0,0,0-.64-1.59,2,2,0,0,0-1.41-.55,1.82,1.82,0,0,0-1.43.58,2.85,2.85,0,0,0-.63,1.56Z"/><path class="cls-2" d="M284.79,155.61a4.32,4.32,0,0,1,3.6-1.34,6.38,6.38,0,0,1,2.95.66,2.53,2.53,0,0,1,1.29,2.49v4.64c0,.32,0,.71,0,1.17a1.43,1.43,0,0,0,.16.7,1,1,0,0,0,.39.31v.39h-2.88a3,3,0,0,1-.16-.58,4.78,4.78,0,0,1-.08-.61,5.43,5.43,0,0,1-1.26,1,3.77,3.77,0,0,1-1.93.49,3.35,3.35,0,0,1-2.27-.78,2.83,2.83,0,0,1-.89-2.22,2.88,2.88,0,0,1,1.43-2.7,6.28,6.28,0,0,1,2.32-.65l.9-.11a4.09,4.09,0,0,0,1.05-.24.79.79,0,0,0,.57-.75.91.91,0,0,0-.43-.86,2.82,2.82,0,0,0-1.27-.23,1.66,1.66,0,0,0-1.33.46,2,2,0,0,0-.37.93h-2.55A3.89,3.89,0,0,1,284.79,155.61Zm2,7.1a1.36,1.36,0,0,0,.91.31,2.71,2.71,0,0,0,1.57-.5,2.13,2.13,0,0,0,.75-1.83v-1a3,3,0,0,1-.51.25,4,4,0,0,1-.7.19l-.59.11a3.92,3.92,0,0,0-1.2.36,1.2,1.2,0,0,0-.61,1.12A1.15,1.15,0,0,0,286.76,162.71Z"/><path class="cls-2" d="M294,154.51h3l2.1,7.46,2.15-7.46h2.84l-3.64,10.12h-2.79Z"/><path class="cls-2" d="M314.2,161.66a3.35,3.35,0,0,1-.93,1.82,4.58,4.58,0,0,1-3.64,1.48,5.14,5.14,0,0,1-3.41-1.24,5,5,0,0,1-1.47-4.05,5.59,5.59,0,0,1,1.33-4,4.54,4.54,0,0,1,3.46-1.41,5.21,5.21,0,0,1,2.27.48,4,4,0,0,1,1.67,1.49,5.24,5.24,0,0,1,.77,2.09,12.29,12.29,0,0,1,.08,2h-6.92a2.53,2.53,0,0,0,1,2.14,2.26,2.26,0,0,0,1.32.38,1.89,1.89,0,0,0,1.32-.47,2.07,2.07,0,0,0,.49-.69Zm-2.61-3.1A2.33,2.33,0,0,0,311,157a2,2,0,0,0-1.41-.55,1.82,1.82,0,0,0-1.43.58,2.85,2.85,0,0,0-.63,1.56Z"/><path class="cls-2" d="M329.83,155.79a6.3,6.3,0,0,1,0,7.61,5.58,5.58,0,0,1-7.78,0,6.3,6.3,0,0,1,0-7.61,5.53,5.53,0,0,1,7.78,0Zm-3.9.63a2.13,2.13,0,0,0-1.79.83,3.81,3.81,0,0,0-.62,2.34,3.89,3.89,0,0,0,.62,2.35,2.12,2.12,0,0,0,1.79.82,2.09,2.09,0,0,0,1.78-.82,3.89,3.89,0,0,0,.62-2.35,3.81,3.81,0,0,0-.62-2.34A2.1,2.1,0,0,0,325.93,156.42Z"/><path class="cls-2" d="M338.08,157a2.19,2.19,0,0,0-2.14,1,4.1,4.1,0,0,0-.31,1.8v4.84H333V154.51h2.53v1.77a5.49,5.49,0,0,1,1.06-1.39,2.94,2.94,0,0,1,1.93-.62h.35V157l-.44,0Z"/><path class="cls-2" d="M354.14,155.6a5.4,5.4,0,0,1,1.23,3.84,6.08,6.08,0,0,1-1.2,4.07,3.9,3.9,0,0,1-3.1,1.4,3.23,3.23,0,0,1-2-.6,4,4,0,0,1-.86-1v5.27H345.6v-14.1h2.53V156a4.11,4.11,0,0,1,.91-1,3.37,3.37,0,0,1,2.1-.68A4,4,0,0,1,354.14,155.6Zm-1.5,4a4,4,0,0,0-.53-2.07,1.87,1.87,0,0,0-1.73-.9,2,2,0,0,0-2,1.36,5.12,5.12,0,0,0-.28,1.84,2.92,2.92,0,0,0,.94,2.48,2.12,2.12,0,0,0,1.32.42,1.92,1.92,0,0,0,1.68-.86A3.94,3.94,0,0,0,352.64,159.57Z"/><path class="cls-2" d="M362.36,157a2.19,2.19,0,0,0-2.14,1,4,4,0,0,0-.31,1.8v4.84h-2.66V154.51h2.52v1.77a5.71,5.71,0,0,1,1.07-1.39,2.92,2.92,0,0,1,1.93-.62h.35V157l-.44,0Z"/><path class="cls-2" d="M373.11,155.79a6.3,6.3,0,0,1,0,7.61,5.58,5.58,0,0,1-7.78,0,6.3,6.3,0,0,1,0-7.61,5.53,5.53,0,0,1,7.78,0Zm-3.9.63a2.13,2.13,0,0,0-1.79.83,3.81,3.81,0,0,0-.62,2.34,3.89,3.89,0,0,0,.62,2.35,2.12,2.12,0,0,0,1.79.82,2.09,2.09,0,0,0,1.78-.82,3.89,3.89,0,0,0,.62-2.35,3.81,3.81,0,0,0-.62-2.34A2.1,2.1,0,0,0,369.21,156.42Z"/><path class="cls-2" d="M375.29,154.51h3l2.11,7.46,2.15-7.46h2.84l-3.65,10.12h-2.79Z"/><path class="cls-2" d="M389.56,150.87v2.44h-2.68v-2.44Zm0,3.64v10.12h-2.68V154.51Z"/><path class="cls-2" d="M401.33,151v13.66h-2.57v-1.4a3.81,3.81,0,0,1-1.29,1.3,3.55,3.55,0,0,1-1.8.41,3.79,3.79,0,0,1-3-1.43,5.55,5.55,0,0,1-1.21-3.68,6.29,6.29,0,0,1,1.2-4.07,3.86,3.86,0,0,1,3.18-1.49,3.21,3.21,0,0,1,2.8,1.52V151Zm-7.13,8.66a4,4,0,0,0,.56,2.24,1.85,1.85,0,0,0,1.67.84,1.94,1.94,0,0,0,1.71-.83,3.77,3.77,0,0,0,.58-2.16,3.28,3.28,0,0,0-.94-2.65,2,2,0,0,0-1.33-.49,1.86,1.86,0,0,0-1.71.88A4.06,4.06,0,0,0,394.2,159.63Z"/><path class="cls-2" d="M406.45,150.87v2.44h-2.68v-2.44Zm0,3.64v10.12h-2.68V154.51Z"/><path class="cls-2" d="M413.77,156.47a1.84,1.84,0,0,0-1.85,1.14,4,4,0,0,0-.26,1.54v5.48H409v-10.1h2.55V156a4.62,4.62,0,0,1,1-1.13,3.43,3.43,0,0,1,2.07-.61,4,4,0,0,1,2.57.82,3.37,3.37,0,0,1,1,2.73v6.81h-2.7v-6.15a2.82,2.82,0,0,0-.22-1.23A1.49,1.49,0,0,0,413.77,156.47Z"/><path class="cls-2" d="M423.47,166.4a2.27,2.27,0,0,0,1.44.36,1.93,1.93,0,0,0,1.91-1,4.79,4.79,0,0,0,.32-2.06v-.64a3.4,3.4,0,0,1-.82,1,3.3,3.3,0,0,1-2.05.6,3.84,3.84,0,0,1-3.11-1.37,5.49,5.49,0,0,1-1.17-3.7,6.22,6.22,0,0,1,1.13-3.79,3.67,3.67,0,0,1,3.18-1.54,3.54,3.54,0,0,1,1.32.23,3.16,3.16,0,0,1,1.56,1.47v-1.46h2.57v9.6a5.39,5.39,0,0,1-.66,2.95q-1.12,1.69-4.34,1.7a5.89,5.89,0,0,1-3.16-.76,2.79,2.79,0,0,1-1.36-2.27h2.88A1.16,1.16,0,0,0,423.47,166.4Zm-.44-5.23a1.93,1.93,0,0,0,1.93,1.28,2,2,0,0,0,1.56-.7,3.21,3.21,0,0,0,.64-2.23,3.46,3.46,0,0,0-.6-2.19,2,2,0,0,0-1.63-.75,1.92,1.92,0,0,0-1.92,1.31,4.55,4.55,0,0,0-.28,1.72A3.84,3.84,0,0,0,423,161.17Z"/><path class="cls-2" d="M131.19,178.41a4.32,4.32,0,0,1,3.6-1.34,6.38,6.38,0,0,1,3,.66,2.53,2.53,0,0,1,1.29,2.49v4.64c0,.32,0,.71,0,1.17a1.43,1.43,0,0,0,.16.7,1,1,0,0,0,.39.31v.39h-2.88a3,3,0,0,1-.16-.58,4.78,4.78,0,0,1-.08-.61,5.43,5.43,0,0,1-1.26,1,3.77,3.77,0,0,1-1.93.49A3.33,3.33,0,0,1,131,187a2.82,2.82,0,0,1-.89-2.22,2.88,2.88,0,0,1,1.43-2.7,6.28,6.28,0,0,1,2.32-.65l.9-.11a4.09,4.09,0,0,0,1.05-.24.79.79,0,0,0,.57-.75.91.91,0,0,0-.43-.86,2.82,2.82,0,0,0-1.27-.23,1.66,1.66,0,0,0-1.33.46,2,2,0,0,0-.37.93h-2.55A3.89,3.89,0,0,1,131.19,178.41Zm2,7.11a1.4,1.4,0,0,0,.91.3,2.71,2.71,0,0,0,1.57-.5,2.13,2.13,0,0,0,.75-1.83v-1a3,3,0,0,1-.51.25,4,4,0,0,1-.7.19l-.59.11a3.92,3.92,0,0,0-1.2.36,1.38,1.38,0,0,0-.23,2.1Z"/><path class="cls-2" d="M149.85,178.4a5.4,5.4,0,0,1,1.23,3.84,6.08,6.08,0,0,1-1.21,4.07,3.86,3.86,0,0,1-3.09,1.4,3.23,3.23,0,0,1-2-.6,3.8,3.8,0,0,1-.86-1v5.27h-2.61v-14.1h2.53v1.5a4.11,4.11,0,0,1,.91-1,3.34,3.34,0,0,1,2.09-.68A4,4,0,0,1,149.85,178.4Zm-1.5,4a3.94,3.94,0,0,0-.54-2.07,1.85,1.85,0,0,0-1.73-.9,2,2,0,0,0-2,1.37,5,5,0,0,0-.28,1.83,2.92,2.92,0,0,0,.94,2.48,2.12,2.12,0,0,0,1.31.42,1.92,1.92,0,0,0,1.69-.86A4,4,0,0,0,148.35,182.37Z"/><path class="cls-2" d="M161.46,178.4a5.45,5.45,0,0,1,1.22,3.84,6.08,6.08,0,0,1-1.2,4.07,3.86,3.86,0,0,1-3.09,1.4,3.24,3.24,0,0,1-2-.6,4,4,0,0,1-.85-1v5.27h-2.62v-14.1h2.53v1.5a4.32,4.32,0,0,1,.91-1,3.37,3.37,0,0,1,2.1-.68A4,4,0,0,1,161.46,178.4Zm-1.51,4a3.94,3.94,0,0,0-.53-2.07,1.86,1.86,0,0,0-1.73-.9,2,2,0,0,0-2,1.37,5.27,5.27,0,0,0-.27,1.83,3,3,0,0,0,.93,2.48,2.12,2.12,0,0,0,1.32.42,1.89,1.89,0,0,0,1.68-.86A3.94,3.94,0,0,0,160,182.37Z"/><path class="cls-2" d="M169.68,179.75a2.21,2.21,0,0,0-2.15,1,4.12,4.12,0,0,0-.3,1.8v4.84h-2.67V177.31h2.53v1.77a5.73,5.73,0,0,1,1.06-1.39,2.94,2.94,0,0,1,1.93-.62h.36v2.71l-.45,0Z"/><path class="cls-2" d="M180.42,178.59a6.3,6.3,0,0,1,0,7.61,5.58,5.58,0,0,1-7.78,0,6.3,6.3,0,0,1,0-7.61,5.53,5.53,0,0,1,7.78,0Zm-3.9.64a2.09,2.09,0,0,0-1.78.82,3.75,3.75,0,0,0-.63,2.34,3.82,3.82,0,0,0,.63,2.35,2.34,2.34,0,0,0,3.56,0,3.82,3.82,0,0,0,.63-2.35,3.75,3.75,0,0,0-.63-2.34A2.08,2.08,0,0,0,176.52,179.23Z"/><path class="cls-2" d="M192.06,178.4a5.4,5.4,0,0,1,1.23,3.84,6.08,6.08,0,0,1-1.2,4.07,3.9,3.9,0,0,1-3.1,1.4,3.23,3.23,0,0,1-2-.6,4,4,0,0,1-.86-1v5.27h-2.61v-14.1h2.53v1.5a4.11,4.11,0,0,1,.91-1,3.37,3.37,0,0,1,2.1-.68A4,4,0,0,1,192.06,178.4Zm-1.5,4a4,4,0,0,0-.53-2.07,1.87,1.87,0,0,0-1.73-.9,2,2,0,0,0-2,1.37,5,5,0,0,0-.28,1.83,2.92,2.92,0,0,0,.94,2.48,2.12,2.12,0,0,0,1.32.42,1.92,1.92,0,0,0,1.68-.86A3.94,3.94,0,0,0,190.56,182.37Z"/><path class="cls-2" d="M200.28,179.75a2.19,2.19,0,0,0-2.14,1,4,4,0,0,0-.31,1.8v4.84h-2.66V177.31h2.52v1.77a5.71,5.71,0,0,1,1.07-1.39,2.94,2.94,0,0,1,1.93-.62H201v2.71l-.44,0Z"/><path class="cls-2" d="M205.31,173.67v2.44h-2.68v-2.44Zm0,3.64v10.12h-2.68V177.31Z"/><path class="cls-2" d="M208.25,178.41a4.32,4.32,0,0,1,3.6-1.34,6.38,6.38,0,0,1,3,.66,2.53,2.53,0,0,1,1.29,2.49v4.64c0,.32,0,.71,0,1.17a1.43,1.43,0,0,0,.16.7.9.9,0,0,0,.39.31v.39h-2.88a3.08,3.08,0,0,1-.17-.58c0-.18-.05-.38-.07-.61a5.89,5.89,0,0,1-1.26,1,3.77,3.77,0,0,1-1.93.49,3.33,3.33,0,0,1-2.27-.78,2.79,2.79,0,0,1-.9-2.22,2.87,2.87,0,0,1,1.44-2.7,6.28,6.28,0,0,1,2.32-.65l.9-.11a4.09,4.09,0,0,0,1-.24.79.79,0,0,0,.57-.75.9.9,0,0,0-.44-.86,2.77,2.77,0,0,0-1.26-.23,1.65,1.65,0,0,0-1.33.46,2,2,0,0,0-.37.93h-2.55A3.82,3.82,0,0,1,208.25,178.41Zm2,7.11a1.4,1.4,0,0,0,.91.3,2.71,2.71,0,0,0,1.57-.5,2.13,2.13,0,0,0,.75-1.83v-1a3,3,0,0,1-.51.25,4,4,0,0,1-.7.19l-.59.11a3.92,3.92,0,0,0-1.2.36,1.2,1.2,0,0,0-.61,1.12A1.16,1.16,0,0,0,210.22,185.52Z"/><path class="cls-2" d="M223.07,185.54v2l-1.26,0a3.42,3.42,0,0,1-2.56-.65,2,2,0,0,1-.44-1.4v-6.23H217.4v-1.88h1.41v-2.82h2.62v2.82h1.64v1.88h-1.64v5.34a1.26,1.26,0,0,0,.15.78,1.8,1.8,0,0,0,1,.15h.25Z"/><path class="cls-2" d="M233.42,184.46a3.36,3.36,0,0,1-.94,1.83,4.57,4.57,0,0,1-3.63,1.47,5.14,5.14,0,0,1-3.41-1.24,5,5,0,0,1-1.47-4.05,5.59,5.59,0,0,1,1.33-4,4.53,4.53,0,0,1,3.45-1.4,5.25,5.25,0,0,1,2.28.47A4,4,0,0,1,232.7,179a5.24,5.24,0,0,1,.77,2.09,13.56,13.56,0,0,1,.08,2h-6.92a2.53,2.53,0,0,0,1,2.14,2.25,2.25,0,0,0,1.31.38,1.89,1.89,0,0,0,1.33-.47,2.22,2.22,0,0,0,.49-.69Zm-2.62-3.1a2.28,2.28,0,0,0-.63-1.59,2,2,0,0,0-1.42-.54,1.8,1.8,0,0,0-1.42.57,2.86,2.86,0,0,0-.64,1.56Z"/><path class="cls-2" d="M249.75,181.49v5.94h-2.7v-6.15a2.64,2.64,0,0,0-.28-1.32,1.4,1.4,0,0,0-1.37-.71,1.9,1.9,0,0,0-1.59.7,3.24,3.24,0,0,0-.55,2v5.48h-2.63V173.8h2.63v4.83a3.24,3.24,0,0,1,1.34-1.23,3.76,3.76,0,0,1,1.59-.35,4.26,4.26,0,0,1,1.7.33,3.06,3.06,0,0,1,1.26,1,2.87,2.87,0,0,1,.51,1.17A14.77,14.77,0,0,1,249.75,181.49Z"/><path class="cls-2" d="M260.87,184.46a3.41,3.41,0,0,1-.93,1.83,4.61,4.61,0,0,1-3.64,1.47,5.14,5.14,0,0,1-3.41-1.24,5,5,0,0,1-1.47-4.05,5.59,5.59,0,0,1,1.33-4,4.54,4.54,0,0,1,3.46-1.4,5.24,5.24,0,0,1,2.27.47,4,4,0,0,1,1.67,1.49,5.24,5.24,0,0,1,.77,2.09,13.56,13.56,0,0,1,.08,2h-6.92a2.53,2.53,0,0,0,1,2.14,2.25,2.25,0,0,0,1.31.38,1.89,1.89,0,0,0,1.33-.47,2.07,2.07,0,0,0,.49-.69Zm-2.61-3.1a2.33,2.33,0,0,0-.64-1.59,2,2,0,0,0-1.41-.54,1.81,1.81,0,0,0-1.43.57,2.78,2.78,0,0,0-.63,1.56Z"/><path class="cls-2" d="M263.16,178.41a4.32,4.32,0,0,1,3.6-1.34,6.38,6.38,0,0,1,2.95.66,2.53,2.53,0,0,1,1.29,2.49v4.64c0,.32,0,.71,0,1.17a1.43,1.43,0,0,0,.16.7,1,1,0,0,0,.39.31v.39h-2.88a3,3,0,0,1-.16-.58c0-.18-.06-.38-.08-.61a5.43,5.43,0,0,1-1.26,1,3.77,3.77,0,0,1-1.93.49A3.35,3.35,0,0,1,263,187a2.82,2.82,0,0,1-.89-2.22,2.87,2.87,0,0,1,1.44-2.7,6.16,6.16,0,0,1,2.31-.65l.9-.11a4.09,4.09,0,0,0,1.05-.24.79.79,0,0,0,.57-.75.91.91,0,0,0-.43-.86,2.82,2.82,0,0,0-1.27-.23,1.66,1.66,0,0,0-1.33.46,2.09,2.09,0,0,0-.37.93h-2.55A3.89,3.89,0,0,1,263.16,178.41Zm2,7.11a1.4,1.4,0,0,0,.91.3,2.71,2.71,0,0,0,1.57-.5,2.13,2.13,0,0,0,.75-1.83v-1a3,3,0,0,1-.51.25,4,4,0,0,1-.7.19l-.59.11a3.92,3.92,0,0,0-1.2.36,1.38,1.38,0,0,0-.23,2.1Z"/><path class="cls-2" d="M273.41,173.75h2.64v13.68h-2.64Z"/><path class="cls-2" d="M283.26,185.54v2l-1.25,0a3.39,3.39,0,0,1-2.56-.65,1.93,1.93,0,0,1-.45-1.4v-6.23h-1.41v-1.88H279v-2.82h2.62v2.82h1.64v1.88h-1.64v5.34a1.26,1.26,0,0,0,.15.78,1.8,1.8,0,0,0,1,.15H283Z"/><path class="cls-2" d="M294.09,181.49v5.94H291.4v-6.15a2.75,2.75,0,0,0-.28-1.32,1.4,1.4,0,0,0-1.38-.71,1.9,1.9,0,0,0-1.59.7,3.24,3.24,0,0,0-.54,2v5.48H285V173.8h2.63v4.83a3.22,3.22,0,0,1,1.33-1.23,3.83,3.83,0,0,1,1.59-.35,4.23,4.23,0,0,1,1.7.33,3,3,0,0,1,1.26,1,2.62,2.62,0,0,1,.51,1.17A14.77,14.77,0,0,1,294.09,181.49Z"/><path class="cls-2" d="M307.33,187.7a3.57,3.57,0,0,1-2-.51,3.83,3.83,0,0,1-1-1v1.28h-2.59V173.77h2.63v4.86a3.73,3.73,0,0,1,1.11-1.07,3.26,3.26,0,0,1,1.82-.47,3.74,3.74,0,0,1,3.12,1.44,5.85,5.85,0,0,1,1.12,3.71,6.57,6.57,0,0,1-1.11,3.91A3.62,3.62,0,0,1,307.33,187.7Zm1.45-5.18a4.78,4.78,0,0,0-.28-1.78,1.94,1.94,0,0,0-1.95-1.34,2,2,0,0,0-2,1.31,4.79,4.79,0,0,0-.28,1.8,3.78,3.78,0,0,0,.57,2.15,2,2,0,0,0,1.76.86,1.8,1.8,0,0,0,1.58-.83A3.74,3.74,0,0,0,308.78,182.52Z"/><path class="cls-2" d="M322.1,184.46a3.34,3.34,0,0,1-.93,1.83,4.61,4.61,0,0,1-3.64,1.47,5.14,5.14,0,0,1-3.41-1.24,5,5,0,0,1-1.47-4.05,5.59,5.59,0,0,1,1.33-4,4.54,4.54,0,0,1,3.46-1.4,5.21,5.21,0,0,1,2.27.47,4,4,0,0,1,1.67,1.49,5.09,5.09,0,0,1,.77,2.09,12.29,12.29,0,0,1,.08,2h-6.92a2.53,2.53,0,0,0,1,2.14,2.25,2.25,0,0,0,1.31.38,1.89,1.89,0,0,0,1.33-.47,2.07,2.07,0,0,0,.49-.69Zm-2.61-3.1a2.33,2.33,0,0,0-.64-1.59,2,2,0,0,0-1.41-.54,1.81,1.81,0,0,0-1.43.57,2.85,2.85,0,0,0-.63,1.56Z"/><path class="cls-2" d="M328.77,179.27a1.84,1.84,0,0,0-1.84,1.14,3.84,3.84,0,0,0-.26,1.54v5.48H324v-10.1h2.55v1.48a4.36,4.36,0,0,1,1-1.12,3.33,3.33,0,0,1,2.07-.62,3.93,3.93,0,0,1,2.56.82,3.34,3.34,0,0,1,1,2.73v6.81h-2.71v-6.15a2.87,2.87,0,0,0-.21-1.23A1.51,1.51,0,0,0,328.77,179.27Z"/><path class="cls-2" d="M344.28,184.46a3.36,3.36,0,0,1-.94,1.83,4.61,4.61,0,0,1-3.64,1.47,5.11,5.11,0,0,1-3.4-1.24,5,5,0,0,1-1.48-4.05,5.63,5.63,0,0,1,1.33-4,4.54,4.54,0,0,1,3.46-1.4,5.21,5.21,0,0,1,2.27.47,3.91,3.91,0,0,1,1.67,1.49,5.09,5.09,0,0,1,.77,2.09,13.29,13.29,0,0,1,.09,2h-6.92a2.5,2.5,0,0,0,.95,2.14,2.28,2.28,0,0,0,1.32.38,1.89,1.89,0,0,0,1.32-.47,2.24,2.24,0,0,0,.5-.69Zm-2.62-3.1a2.24,2.24,0,0,0-.64-1.59,2,2,0,0,0-1.41-.54,1.79,1.79,0,0,0-1.42.57,2.86,2.86,0,0,0-.64,1.56Z"/><path class="cls-2" d="M350.93,173.67v2.15c-.15,0-.4,0-.75,0a.86.86,0,0,0-.72.23.81.81,0,0,0-.2.54v.86H351v1.86h-1.73v8.16h-2.64v-8.16h-1.47v-1.86h1.45v-.65a3.47,3.47,0,0,1,.54-2.24c.39-.6,1.31-.91,2.78-.91l.45,0Z"/><path class="cls-2" d="M355.23,173.67v2.44h-2.68v-2.44Zm0,3.64v10.12h-2.68V177.31Z"/><path class="cls-2" d="M362.42,185.54v2l-1.25,0a3.4,3.4,0,0,1-2.56-.65,1.93,1.93,0,0,1-.45-1.4v-6.23h-1.41v-1.88h1.41v-2.82h2.62v2.82h1.64v1.88h-1.64v5.34c0,.42.05.68.16.78a1.75,1.75,0,0,0,1,.15h.26Z"/><path class="cls-2" d="M371.09,177.78a3.25,3.25,0,0,1,1.36,2.61h-2.64a1.58,1.58,0,0,0-.29-.8,1.81,1.81,0,0,0-1.48-.54,2.11,2.11,0,0,0-1.23.27.77.77,0,0,0-.37.63.7.7,0,0,0,.39.66,17.85,17.85,0,0,0,2.75.73,5.09,5.09,0,0,1,2.37,1.12,2.55,2.55,0,0,1,.78,1.9,3.06,3.06,0,0,1-1.12,2.46,5.26,5.26,0,0,1-3.45,1,5.19,5.19,0,0,1-3.52-1,3.26,3.26,0,0,1-1.14-2.56h2.68a1.84,1.84,0,0,0,.36,1,2.47,2.47,0,0,0,1.82.53,2.86,2.86,0,0,0,1.24-.23.75.75,0,0,0,.46-.7.77.77,0,0,0-.37-.68,15.34,15.34,0,0,0-2.76-.79,5.78,5.78,0,0,1-2.42-1.07,2.32,2.32,0,0,1-.71-1.82,3.17,3.17,0,0,1,1.1-2.41,4.45,4.45,0,0,1,3.1-1A5.75,5.75,0,0,1,371.09,177.78Z"/><path class="cls-2" d="M374.64,184.66h2.81v2.77h-2.81Z"/></g></g></svg>