<svg xmlns="http://www.w3.org/2000/svg" viewBox="0 0 113.75 58.75"><defs><style>.cls-1{fill:#9b938a;}.cls-2{fill:#ffe5a1;}.cls-3{fill:none;stroke:#9b938a;stroke-miterlimit:10;}.cls-4{fill:#fff;}</style></defs><g id="Layer_2" data-name="Layer 2"><g id="Layer_1-2" data-name="Layer 1"><path class="cls-1" d="M9,0h96.25a8.5,8.5,0,0,1,8.5,8.5V50.25a8.5,8.5,0,0,1-8.5,8.5H8.5A8.5,8.5,0,0,1,0,50.25V9A9,9,0,0,1,9,0Z"/><circle class="cls-2" cx="25.2" cy="29.36" r="14.39"/><circle class="cls-1" cx="21.26" cy="26.03" r="1.22"/><circle class="cls-1" cx="29.78" cy="26.03" r="1.22"/><path class="cls-3" d="M30.69,36.21s-5.17-7.67-11,0"/><path class="cls-4" d="M56.43,24.2V19.33h1.68V24.2a4,4,0,0,1-.39,2,2.92,2.92,0,0,1-2.79,1.29,2.93,2.93,0,0,1-2.79-1.29,4,4,0,0,1-.39-2V19.33h1.68V24.2a2.74,2.74,0,0,0,.19,1.19,1.62,1.62,0,0,0,2.62,0A2.74,2.74,0,0,0,56.43,24.2Z"/><path class="cls-4" d="M64.86,23.81v3.44H63.3V23.69a1.62,1.62,0,0,0-.16-.76.81.81,0,0,0-.8-.41,1.1,1.1,0,0,0-.92.4,1.86,1.86,0,0,0-.32,1.16v3.17H59.58V19.36H61.1v2.8a1.86,1.86,0,0,1,.78-.71,2.07,2.07,0,0,1,.92-.21,2.55,2.55,0,0,1,1,.19,1.73,1.73,0,0,1,.73.58,1.6,1.6,0,0,1,.3.67A9.61,9.61,0,0,1,64.86,23.81Z"/><path class="cls-4" d="M67.77,27.8a1.56,1.56,0,0,1-.37.68,2.1,2.1,0,0,1-1.19.63v-.59a1.18,1.18,0,0,0,.68-.43,1.71,1.71,0,0,0,.25-.84h-.93v-1.6h1.65V27A3.51,3.51,0,0,1,67.77,27.8Z"/><path class="cls-4" d="M77.28,22.14a3.64,3.64,0,0,1,0,4.4,3.24,3.24,0,0,1-4.5,0,3.64,3.64,0,0,1,0-4.4,3.19,3.19,0,0,1,4.5,0ZM75,22.5A1.22,1.22,0,0,0,74,23a2.19,2.19,0,0,0-.36,1.35A2.22,2.22,0,0,0,74,25.69a1.36,1.36,0,0,0,2.07,0,2.22,2.22,0,0,0,.36-1.36A2.19,2.19,0,0,0,76.06,23,1.22,1.22,0,0,0,75,22.5Z"/><path class="cls-4" d="M84.41,23.81v3.44H82.85V23.69a1.62,1.62,0,0,0-.16-.76.81.81,0,0,0-.8-.41,1.1,1.1,0,0,0-.92.4,1.86,1.86,0,0,0-.31,1.16v3.17H79.13V19.36h1.53v2.8a1.79,1.79,0,0,1,.77-.71,2.07,2.07,0,0,1,.92-.21,2.55,2.55,0,0,1,1,.19,1.73,1.73,0,0,1,.73.58,1.6,1.6,0,0,1,.3.67A9.61,9.61,0,0,1,84.41,23.81Z"/><path class="cls-4" d="M88,21.37l-.43,3.69h-.8l-.45-3.69v-2H88Zm0,4.33v1.55h-1.6V25.7Z"/><path class="cls-4" d="M57.5,32.53v1.4H55.13v6.52H53.47V33.93H51.09v-1.4Z"/><path class="cls-4" d="M60.69,36a1.29,1.29,0,0,0-1.25.6,2.45,2.45,0,0,0-.17,1v2.8H57.73V34.6h1.46v1a2.94,2.94,0,0,1,.62-.8,1.65,1.65,0,0,1,1.11-.36h.21V36l-.26,0Z"/><path class="cls-4" d="M64.4,38.91l1.21-4.31h1.63l-2,5.75a8.15,8.15,0,0,1-.92,2.07,1.73,1.73,0,0,1-1.35.4h-.33l-.37,0V41.57h.19a3,3,0,0,0,.43,0,.77.77,0,0,0,.35-.13.8.8,0,0,0,.25-.38,1,1,0,0,0,.09-.35L61.42,34.6h1.7Z"/><path class="cls-4" d="M71.42,35.23a2.48,2.48,0,0,1,2.08-.77,3.65,3.65,0,0,1,1.71.38A1.46,1.46,0,0,1,76,36.28V39c0,.19,0,.41,0,.68a.85.85,0,0,0,.09.41.48.48,0,0,0,.22.17v.23H74.62a1.73,1.73,0,0,1-.1-.33,3.29,3.29,0,0,1,0-.36,3.2,3.2,0,0,1-.73.59,2.19,2.19,0,0,1-1.12.28,1.91,1.91,0,0,1-1.31-.45,1.6,1.6,0,0,1-.52-1.29,1.67,1.67,0,0,1,.83-1.56A3.72,3.72,0,0,1,73,37l.52-.06a2.2,2.2,0,0,0,.6-.14.45.45,0,0,0,.33-.43.51.51,0,0,0-.25-.5,1.59,1.59,0,0,0-.73-.13,1,1,0,0,0-.77.26,1.21,1.21,0,0,0-.22.54H71A2.19,2.19,0,0,1,71.42,35.23Zm1.14,4.11a.77.77,0,0,0,.52.18,1.56,1.56,0,0,0,.91-.29,1.26,1.26,0,0,0,.44-1.06V37.6a2.1,2.1,0,0,1-.3.15,3,3,0,0,1-.4.11l-.35.06a2.37,2.37,0,0,0-.69.21.7.7,0,0,0-.35.65A.65.65,0,0,0,72.56,39.34Z"/><path class="cls-4" d="M79,41.48a1.27,1.27,0,0,0,.83.21,1.13,1.13,0,0,0,1.11-.56,2.8,2.8,0,0,0,.18-1.19v-.38a2,2,0,0,1-.47.57,1.93,1.93,0,0,1-1.19.35,2.25,2.25,0,0,1-1.8-.8A3.18,3.18,0,0,1,77,37.54a3.67,3.67,0,0,1,.65-2.2,2.16,2.16,0,0,1,1.85-.88,2,2,0,0,1,.77.13,1.84,1.84,0,0,1,.9.85V34.6H82.6v5.55a3.1,3.1,0,0,1-.38,1.71,2.79,2.79,0,0,1-2.51,1,3.35,3.35,0,0,1-1.83-.45,1.63,1.63,0,0,1-.79-1.31h1.67A.66.66,0,0,0,79,41.48Zm-.26-3a1.11,1.11,0,0,0,1.12.74,1.18,1.18,0,0,0,.91-.4,1.91,1.91,0,0,0,.37-1.29,1.94,1.94,0,0,0-.36-1.27,1.14,1.14,0,0,0-.94-.44,1.11,1.11,0,0,0-1.11.76,2.63,2.63,0,0,0-.16,1A2.34,2.34,0,0,0,78.71,38.45Z"/><path class="cls-4" d="M84.25,35.23a2.5,2.5,0,0,1,2.09-.77,3.65,3.65,0,0,1,1.71.38,1.47,1.47,0,0,1,.74,1.44V39c0,.19,0,.41,0,.68a.85.85,0,0,0,.09.41.51.51,0,0,0,.23.17v.23H87.46a1.73,1.73,0,0,1-.1-.33,3.29,3.29,0,0,1,0-.36,3.44,3.44,0,0,1-.73.59,2.22,2.22,0,0,1-1.12.28,2,2,0,0,1-1.32-.45,1.63,1.63,0,0,1-.51-1.29,1.65,1.65,0,0,1,.83-1.56A3.65,3.65,0,0,1,85.81,37l.52-.06a2.2,2.2,0,0,0,.61-.14.45.45,0,0,0,.33-.43.53.53,0,0,0-.25-.5,1.61,1.61,0,0,0-.74-.13.93.93,0,0,0-.76.26,1.21,1.21,0,0,0-.22.54H83.82A2.34,2.34,0,0,1,84.25,35.23Zm1.14,4.11a.81.81,0,0,0,.53.18,1.59,1.59,0,0,0,.91-.29,1.23,1.23,0,0,0,.43-1.06V37.6a1.59,1.59,0,0,1-.29.15,2.85,2.85,0,0,1-.41.11l-.34.06a2.37,2.37,0,0,0-.69.21.7.7,0,0,0-.36.65A.68.68,0,0,0,85.39,39.34Z"/><path class="cls-4" d="M91.73,32.48V33.9H90.17V32.48Zm0,2.12v5.85H90.17V34.6Z"/><path class="cls-4" d="M96,35.73a1.07,1.07,0,0,0-1.07.66,2.26,2.26,0,0,0-.15.89v3.17H93.22V34.61H94.7v.85a2.53,2.53,0,0,1,.55-.65,1.94,1.94,0,0,1,1.2-.35,2.25,2.25,0,0,1,1.49.47,2,2,0,0,1,.57,1.58v3.94H97V36.89a1.63,1.63,0,0,0-.13-.71A.86.86,0,0,0,96,35.73Z"/></g></g></svg>